999
autodxfXMIN:2,000001587E-07
999
autodxfXMAX:2648,50635249339
999
autodxfYMIN:2,000001587E-07
999
autodxfYMAX:1400,000000200001
0
SECTION
2
HEADER
9
$ACADVER
1
AC1015
9
$DWGCODEPAGE
3
ANSI_1251
9
$HANDSEED
5
387
9
$ANGBASE
50
0.0
9
$ANGDIR
70
0
9
$ATTMODE
70
1
9
$AUNITS
70
0
9
$AUPREC
70
0
9
$CECOLOR
62
256
9
$CELTSCALE
40
1.0
9
$CELTYPE
6
ByLayer
9
$CELWEIGHT
370
-1
9
$CLAYER
8
0
9
$CMLJUST
70
0
9
$CMLSCALE
40
1.0
9
$CMLSTYLE
2
Standard
9
$DIMSTYLE
2
Standard
9
$TEXTSIZE
40
0.2
9
$TEXTSTYLE
7
Standard
9
$LUNITS
70
2
9
$LUPREC
70
4
9
$MIRRTEXT
70
0
9
$EXTNAMES
290
1
9
$INSBASE
10
0.0
20
0.0
30
0.0
9
$INSUNITS
70
4
9
$LTSCALE
40
1.0
9
$LWDISPLAY
290
0
9
$PDMODE
70
0
9
$PDSIZE
40
0.0
9
$PLINEGEN
70
0
9
$PSLTSCALE
70
1
9
$SPLINESEGS
70
6
9
$SURFU
70
6
9
$SURFV
70
6
9
$TDCREATE
40
2461076.43247684
9
$TDUCREATE
40
2461076.30747685
9
$TDUPDATE
40
2461076.43247684
9
$TDUUPDATE
40
2461076.30747685
9
$TDINDWG
40
0.0
9
$UCSORG
10
0.0
20
0.0
30
0.0
9
$UCSXDIR
10
1.0
20
0.0
30
0.0
9
$UCSYDIR
10
0.0
20
1.0
30
0.0
9
$DIMADEC
70
0
9
$DIMALT
70
0
9
$DIMALTD
70
2
9
$DIMALTF
40
25.4
9
$DIMALTRND
40
0.0
9
$DIMALTTD
70
2
9
$DIMALTTZ
70
0
9
$DIMALTU
70
2
9
$DIMALTZ
70
0
9
$DIMAPOST
1

9
$DIMATFIT
70
3
9
$DIMAUNIT
70
0
9
$DIMASZ
40
0.18
9
$DIMAZIN
70
3
9
$DIMSAH
70
0
9
$DIMBLK
1

9
$DIMLDRBLK
1

9
$DIMCEN
40
0.09
9
$DIMCLRD
70
0
9
$DIMCLRE
70
0
9
$DIMCLRT
70
0
9
$DIMDEC
70
4
9
$DIMDLE
40
0.0
9
$DIMDLI
40
0.38
9
$DIMDSEP
70
46
9
$DIMEXE
40
0.18
9
$DIMEXO
40
0.0625
9
$DIMFXLON
70
0
9
$DIMFXL
40
1.0
9
$DIMGAP
40
0.09
9
$DIMJUST
70
0
9
$DIMLFAC
40
1.0
9
$DIMLUNIT
70
2
9
$DIMLWD
70
-2
9
$DIMLWE
70
-2
9
$DIMPOST
1

9
$DIMRND
40
0.0
9
$DIMSCALE
40
1.0
9
$DIMSD1
70
0
9
$DIMSD2
70
0
9
$DIMSE1
70
0
9
$DIMSE2
70
0
9
$DIMSOXD
70
0
9
$DIMTAD
70
0
9
$DIMTDEC
70
4
9
$DIMTFAC
40
1.0
9
$DIMTIH
70
0
9
$DIMTIX
70
0
9
$DIMTM
40
0.0
9
$DIMTMOVE
70
0
9
$DIMTOFL
70
0
9
$DIMTOH
70
0
9
$DIMTOL
70
0
9
$DIMLIM
70
0
9
$DIMTOLJ
70
1
9
$DIMTP
40
0.0
9
$DIMTXT
40
0.18
9
$DIMTXTDIRECTION
70
0
9
$DIMTZIN
70
0
9
$DIMZIN
70
0
9
$DIMFRAC
70
0
9
$DIMLTYPE
6
ByBlock
9
$DIMLTEX1
6
ByBlock
9
$DIMLTEX2
6
ByBlock
9
$EXTMIN
10
0.0
20
0.0
30
0.0
9
$EXTMAX
10
2648.50635229339
20
1400.0
30
0.0
9
$LIMMIN
10
0.0
20
0.0
9
$LIMMAX
10
2648.50635229339
20
1400.0
9
$ORTHOMODE
70
0
9
$REGENMODE
70
1
9
$FILLMODE
70
1
9
$QTEXTMODE
70
0
9
$TRACEWID
40
0.05
9
$DISPSILH
70
0
9
$SKETCHINC
40
0.1
9
$FILLETRAD
40
0.0
9
$MENU
1
.
9
$ELEVATION
40
0.0
9
$PELEVATION
40
0.0
9
$THICKNESS
40
0.0
9
$LIMCHECK
70
0
9
$CHAMFERA
40
0.0
9
$CHAMFERB
40
0.0
9
$CHAMFERC
40
0.0
9
$CHAMFERD
40
0.0
9
$SKPOLY
70
0
9
$TDUSRTIMER
40
0.0
9
$USRTIMER
70
1
9
$PLINEWID
40
0.0
9
$SPLFRAME
70
0
9
$SPLINETYPE
70
6
9
$SURFTAB1
70
6
9
$SURFTAB2
70
6
9
$SURFTYPE
70
6
9
$UCSBASE
2

9
$UCSNAME
2

9
$UCSORTHOREF
2

9
$UCSORTHOVIEW
70
0
9
$UCSORGTOP
10
0.0
20
0.0
30
0.0
9
$UCSORGBOTTOM
10
0.0
20
0.0
30
0.0
9
$UCSORGLEFT
10
0.0
20
0.0
30
0.0
9
$UCSORGRIGHT
10
0.0
20
0.0
30
0.0
9
$UCSORGFRONT
10
0.0
20
0.0
30
0.0
9
$UCSORGBACK
10
0.0
20
0.0
30
0.0
9
$PUCSBASE
2

9
$PUCSNAME
2

9
$PUCSORG
10
0.0
20
0.0
30
0.0
9
$PUCSXDIR
10
1.0
20
0.0
30
0.0
9
$PUCSYDIR
10
0.0
20
1.0
30
0.0
9
$PUCSORTHOREF
2

9
$PUCSORTHOVIEW
70
0
9
$PUCSORGTOP
10
0.0
20
0.0
30
0.0
9
$PUCSORGBOTTOM
10
0.0
20
0.0
30
0.0
9
$PUCSORGLEFT
10
0.0
20
0.0
30
0.0
9
$PUCSORGRIGHT
10
0.0
20
0.0
30
0.0
9
$PUCSORGFRONT
10
0.0
20
0.0
30
0.0
9
$PUCSORGBACK
10
0.0
20
0.0
30
0.0
9
$USERI1
70
0
9
$USERI2
70
0
9
$USERI3
70
0
9
$USERI4
70
0
9
$USERI5
70
0
9
$USERR1
40
0.0
9
$USERR2
40
0.0
9
$USERR3
40
0.0
9
$USERR4
40
0.0
9
$USERR5
40
0.0
9
$WORLDVIEW
70
1
9
$SHADEDGE
70
3
9
$SHADEDIF
70
70
9
$TILEMODE
70
1
9
$MAXACTVP
70
64
9
$PINSBASE
10
0.0
20
0.0
30
0.0
9
$PLIMCHECK
70
0
9
$PEXTMIN
10
0.0
20
0.0
30
0.0
9
$PEXTMAX
10
2648.50635229339
20
1400.0
30
0.0
9
$PLIMMIN
10
0.0
20
0.0
9
$PLIMMAX
10
2648.50635229339
20
1400.0
9
$UNITMODE
70
0
9
$VISRETAIN
70
1
9
$TREEDEPTH
70
3020
9
$PROXYGRAPHICS
70
1
9
$MEASUREMENT
70
1
9
$ENDCAPS
280
0
9
$JOINSTYLE
280
0
9
$HYPERLINKBASE
1

9
$STYLESHEET
1

9
$XEDIT
290
1
9
$CEPSNTYPE
380
0
9
$PSTYLEMODE
290
1
9
$FINGERPRINTGUID
2
{41579C69-05CC-AB45-82E2-4551BC42365C}
9
$VERSIONGUID
2
{40381BD9-3989-524A-A32F-6D46FB78F542}
9
$PSVPSCALE
40
0.0
9
$OLESTARTUP
290
0
0
ENDSEC
0
SECTION
2
CLASSES
0
CLASS
1
RASTERVARIABLES
2
AcDbRasterVariables
3
ISM
90
0
280
0
281
0
0
ENDSEC
0
SECTION
2
TABLES
0
TABLE
2
APPID
5
9
330
0
100
AcDbSymbolTable
70
7
0
APPID
5
56
330
9
100
AcDbSymbolTableRecord
100
AcDbRegAppTableRecord
2
ACAD
70
0
0
APPID
5
5E
330
9
100
AcDbSymbolTableRecord
100
AcDbRegAppTableRecord
2
AcadAnnotative
70
0
0
APPID
5
35F
330
9
100
AcDbSymbolTableRecord
100
AcDbRegAppTableRecord
2
ACAD_MLEADERVER
70
0
0
APPID
5
381
330
9
100
AcDbSymbolTableRecord
100
AcDbRegAppTableRecord
2
AcCmTransparency
70
0
0
APPID
5
382
330
9
100
AcDbSymbolTableRecord
100
AcDbRegAppTableRecord
2
AcAecLayerStandard
70
0
0
APPID
5
383
330
9
100
AcDbSymbolTableRecord
100
AcDbRegAppTableRecord
2
GradientColor1ACI
70
0
0
APPID
5
384
330
9
100
AcDbSymbolTableRecord
100
AcDbRegAppTableRecord
2
GradientColor2ACI
70
0
0
ENDTAB
0
TABLE
2
VPORT
5
8
330
0
100
AcDbSymbolTable
70
1
0
VPORT
5
370
330
8
100
AcDbSymbolTableRecord
100
AcDbViewportTableRecord
2
*Active
70
0
10
0.0
20
0.0
11
1.0
21
1.0
12
1324.25317634669
22
700.000000200001
13
0.0
23
0.0
14
0.5
24
0.5
15
10.0
25
10.0
16
0.0
26
0.0
36
1.0
17
0.0
27
0.0
37
0.0
40
2913.361
41
1.0
75
0
76
1
0
ENDTAB
0
TABLE
2
LTYPE
5
5
330
0
100
AcDbSymbolTable
70
48
0
LTYPE
5
5B
330
5
100
AcDbSymbolTableRecord
100
AcDbLinetypeTableRecord
2
ByBlock
70
0
3

72
65
73
0
40
0.0
0
LTYPE
5
5C
330
5
100
AcDbSymbolTableRecord
100
AcDbLinetypeTableRecord
2
ByLayer
70
0
3

72
65
73
0
40
0.0
0
LTYPE
5
5D
330
5
100
AcDbSymbolTableRecord
100
AcDbLinetypeTableRecord
2
Continuous
70
0
3
Solid line
72
65
73
0
40
0.0
0
LTYPE
5
78
330
5
100
AcDbSymbolTableRecord
100
AcDbLinetypeTableRecord
2
BORDER
70
0
3
Border __ __ . __ __ . __ __ . __ __ . __ __ .
72
65
73
6
40
1.75
49
0.5
74
0
49
-0.25
74
0
49
0.5
74
0
49
-0.25
74
0
49
0.0
74
0
49
-0.25
74
0
0
LTYPE
5
79
330
5
100
AcDbSymbolTableRecord
100
AcDbLinetypeTableRecord
2
BORDER2
70
0
3
Border (.5x) __.__.__.__.__.__.__.__.__.__.__.
72
65
73
6
40
0.875
49
0.25
74
0
49
-0.125
74
0
49
0.25
74
0
49
-0.125
74
0
49
0.0
74
0
49
-0.125
74
0
0
LTYPE
5
7A
330
5
100
AcDbSymbolTableRecord
100
AcDbLinetypeTableRecord
2
BORDERX2
70
0
3
Border (2x) ____  ____  .  ____  ____  .  ___
72
65
73
6
40
3.5
49
1.0
74
0
49
-0.5
74
0
49
1.0
74
0
49
-0.5
74
0
49
0.0
74
0
49
-0.5
74
0
0
LTYPE
5
7B
330
5
100
AcDbSymbolTableRecord
100
AcDbLinetypeTableRecord
2
CENTER
70
0
3
Center ____ _ ____ _ ____ _ ____ _ ____ _ ____
72
65
73
4
40
2.0
49
1.25
74
0
49
-0.25
74
0
49
0.25
74
0
49
-0.25
74
0
0
LTYPE
5
7C
330
5
100
AcDbSymbolTableRecord
100
AcDbLinetypeTableRecord
2
CENTER2
70
0
3
Center (.5x) ___ _ ___ _ ___ _ ___ _ ___ _ ___
72
65
73
4
40
1.125
49
0.75
74
0
49
-0.125
74
0
49
0.125
74
0
49
-0.125
74
0
0
LTYPE
5
7D
330
5
100
AcDbSymbolTableRecord
100
AcDbLinetypeTableRecord
2
CENTERX2
70
0
3
Center (2x) ________  __  ________  __  _____
72
65
73
4
40
4.0
49
2.5
74
0
49
-0.5
74
0
49
0.5
74
0
49
-0.5
74
0
0
LTYPE
5
7E
330
5
100
AcDbSymbolTableRecord
100
AcDbLinetypeTableRecord
2
DASHDOT
70
0
3
Dash dot __ . __ . __ . __ . __ . __ . __ . __
72
65
73
4
40
1.0
49
0.5
74
0
49
-0.25
74
0
49
0.0
74
0
49
-0.25
74
0
0
LTYPE
5
7F
330
5
100
AcDbSymbolTableRecord
100
AcDbLinetypeTableRecord
2
DASHDOT2
70
0
3
Dash dot (.5x) _._._._._._._._._._._._._._._.
72
65
73
4
40
0.5
49
0.25
74
0
49
-0.125
74
0
49
0.0
74
0
49
-0.125
74
0
0
LTYPE
5
80
330
5
100
AcDbSymbolTableRecord
100
AcDbLinetypeTableRecord
2
DASHDOTX2
70
0
3
Dash dot (2x) ____  .  ____  .  ____  .  ___
72
65
73
4
40
2.0
49
1.0
74
0
49
-0.5
74
0
49
0.0
74
0
49
-0.5
74
0
0
LTYPE
5
81
330
5
100
AcDbSymbolTableRecord
100
AcDbLinetypeTableRecord
2
DASHED
70
0
3
Dashed __ __ __ __ __ __ __ __ __ __ __ __ __ _
72
65
73
2
40
0.75
49
0.5
74
0
49
-0.25
74
0
0
LTYPE
5
82
330
5
100
AcDbSymbolTableRecord
100
AcDbLinetypeTableRecord
2
DASHED2
70
0
3
Dashed (.5x) _ _ _ _ _ _ _ _ _ _ _ _ _ _ _ _ _
72
65
73
2
40
0.375
49
0.25
74
0
49
-0.125
74
0
0
LTYPE
5
83
330
5
100
AcDbSymbolTableRecord
100
AcDbLinetypeTableRecord
2
DASHEDX2
70
0
3
Dashed (2x) ____  ____  ____  ____  ____  ___
72
65
73
2
40
1.5
49
1.0
74
0
49
-0.5
74
0
0
LTYPE
5
84
330
5
100
AcDbSymbolTableRecord
100
AcDbLinetypeTableRecord
2
DIVIDE
70
0
3
Divide ____ . . ____ . . ____ . . ____ . . ____
72
65
73
6
40
1.25
49
0.5
74
0
49
-0.25
74
0
49
0.0
74
0
49
-0.25
74
0
49
0.0
74
0
49
-0.25
74
0
0
LTYPE
5
85
330
5
100
AcDbSymbolTableRecord
100
AcDbLinetypeTableRecord
2
DIVIDE2
70
0
3
Divide (.5x) __..__..__..__..__..__..__..__.._
72
65
73
6
40
0.625
49
0.25
74
0
49
-0.125
74
0
49
0.0
74
0
49
-0.125
74
0
49
0.0
74
0
49
-0.125
74
0
0
LTYPE
5
86
330
5
100
AcDbSymbolTableRecord
100
AcDbLinetypeTableRecord
2
DIVIDEX2
70
0
3
Divide (2x) ________  .  .  ________  .  .  _
72
65
73
6
40
2.5
49
1.0
74
0
49
-0.5
74
0
49
0.0
74
0
49
-0.5
74
0
49
0.0
74
0
49
-0.5
74
0
0
LTYPE
5
87
330
5
100
AcDbSymbolTableRecord
100
AcDbLinetypeTableRecord
2
DOT
70
0
3
Dot . . . . . . . . . . . . . . . . . . . . . .
72
65
73
2
40
0.25
49
0.0
74
0
49
-0.25
74
0
0
LTYPE
5
88
330
5
100
AcDbSymbolTableRecord
100
AcDbLinetypeTableRecord
2
DOT2
70
0
3
Dot (.5x) .....................................
72
65
73
2
40
0.125
49
0.0
74
0
49
-0.125
74
0
0
LTYPE
5
89
330
5
100
AcDbSymbolTableRecord
100
AcDbLinetypeTableRecord
2
DOTX2
70
0
3
Dot (2x) .  .  .  .  .  .  .  .  .  .  .  .  . 
72
65
73
2
40
0.5
49
0.0
74
0
49
-0.5
74
0
0
LTYPE
5
8A
330
5
100
AcDbSymbolTableRecord
100
AcDbLinetypeTableRecord
2
HIDDEN
70
0
3
Hidden __ __ __ __ __ __ __ __ __ __ __ __ __ _
72
65
73
2
40
0.375
49
0.25
74
0
49
-0.125
74
0
0
LTYPE
5
8B
330
5
100
AcDbSymbolTableRecord
100
AcDbLinetypeTableRecord
2
HIDDEN2
70
0
3
Hidden (.5x) _ _ _ _ _ _ _ _ _ _ _ _ _ _ _ _ _
72
65
73
2
40
0.1875
49
0.125
74
0
49
-0.0625
74
0
0
LTYPE
5
8C
330
5
100
AcDbSymbolTableRecord
100
AcDbLinetypeTableRecord
2
HIDDENX2
70
0
3
Hidden (2x) ____ ____ ____ ____ ____ ____ ____
72
65
73
2
40
0.75
49
0.5
74
0
49
-0.25
74
0
0
LTYPE
5
8D
330
5
100
AcDbSymbolTableRecord
100
AcDbLinetypeTableRecord
2
PHANTOM
70
0
3
Phantom ______  __  __  ______  __  __  ______
72
65
73
6
40
2.5
49
1.25
74
0
49
-0.25
74
0
49
0.25
74
0
49
-0.25
74
0
49
0.25
74
0
49
-0.25
74
0
0
LTYPE
5
8E
330
5
100
AcDbSymbolTableRecord
100
AcDbLinetypeTableRecord
2
PHANTOM2
70
0
3
Phantom (.5x) ___ _ _ ___ _ _ ___ _ _ ___ _ _
72
65
73
6
40
1.25
49
0.625
74
0
49
-0.125
74
0
49
0.125
74
0
49
-0.125
74
0
49
0.125
74
0
49
-0.125
74
0
0
LTYPE
5
8F
330
5
100
AcDbSymbolTableRecord
100
AcDbLinetypeTableRecord
2
PHANTOMX2
70
0
3
Phantom (2x) ____________    ____    ____   _
72
65
73
6
40
5.0
49
2.5
74
0
49
-0.5
74
0
49
0.5
74
0
49
-0.5
74
0
49
0.5
74
0
49
-0.5
74
0
0
LTYPE
5
90
330
5
100
AcDbSymbolTableRecord
100
AcDbLinetypeTableRecord
2
ACAD_ISO02W100
70
0
3
ISO dash __ __ __ __ __ __ __ __ __ __ __ __ __
72
65
73
2
40
15.0
49
12.0
74
0
49
-3.0
74
0
0
LTYPE
5
91
330
5
100
AcDbSymbolTableRecord
100
AcDbLinetypeTableRecord
2
ACAD_ISO03W100
70
0
3
ISO dash space __    __    __    __    __    __
72
65
73
2
40
30.0
49
12.0
74
0
49
-18.0
74
0
0
LTYPE
5
92
330
5
100
AcDbSymbolTableRecord
100
AcDbLinetypeTableRecord
2
ACAD_ISO04W100
70
0
3
ISO long-dash dot ____ . ____ . ____ . ____ . _
72
65
73
4
40
30.0
49
24.0
74
0
49
-3.0
74
0
49
0.0
74
0
49
-3.0
74
0
0
LTYPE
5
93
330
5
100
AcDbSymbolTableRecord
100
AcDbLinetypeTableRecord
2
ACAD_ISO05W100
70
0
3
ISO long-dash double-dot ____ .. ____ .. ____ .
72
65
73
6
40
33.0
49
24.0
74
0
49
-3.0
74
0
49
0.0
74
0
49
-3.0
74
0
49
0.0
74
0
49
-3.0
74
0
0
LTYPE
5
94
330
5
100
AcDbSymbolTableRecord
100
AcDbLinetypeTableRecord
2
ACAD_ISO06W100
70
0
3
ISO long-dash triple-dot ____ ... ____ ... ____
72
65
73
8
40
36.0
49
24.0
74
0
49
-3.0
74
0
49
0.0
74
0
49
-3.0
74
0
49
0.0
74
0
49
-3.0
74
0
49
0.0
74
0
49
-3.0
74
0
0
LTYPE
5
95
330
5
100
AcDbSymbolTableRecord
100
AcDbLinetypeTableRecord
2
ACAD_ISO07W100
70
0
3
ISO dot . . . . . . . . . . . . . . . . . . . .
72
65
73
2
40
3.0
49
0.0
74
0
49
-3.0
74
0
0
LTYPE
5
96
330
5
100
AcDbSymbolTableRecord
100
AcDbLinetypeTableRecord
2
ACAD_ISO08W100
70
0
3
ISO long-dash short-dash ____ __ ____ __ ____ _
72
65
73
4
40
36.0
49
24.0
74
0
49
-3.0
74
0
49
6.0
74
0
49
-3.0
74
0
0
LTYPE
5
97
330
5
100
AcDbSymbolTableRecord
100
AcDbLinetypeTableRecord
2
ACAD_ISO09W100
70
0
3
ISO long-dash double-short-dash ____ __ __ ____
72
65
73
6
40
45.0
49
24.0
74
0
49
-3.0
74
0
49
6.0
74
0
49
-3.0
74
0
49
6.0
74
0
49
-3.0
74
0
0
LTYPE
5
98
330
5
100
AcDbSymbolTableRecord
100
AcDbLinetypeTableRecord
2
ACAD_ISO10W100
70
0
3
ISO dash dot __ . __ . __ . __ . __ . __ . __ .
72
65
73
4
40
18.0
49
12.0
74
0
49
-3.0
74
0
49
0.0
74
0
49
-3.0
74
0
0
LTYPE
5
99
330
5
100
AcDbSymbolTableRecord
100
AcDbLinetypeTableRecord
2
ACAD_ISO11W100
70
0
3
ISO double-dash dot __ __ . __ __ . __ __ . __ 
72
65
73
6
40
33.0
49
12.0
74
0
49
-3.0
74
0
49
12.0
74
0
49
-3.0
74
0
49
0.0
74
0
49
-3.0
74
0
0
LTYPE
5
9A
330
5
100
AcDbSymbolTableRecord
100
AcDbLinetypeTableRecord
2
ACAD_ISO12W100
70
0
3
ISO dash double-dot __ . . __ . . __ . . __ . .
72
65
73
6
40
21.0
49
12.0
74
0
49
-3.0
74
0
49
0.0
74
0
49
-3.0
74
0
49
0.0
74
0
49
-3.0
74
0
0
LTYPE
5
9B
330
5
100
AcDbSymbolTableRecord
100
AcDbLinetypeTableRecord
2
ACAD_ISO13W100
70
0
3
ISO double-dash double-dot __ __ . . __ __ . . 
72
65
73
8
40
36.0
49
12.0
74
0
49
-3.0
74
0
49
12.0
74
0
49
-3.0
74
0
49
0.0
74
0
49
-3.0
74
0
49
0.0
74
0
49
-3.0
74
0
0
LTYPE
5
9C
330
5
100
AcDbSymbolTableRecord
100
AcDbLinetypeTableRecord
2
ACAD_ISO14W100
70
0
3
ISO dash triple-dot __ . . . __ . . . __ . . . 
72
65
73
8
40
24.0
49
12.0
74
0
49
-3.0
74
0
49
0.0
74
0
49
-3.0
74
0
49
0.0
74
0
49
-3.0
74
0
49
0.0
74
0
49
-3.0
74
0
0
LTYPE
5
9D
330
5
100
AcDbSymbolTableRecord
100
AcDbLinetypeTableRecord
2
ACAD_ISO15W100
70
0
3
ISO double-dash triple-dot __ __ . . . __ __ . 
72
65
73
10
40
39.0
49
12.0
74
0
49
-3.0
74
0
49
12.0
74
0
49
-3.0
74
0
49
0.0
74
0
49
-3.0
74
0
49
0.0
74
0
49
-3.0
74
0
49
0.0
74
0
49
-3.0
74
0
0
LTYPE
5
A0
330
5
100
AcDbSymbolTableRecord
100
AcDbLinetypeTableRecord
2
FENCELINE1
70
0
3
Fenceline circle ----0-----0----0-----0----0---
72
65
73
3
40
1.35
49
0.25
74
0
49
-0.1
74
0
49
1.0
74
0
0
LTYPE
5
A1
330
5
100
AcDbSymbolTableRecord
100
AcDbLinetypeTableRecord
2
FENCELINE2
70
0
3
Fenceline square ----[]-----[]----[]-----[]----
72
65
73
3
40
1.35
49
0.25
74
0
49
-0.1
74
0
49
1.0
74
0
0
LTYPE
5
A2
330
5
100
AcDbSymbolTableRecord
100
AcDbLinetypeTableRecord
2
TRACKS
70
0
3
Tracks -|-|-|-|-|-|-|-|-|-|-|-|-|-|-|-|-|-|-|-|
72
65
73
1
40
0.15
49
0.15
74
0
0
LTYPE
5
A3
330
5
100
AcDbSymbolTableRecord
100
AcDbLinetypeTableRecord
2
BATTING
70
0
3
Batting SSSSSSSSSSSSSSSSSSSSSSSSSSSSSSSSSSSSSSS
72
65
73
2
40
0.1001
49
0.0001
74
0
49
-0.1
74
0
0
LTYPE
5
A4
330
5
100
AcDbSymbolTableRecord
100
AcDbLinetypeTableRecord
2
HOT_WATER_SUPPLY
70
0
3
Hot water supply ---- HW ---- HW ---- HW ----
72
65
73
3
40
0.9
49
0.5
74
0
49
-0.2
74
2
75
0
340
55
46
0.1
50
0.0
44
-0.1
45
-0.05
9
HW
49
-0.2
74
0
0
LTYPE
5
A5
330
5
100
AcDbSymbolTableRecord
100
AcDbLinetypeTableRecord
2
GAS_LINE
70
0
3
Gas line ----GAS----GAS----GAS----GAS----GAS---
72
65
73
3
40
0.95
49
0.5
74
0
49
-0.2
74
2
75
0
340
55
46
0.1
50
0.0
44
-0.1
45
-0.05
9
GAS
49
-0.25
74
0
0
LTYPE
5
A6
330
5
100
AcDbSymbolTableRecord
100
AcDbLinetypeTableRecord
2
ZIGZAG
70
0
3
Zig zag /\/\/\/\/\/\/\/\/\/\/\/\/\/\/\/\/\/\/\/
72
65
73
2
40
0.2001
49
0.0001
74
0
49
-0.2
74
0
0
ENDTAB
0
TABLE
2
LAYER
5
2
102
{ACAD_XDICTIONARY
360
371
102
}
330
0
100
AcDbSymbolTable
70
7
0
LAYER
5
54
330
2
100
AcDbSymbolTableRecord
100
AcDbLayerTableRecord
2
0
70
0
62
7
6
Continuous
290
1
370
-3
390
0
0
LAYER
5
30A
330
2
100
AcDbSymbolTableRecord
100
AcDbLayerTableRecord
2
IV_OUTER_PROFILE
70
0
62
7
6
Continuous
290
1
370
50
390
0
0
LAYER
5
311
330
2
100
AcDbSymbolTableRecord
100
AcDbLayerTableRecord
2
IV_INTERIOR_PROFILES
70
0
62
7
6
Continuous
290
1
370
50
390
0
0
LAYER
5
37B
330
2
100
AcDbSymbolTableRecord
100
AcDbLayerTableRecord
2
AutoDXF_Text
70
0
62
-2
6
Continuous
290
1
370
-3
390
0
0
LAYER
5
37D
330
2
100
AcDbSymbolTableRecord
100
AcDbLayerTableRecord
2
AutoDXF_BendInfo
70
0
62
-3
6
Continuous
290
1
370
-3
390
0
0
LAYER
5
37E
330
2
100
AcDbSymbolTableRecord
100
AcDbLayerTableRecord
2
IV_BEND
70
0
62
250
6
Continuous
290
1
370
50
390
0
0
LAYER
5
37F
330
2
100
AcDbSymbolTableRecord
100
AcDbLayerTableRecord
2
IV_BEND_DOWN
70
0
62
250
6
Continuous
290
1
370
50
390
0
0
ENDTAB
0
TABLE
2
STYLE
5
3
330
0
100
AcDbSymbolTable
70
2
0
STYLE
5
55
330
3
100
AcDbSymbolTableRecord
100
AcDbTextStyleTableRecord
2
Standard
3
txt.SHX
70
0
71
0
40
0.0
41
1.0
42
0.0
50
0.0
0
STYLE
5
5A
330
3
100
AcDbSymbolTableRecord
100
AcDbTextStyleTableRecord
2
Annotative
3
txt.SHX
70
0
71
0
40
0.0
41
1.0
42
0.0
50
0.0
1001
AcadAnnotative
1000
AnnotativeData
1002
{
1070
1
1070
1
1002
}
0
STYLE
5
9F
330
372
100
AcDbSymbolTableRecord
100
AcDbTextStyleTableRecord
2

3
ltypeshp.shx
70
1
40
0.0
41
1.0
42
0.0
50
0.0
0
ENDTAB
0
TABLE
2
DIMSTYLE
5
A
330
0
100
AcDbSymbolTable
70
2
100
AcDbDimStyleTable
0
DIMSTYLE
105
58
330
A
100
AcDbSymbolTableRecord
100
AcDbDimStyleTableRecord
2
Standard
3

4

40
1.0
41
0.18
42
0.0625
43
0.38
44
0.18
45
0.0
46
0.0
47
0.0
48
0.0
49
1.0
70
0
71
0
72
0
73
0
74
0
75
0
76
0
77
0
78
0
79
3
140
0.18
141
0.09
143
25.4
144
1.0
146
1.0
147
0.09
148
0.0
170
0
171
2
172
0
174
0
175
0
176
0
177
0
178
0
179
0
271
4
272
4
273
2
274
2
275
0
276
0
277
2
278
46
279
0
280
0
281
0
282
0
283
1
284
0
285
0
286
0
289
3
290
0
294
0
340
55
173
0
345
5B
346
5B
347
5B
371
-2
372
-2
0
DIMSTYLE
105
59
330
A
100
AcDbSymbolTableRecord
100
AcDbDimStyleTableRecord
2
Annotative
3

4

40
1.0
41
0.18
42
0.0625
43
0.38
44
0.18
45
0.0
46
0.0
47
0.0
48
0.0
49
1.0
70
0
71
0
72
0
73
0
74
0
75
0
76
0
77
0
78
0
79
3
140
0.18
141
0.09
143
25.4
144
1.0
146
1.0
147
0.09
148
0.0
170
0
171
2
172
0
174
0
175
0
176
0
177
0
178
0
179
0
271
4
272
4
273
2
274
2
275
0
276
0
277
2
278
46
279
0
280
0
281
0
282
0
283
1
284
0
285
0
286
0
289
3
290
0
294
0
340
55
173
0
345
5B
346
5B
347
5B
371
-2
372
-2
1001
AcadAnnotative
1000
AnnotativeData
1002
{
1070
1
1070
1
1002
}
0
ENDTAB
0
TABLE
2
VIEW
5
6
330
0
100
AcDbSymbolTable
70
0
0
ENDTAB
0
TABLE
2
UCS
5
7
330
0
100
AcDbSymbolTable
70
0
0
ENDTAB
0
TABLE
2
BLOCK_RECORD
5
1
330
0
100
AcDbSymbolTable
70
3
0
BLOCK_RECORD
5
70
330
1
100
AcDbSymbolTableRecord
100
AcDbBlockTableRecord
2
*Model_Space
340
73
0
BLOCK_RECORD
5
6C
330
1
100
AcDbSymbolTableRecord
100
AcDbBlockTableRecord
2
*Paper_Space
340
6F
0
BLOCK_RECORD
5
74
330
1
100
AcDbSymbolTableRecord
100
AcDbBlockTableRecord
2
*Paper_Space0
340
77
0
ENDTAB
0
ENDSEC
0
SECTION
2
BLOCKS
0
BLOCK
5
71
330
70
100
AcDbEntity
67
0
8
0
100
AcDbBlockBegin
2
*Model_Space
70
0
10
0.0
20
0.0
30
0.0
3
*Model_Space
4

0
ENDBLK
5
72
330
70
100
AcDbEntity
8
0
100
AcDbBlockEnd
0
BLOCK
5
6D
330
6C
100
AcDbEntity
67
1
8
0
100
AcDbBlockBegin
2
*Paper_Space
70
0
10
0.0
20
0.0
30
0.0
3
*Paper_Space
4

0
ENDBLK
5
6E
330
6C
100
AcDbEntity
8
0
100
AcDbBlockEnd
0
BLOCK
5
75
330
74
100
AcDbEntity
67
1
8
0
100
AcDbBlockBegin
2
*Paper_Space0
70
0
10
0.0
20
0.0
30
0.0
3
*Paper_Space0
4

0
VIEWPORT
5
379
330
74
100
AcDbEntity
67
1
8
0
62
256
6
ByLayer
370
-1
48
1.0
60
0
100
AcDbViewport
10
0.0
20
0.0
30
0.0
40
297.0
41
210.0
68
1
69
1
12
50.0
22
100.0
13
0.0
23
0.0
14
10.0
24
10.0
15
10.0
25
10.0
16
0.0
26
0.0
36
1.0
17
0.0
27
0.0
37
0.0
42
50.0
43
0.0
44
0.0
45
250.0
50
0.0
51
0.0
72
1000
90
819232
110
0.0
120
0.0
130
0.0
111
1.0
121
0.0
131
0.0
112
0.0
122
1.0
132
0.0
0
ENDBLK
5
76
330
74
100
AcDbEntity
8
0
100
AcDbBlockEnd
0
ENDSEC
0
SECTION
2
ENTITIES
0
VIEWPORT
5
378
330
6C
100
AcDbEntity
67
1
8
0
62
256
6
ByLayer
370
-1
48
1.0
60
0
100
AcDbViewport
10
0.0
20
0.0
30
0.0
40
297.0
41
210.0
68
1
69
1
12
50.0
22
100.0
13
0.0
23
0.0
14
10.0
24
10.0
15
10.0
25
10.0
16
0.0
26
0.0
36
1.0
17
0.0
27
0.0
37
0.0
42
50.0
43
0.0
44
0.0
45
250.0
50
0.0
51
0.0
72
1000
90
819232
110
0.0
120
0.0
130
0.0
111
1.0
121
0.0
131
0.0
112
0.0
122
1.0
132
0.0
0
LINE
5
A8
330
70
100
AcDbEntity
67
0
8
IV_BEND_DOWN
62
256
6
ByLayer
370
-1
48
1.0
60
0
100
AcDbLine
10
1324.25317634669
20
0.0000002000004429
30
0.0
11
1324.25317634669
21
1400.0000002
31
0.0
39
0.0
210
0.0
220
0.0
230
1.0
0
LINE
5
AA
330
70
100
AcDbEntity
67
0
8
0
62
256
6
ByLayer
370
-1
48
1.0
60
0
100
AcDbLine
10
715.151463906713
20
408.5000002
30
0.0
11
715.125387331809
21
405.221600364561
31
0.0
39
0.0
210
0.0
220
0.0
230
1.0
0
LINE
5
AB
330
70
100
AcDbEntity
67
0
8
0
62
256
6
ByLayer
370
-1
48
1.0
60
0
100
AcDbLine
10
715.125387331809
20
405.221600364561
30
0.0
11
715.047180862426
21
401.936432389824
31
0.0
39
0.0
210
0.0
220
0.0
230
1.0
0
LINE
5
AC
330
70
100
AcDbEntity
67
0
8
0
62
256
6
ByLayer
370
-1
48
1.0
60
0
100
AcDbLine
10
715.047180862426
20
401.936432389824
30
0.0
11
714.916879381553
21
398.645427677815
31
0.0
39
0.0
210
0.0
220
0.0
230
1.0
0
LINE
5
AD
330
70
100
AcDbEntity
67
0
8
0
62
256
6
ByLayer
370
-1
48
1.0
60
0
100
AcDbLine
10
714.916879381553
20
398.645427677815
30
0.0
11
714.734517772183
21
395.349517630561
31
0.0
39
0.0
210
0.0
220
0.0
230
1.0
0
LINE
5
AE
330
70
100
AcDbEntity
67
0
8
0
62
256
6
ByLayer
370
-1
48
1.0
60
0
100
AcDbLine
10
714.734517772183
20
395.349517630561
30
0.0
11
714.500130917308
21
392.049633650087
31
0.0
39
0.0
210
0.0
220
0.0
230
1.0
0
LINE
5
AF
330
70
100
AcDbEntity
67
0
8
0
62
256
6
ByLayer
370
-1
48
1.0
60
0
100
AcDbLine
10
714.500130917308
20
392.049633650087
30
0.0
11
714.213753699917
21
388.746707138419
31
0.0
39
0.0
210
0.0
220
0.0
230
1.0
0
LINE
5
B0
330
70
100
AcDbEntity
67
0
8
0
62
256
6
ByLayer
370
-1
48
1.0
60
0
100
AcDbLine
10
714.213753699917
20
388.746707138419
30
0.0
11
713.875421003002
21
385.441669497583
31
0.0
39
0.0
210
0.0
220
0.0
230
1.0
0
LINE
5
B1
330
70
100
AcDbEntity
67
0
8
0
62
256
6
ByLayer
370
-1
48
1.0
60
0
100
AcDbLine
10
713.875421003002
20
385.441669497583
30
0.0
11
713.485167709555
21
382.135452129606
31
0.0
39
0.0
210
0.0
220
0.0
230
1.0
0
LINE
5
B2
330
70
100
AcDbEntity
67
0
8
0
62
256
6
ByLayer
370
-1
48
1.0
60
0
100
AcDbLine
10
713.485167709555
20
382.135452129606
30
0.0
11
713.043028702566
21
378.828986436514
31
0.0
39
0.0
210
0.0
220
0.0
230
1.0
0
LINE
5
B3
330
70
100
AcDbEntity
67
0
8
0
62
256
6
ByLayer
370
-1
48
1.0
60
0
100
AcDbLine
10
713.043028702566
20
378.828986436514
30
0.0
11
712.549038865027
21
375.523203820332
31
0.0
39
0.0
210
0.0
220
0.0
230
1.0
0
LINE
5
B4
330
70
100
AcDbEntity
67
0
8
0
62
256
6
ByLayer
370
-1
48
1.0
60
0
100
AcDbLine
10
712.549038865027
20
375.523203820332
30
0.0
11
712.003233079929
21
372.219035683086
31
0.0
39
0.0
210
0.0
220
0.0
230
1.0
0
LINE
5
B5
330
70
100
AcDbEntity
67
0
8
0
62
256
6
ByLayer
370
-1
48
1.0
60
0
100
AcDbLine
10
712.003233079929
20
372.219035683086
30
0.0
11
711.405646230263
21
368.917413426803
31
0.0
39
0.0
210
0.0
220
0.0
230
1.0
0
LINE
5
B6
330
70
100
AcDbEntity
67
0
8
0
62
256
6
ByLayer
370
-1
48
1.0
60
0
100
AcDbLine
10
711.405646230263
20
368.917413426803
30
0.0
11
710.756313199021
21
365.619268453509
31
0.0
39
0.0
210
0.0
220
0.0
230
1.0
0
LINE
5
B7
330
70
100
AcDbEntity
67
0
8
0
62
256
6
ByLayer
370
-1
48
1.0
60
0
100
AcDbLine
10
710.756313199021
20
365.619268453509
30
0.0
11
710.055268869193
21
362.325532165229
31
0.0
39
0.0
210
0.0
220
0.0
230
1.0
0
LINE
5
B8
330
70
100
AcDbEntity
67
0
8
0
62
256
6
ByLayer
370
-1
48
1.0
60
0
100
AcDbLine
10
710.055268869193
20
362.325532165229
30
0.0
11
709.302548123772
21
359.03713596399
31
0.0
39
0.0
210
0.0
220
0.0
230
1.0
0
LINE
5
B9
330
70
100
AcDbEntity
67
0
8
0
62
256
6
ByLayer
370
-1
48
1.0
60
0
100
AcDbLine
10
709.302548123772
20
359.03713596399
30
0.0
11
708.498186026747
21
355.755011387521
31
0.0
39
0.0
210
0.0
220
0.0
230
1.0
0
LINE
5
BA
330
70
100
AcDbEntity
67
0
8
0
62
256
6
ByLayer
370
-1
48
1.0
60
0
100
AcDbLine
10
708.498186026747
20
355.755011387521
30
0.0
11
707.64245967847
21
352.480150873234
31
0.0
39
0.0
210
0.0
220
0.0
230
1.0
0
LINE
5
BB
330
70
100
AcDbEntity
67
0
8
0
62
256
6
ByLayer
370
-1
48
1.0
60
0
100
AcDbLine
10
707.64245967847
20
352.480150873234
30
0.0
11
706.736041503456
21
349.213396484506
31
0.0
39
0.0
210
0.0
220
0.0
230
1.0
0
LINE
5
BC
330
70
100
AcDbEntity
67
0
8
0
62
256
6
ByLayer
370
-1
48
1.0
60
0
100
AcDbLine
10
706.736041503456
20
349.213396484506
30
0.0
11
705.779587166541
21
345.955474402813
31
0.0
39
0.0
210
0.0
220
0.0
230
1.0
0
LINE
5
BD
330
70
100
AcDbEntity
67
0
8
0
62
256
6
ByLayer
370
-1
48
1.0
60
0
100
AcDbLine
10
705.779587166541
20
345.955474402813
30
0.0
11
704.773752332555
21
342.707110809633
31
0.0
39
0.0
210
0.0
220
0.0
230
1.0
0
LINE
5
BE
330
70
100
AcDbEntity
67
0
8
0
62
256
6
ByLayer
370
-1
48
1.0
60
0
100
AcDbLine
10
704.773752332555
20
342.707110809633
30
0.0
11
703.719192666334
21
339.469031886442
31
0.0
39
0.0
210
0.0
220
0.0
230
1.0
0
LINE
5
BF
330
70
100
AcDbEntity
67
0
8
0
62
256
6
ByLayer
370
-1
48
1.0
60
0
100
AcDbLine
10
703.719192666334
20
339.469031886442
30
0.0
11
702.61656383271
21
336.241963814717
31
0.0
39
0.0
210
0.0
220
0.0
230
1.0
0
LINE
5
C0
330
70
100
AcDbEntity
67
0
8
0
62
256
6
ByLayer
370
-1
48
1.0
60
0
100
AcDbLine
10
702.61656383271
20
336.241963814717
30
0.0
11
701.466521496517
21
333.026632775936
31
0.0
39
0.0
210
0.0
220
0.0
230
1.0
0
LINE
5
C1
330
70
100
AcDbEntity
67
0
8
0
62
256
6
ByLayer
370
-1
48
1.0
60
0
100
AcDbLine
10
701.466521496517
20
333.026632775936
30
0.0
11
700.269721322589
21
329.823764951575
31
0.0
39
0.0
210
0.0
220
0.0
230
1.0
0
LINE
5
C2
330
70
100
AcDbEntity
67
0
8
0
62
256
6
ByLayer
370
-1
48
1.0
60
0
100
AcDbLine
10
700.269721322589
20
329.823764951575
30
0.0
11
699.02681897576
21
326.63408652311
31
0.0
39
0.0
210
0.0
220
0.0
230
1.0
0
LINE
5
C3
330
70
100
AcDbEntity
67
0
8
0
62
256
6
ByLayer
370
-1
48
1.0
60
0
100
AcDbLine
10
699.02681897576
20
326.63408652311
30
0.0
11
697.738470120862
21
323.45832367202
31
0.0
39
0.0
210
0.0
220
0.0
230
1.0
0
LINE
5
C4
330
70
100
AcDbEntity
67
0
8
0
62
256
6
ByLayer
370
-1
48
1.0
60
0
100
AcDbLine
10
697.738470120862
20
323.45832367202
30
0.0
11
696.405330422729
21
320.297202579781
31
0.0
39
0.0
210
0.0
220
0.0
230
1.0
0
LINE
5
C5
330
70
100
AcDbEntity
67
0
8
0
62
256
6
ByLayer
370
-1
48
1.0
60
0
100
AcDbLine
10
696.405330422729
20
320.297202579781
30
0.0
11
695.028055546195
21
317.15144942787
31
0.0
39
0.0
210
0.0
220
0.0
230
1.0
0
LINE
5
C6
330
70
100
AcDbEntity
67
0
8
0
62
256
6
ByLayer
370
-1
48
1.0
60
0
100
AcDbLine
10
695.028055546195
20
317.15144942787
30
0.0
11
693.607301156093
21
314.021790397764
31
0.0
39
0.0
210
0.0
220
0.0
230
1.0
0
LINE
5
C7
330
70
100
AcDbEntity
67
0
8
0
62
256
6
ByLayer
370
-1
48
1.0
60
0
100
AcDbLine
10
693.607301156093
20
314.021790397764
30
0.0
11
692.143722917257
21
310.908951670939
31
0.0
39
0.0
210
0.0
220
0.0
230
1.0
0
LINE
5
C8
330
70
100
AcDbEntity
67
0
8
0
62
256
6
ByLayer
370
-1
48
1.0
60
0
100
AcDbLine
10
692.143722917257
20
310.908951670939
30
0.0
11
690.63797649452
21
307.813659428874
31
0.0
39
0.0
210
0.0
220
0.0
230
1.0
0
LINE
5
C9
330
70
100
AcDbEntity
67
0
8
0
62
256
6
ByLayer
370
-1
48
1.0
60
0
100
AcDbLine
10
690.63797649452
20
307.813659428874
30
0.0
11
689.090717552715
21
304.736639853044
31
0.0
39
0.0
210
0.0
220
0.0
230
1.0
0
LINE
5
CA
330
70
100
AcDbEntity
67
0
8
0
62
256
6
ByLayer
370
-1
48
1.0
60
0
100
AcDbLine
10
689.090717552715
20
304.736639853044
30
0.0
11
687.502601756677
21
301.678619124926
31
0.0
39
0.0
210
0.0
220
0.0
230
1.0
0
LINE
5
CB
330
70
100
AcDbEntity
67
0
8
0
62
256
6
ByLayer
370
-1
48
1.0
60
0
100
AcDbLine
10
687.502601756677
20
301.678619124926
30
0.0
11
685.874284771239
21
298.640323425999
31
0.0
39
0.0
210
0.0
220
0.0
230
1.0
0
LINE
5
CC
330
70
100
AcDbEntity
67
0
8
0
62
256
6
ByLayer
370
-1
48
1.0
60
0
100
AcDbLine
10
685.874284771239
20
298.640323425999
30
0.0
11
684.206437999896
21
295.622434116616
31
0.0
39
0.0
210
0.0
220
0.0
230
1.0
0
LINE
5
CD
330
70
100
AcDbEntity
67
0
8
0
62
256
6
ByLayer
370
-1
48
1.0
60
0
100
AcDbLine
10
684.206437999896
20
295.622434116616
30
0.0
11
682.499952293777
21
292.625170670859
31
0.0
39
0.0
210
0.0
220
0.0
230
1.0
0
LINE
5
CE
330
70
100
AcDbEntity
67
0
8
0
62
256
6
ByLayer
370
-1
48
1.0
60
0
100
AcDbLine
10
682.499952293777
20
292.625170670859
30
0.0
11
680.755748201224
21
289.64898495572
31
0.0
39
0.0
210
0.0
220
0.0
230
1.0
0
LINE
5
CF
330
70
100
AcDbEntity
67
0
8
0
62
256
6
ByLayer
370
-1
48
1.0
60
0
100
AcDbLine
10
680.755748201224
20
289.64898495572
30
0.0
11
678.974720081429
21
286.694436125114
31
0.0
39
0.0
210
0.0
220
0.0
230
1.0
0
LINE
5
D0
330
70
100
AcDbEntity
67
0
8
0
62
256
6
ByLayer
370
-1
48
1.0
60
0
100
AcDbLine
10
678.974720081429
20
286.694436125114
30
0.0
11
677.157762293589
21
283.762083332954
31
0.0
39
0.0
210
0.0
220
0.0
230
1.0
0
LINE
5
D1
330
70
100
AcDbEntity
67
0
8
0
62
256
6
ByLayer
370
-1
48
1.0
60
0
100
AcDbLine
10
677.157762293589
20
283.762083332954
30
0.0
11
675.305769196898
21
280.852485733156
31
0.0
39
0.0
210
0.0
220
0.0
230
1.0
0
LINE
5
D2
330
70
100
AcDbEntity
67
0
8
0
62
256
6
ByLayer
370
-1
48
1.0
60
0
100
AcDbLine
10
675.305769196898
20
280.852485733156
30
0.0
11
673.419635150552
21
277.966202479632
31
0.0
39
0.0
210
0.0
220
0.0
230
1.0
0
LINE
5
D3
330
70
100
AcDbEntity
67
0
8
0
62
256
6
ByLayer
370
-1
48
1.0
60
0
100
AcDbLine
10
673.419635150552
20
277.966202479632
30
0.0
11
671.500254513744
21
275.103792726297
31
0.0
39
0.0
210
0.0
220
0.0
230
1.0
0
LINE
5
D4
330
70
100
AcDbEntity
67
0
8
0
62
256
6
ByLayer
370
-1
48
1.0
60
0
100
AcDbLine
10
671.500254513744
20
275.103792726297
30
0.0
11
669.54852164567
21
272.265815627065
31
0.0
39
0.0
210
0.0
220
0.0
230
1.0
0
LINE
5
D5
330
70
100
AcDbEntity
67
0
8
0
62
256
6
ByLayer
370
-1
48
1.0
60
0
100
AcDbLine
10
669.54852164567
20
272.265815627065
30
0.0
11
667.565330905524
21
269.452830335849
31
0.0
39
0.0
210
0.0
220
0.0
230
1.0
0
LINE
5
D6
330
70
100
AcDbEntity
67
0
8
0
62
256
6
ByLayer
370
-1
48
1.0
60
0
100
AcDbLine
10
667.565330905524
20
269.452830335849
30
0.0
11
665.551576652502
21
266.665396006564
31
0.0
39
0.0
210
0.0
220
0.0
230
1.0
0
LINE
5
D7
330
70
100
AcDbEntity
67
0
8
0
62
256
6
ByLayer
370
-1
48
1.0
60
0
100
AcDbLine
10
665.551576652502
20
266.665396006564
30
0.0
11
663.508153245799
21
263.904071793123
31
0.0
39
0.0
210
0.0
220
0.0
230
1.0
0
LINE
5
D8
330
70
100
AcDbEntity
67
0
8
0
62
256
6
ByLayer
370
-1
48
1.0
60
0
100
AcDbLine
10
663.508153245799
20
263.904071793123
30
0.0
11
661.435955044609
21
261.169416849441
31
0.0
39
0.0
210
0.0
220
0.0
230
1.0
0
LINE
5
D9
330
70
100
AcDbEntity
67
0
8
0
62
256
6
ByLayer
370
-1
48
1.0
60
0
100
AcDbLine
10
661.435955044609
20
261.169416849441
30
0.0
11
659.335876408127
21
258.461990329432
31
0.0
39
0.0
210
0.0
220
0.0
230
1.0
0
LINE
5
DA
330
70
100
AcDbEntity
67
0
8
0
62
256
6
ByLayer
370
-1
48
1.0
60
0
100
AcDbLine
10
659.335876408127
20
258.461990329432
30
0.0
11
657.208811695548
21
255.782351387009
31
0.0
39
0.0
210
0.0
220
0.0
230
1.0
0
LINE
5
DB
330
70
100
AcDbEntity
67
0
8
0
62
256
6
ByLayer
370
-1
48
1.0
60
0
100
AcDbLine
10
657.208811695548
20
255.782351387009
30
0.0
11
655.055665015548
21
253.131043814743
31
0.0
39
0.0
210
0.0
220
0.0
230
1.0
0
LINE
5
DC
330
70
100
AcDbEntity
67
0
8
0
62
256
6
ByLayer
370
-1
48
1.0
60
0
100
AcDbLine
10
655.055665015548
20
253.131043814743
30
0.0
11
652.877434794315
21
250.508478087673
31
0.0
39
0.0
210
0.0
220
0.0
230
1.0
0
LINE
5
DD
330
70
100
AcDbEntity
67
0
8
0
62
256
6
ByLayer
370
-1
48
1.0
60
0
100
AcDbLine
10
652.877434794315
20
250.508478087673
30
0.0
11
650.675124606405
21
247.915082070818
31
0.0
39
0.0
210
0.0
220
0.0
230
1.0
0
LINE
5
DE
330
70
100
AcDbEntity
67
0
8
0
62
256
6
ByLayer
370
-1
48
1.0
60
0
100
AcDbLine
10
650.675124606405
20
247.915082070818
30
0.0
11
648.449729781553
21
245.351298677663
31
0.0
39
0.0
210
0.0
220
0.0
230
1.0
0
LINE
5
DF
330
70
100
AcDbEntity
67
0
8
0
62
256
6
ByLayer
370
-1
48
1.0
60
0
100
AcDbLine
10
648.449729781553
20
245.351298677663
30
0.0
11
646.202245649497
21
242.817570821694
31
0.0
39
0.0
210
0.0
220
0.0
230
1.0
0
LINE
5
E0
330
70
100
AcDbEntity
67
0
8
0
62
256
6
ByLayer
370
-1
48
1.0
60
0
100
AcDbLine
10
646.202245649497
20
242.817570821694
30
0.0
11
643.933667539974
21
240.314341416396
31
0.0
39
0.0
210
0.0
220
0.0
230
1.0
0
LINE
5
E1
330
70
100
AcDbEntity
67
0
8
0
62
256
6
ByLayer
370
-1
48
1.0
60
0
100
AcDbLine
10
643.933667539974
20
240.314341416396
30
0.0
11
641.644990782722
21
237.842053375253
31
0.0
39
0.0
210
0.0
220
0.0
230
1.0
0
LINE
5
E2
330
70
100
AcDbEntity
67
0
8
0
62
256
6
ByLayer
370
-1
48
1.0
60
0
100
AcDbLine
10
641.644990782722
20
237.842053375253
30
0.0
11
639.337210707477
21
235.401149611752
31
0.0
39
0.0
210
0.0
220
0.0
230
1.0
0
LINE
5
E3
330
70
100
AcDbEntity
67
0
8
0
62
256
6
ByLayer
370
-1
48
1.0
60
0
100
AcDbLine
10
639.337210707477
20
235.401149611752
30
0.0
11
637.011322643978
21
232.992073039376
31
0.0
39
0.0
210
0.0
220
0.0
230
1.0
0
LINE
5
E4
330
70
100
AcDbEntity
67
0
8
0
62
256
6
ByLayer
370
-1
48
1.0
60
0
100
AcDbLine
10
637.011322643978
20
232.992073039376
30
0.0
11
634.66832192196
21
230.615266571611
31
0.0
39
0.0
210
0.0
220
0.0
230
1.0
0
LINE
5
E5
330
70
100
AcDbEntity
67
0
8
0
62
256
6
ByLayer
370
-1
48
1.0
60
0
100
AcDbLine
10
634.66832192196
20
230.615266571611
30
0.0
11
632.309228514562
21
228.271140890312
31
0.0
39
0.0
210
0.0
220
0.0
230
1.0
0
LINE
5
E6
330
70
100
AcDbEntity
67
0
8
0
62
256
6
ByLayer
370
-1
48
1.0
60
0
100
AcDbLine
10
632.309228514562
20
228.271140890312
30
0.0
11
629.935113741109
21
225.960039615758
31
0.0
39
0.0
210
0.0
220
0.0
230
1.0
0
LINE
5
E7
330
70
100
AcDbEntity
67
0
8
0
62
256
6
ByLayer
370
-1
48
1.0
60
0
100
AcDbLine
10
629.935113741109
20
225.960039615758
30
0.0
11
627.547038403906
21
223.682320187979
31
0.0
39
0.0
210
0.0
220
0.0
230
1.0
0
LINE
5
E8
330
70
100
AcDbEntity
67
0
8
0
62
256
6
ByLayer
370
-1
48
1.0
60
0
100
AcDbLine
10
627.547038403906
20
223.682320187979
30
0.0
11
625.146063063167
21
221.43834036395
31
0.0
39
0.0
210
0.0
220
0.0
230
1.0
0
LINE
5
E9
330
70
100
AcDbEntity
67
0
8
0
62
256
6
ByLayer
370
-1
48
1.0
60
0
100
AcDbLine
10
625.146063063167
20
221.43834036395
30
0.0
11
622.73324827911
21
219.228457900648
31
0.0
39
0.0
210
0.0
220
0.0
230
1.0
0
LINE
5
EA
330
70
100
AcDbEntity
67
0
8
0
62
256
6
ByLayer
370
-1
48
1.0
60
0
100
AcDbLine
10
622.73324827911
20
219.228457900648
30
0.0
11
620.302351116965
21
217.046509514994
31
0.0
39
0.0
210
0.0
220
0.0
230
1.0
0
LINE
5
EB
330
70
100
AcDbEntity
67
0
8
0
62
256
6
ByLayer
370
-1
48
1.0
60
0
100
AcDbLine
10
620.302351116965
20
217.046509514994
30
0.0
11
617.84051251061
21
214.881042746253
31
0.0
39
0.0
210
0.0
220
0.0
230
1.0
0
LINE
5
EC
330
70
100
AcDbEntity
67
0
8
0
62
256
6
ByLayer
370
-1
48
1.0
60
0
100
AcDbLine
10
617.84051251061
20
214.881042746253
30
0.0
11
615.347325424028
21
212.732198571971
31
0.0
39
0.0
210
0.0
220
0.0
230
1.0
0
LINE
5
ED
330
70
100
AcDbEntity
67
0
8
0
62
256
6
ByLayer
370
-1
48
1.0
60
0
100
AcDbLine
10
615.347325424028
20
212.732198571971
30
0.0
11
612.822652385007
21
210.600363486321
31
0.0
39
0.0
210
0.0
220
0.0
230
1.0
0
LINE
5
EE
330
70
100
AcDbEntity
67
0
8
0
62
256
6
ByLayer
370
-1
48
1.0
60
0
100
AcDbLine
10
612.822652385007
20
210.600363486321
30
0.0
11
610.266395140954
21
208.485986928378
31
0.0
39
0.0
210
0.0
220
0.0
230
1.0
0
LINE
5
EF
330
70
100
AcDbEntity
67
0
8
0
62
256
6
ByLayer
370
-1
48
1.0
60
0
100
AcDbLine
10
610.266395140954
20
208.485986928378
30
0.0
11
607.679288059587
21
206.390627858859
31
0.0
39
0.0
210
0.0
220
0.0
230
1.0
0
LINE
5
F0
330
70
100
AcDbEntity
67
0
8
0
62
256
6
ByLayer
370
-1
48
1.0
60
0
100
AcDbLine
10
607.679288059587
20
206.390627858859
30
0.0
11
605.062120100671
21
204.315409423028
31
0.0
39
0.0
210
0.0
220
0.0
230
1.0
0
LINE
5
F1
330
70
100
AcDbEntity
67
0
8
0
62
256
6
ByLayer
370
-1
48
1.0
60
0
100
AcDbLine
10
605.062120100671
20
204.315409423028
30
0.0
11
602.415505575194
21
202.261105382631
31
0.0
39
0.0
210
0.0
220
0.0
230
1.0
0
LINE
5
F2
330
70
100
AcDbEntity
67
0
8
0
62
256
6
ByLayer
370
-1
48
1.0
60
0
100
AcDbLine
10
602.415505575194
20
202.261105382631
30
0.0
11
599.740058794143
21
200.228489499416
31
0.0
39
0.0
210
0.0
220
0.0
230
1.0
0
LINE
5
F3
330
70
100
AcDbEntity
67
0
8
0
62
256
6
ByLayer
370
-1
48
1.0
60
0
100
AcDbLine
10
599.740058794143
20
200.228489499416
30
0.0
11
597.036394068507
21
198.218335535129
31
0.0
39
0.0
210
0.0
220
0.0
230
1.0
0
LINE
5
F4
330
70
100
AcDbEntity
67
0
8
0
62
256
6
ByLayer
370
-1
48
1.0
60
0
100
AcDbLine
10
597.036394068507
20
198.218335535129
30
0.0
11
594.30512570927
21
196.231417251519
31
0.0
39
0.0
210
0.0
220
0.0
230
1.0
0
LINE
5
F5
330
70
100
AcDbEntity
67
0
8
0
62
256
6
ByLayer
370
-1
48
1.0
60
0
100
AcDbLine
10
594.30512570927
20
196.231417251519
30
0.0
11
591.546868027422
21
194.268508410333
31
0.0
39
0.0
210
0.0
220
0.0
230
1.0
0
LINE
5
F6
330
70
100
AcDbEntity
67
0
8
0
62
256
6
ByLayer
370
-1
48
1.0
60
0
100
AcDbLine
10
591.546868027422
20
194.268508410333
30
0.0
11
588.762235333949
21
192.330382773317
31
0.0
39
0.0
210
0.0
220
0.0
230
1.0
0
LINE
5
F7
330
70
100
AcDbEntity
67
0
8
0
62
256
6
ByLayer
370
-1
48
1.0
60
0
100
AcDbLine
10
588.762235333949
20
192.330382773317
30
0.0
11
585.951841939839
21
190.41781410222
31
0.0
39
0.0
210
0.0
220
0.0
230
1.0
0
LINE
5
F8
330
70
100
AcDbEntity
67
0
8
0
62
256
6
ByLayer
370
-1
48
1.0
60
0
100
AcDbLine
10
585.951841939839
20
190.41781410222
30
0.0
11
583.116302156079
21
188.531576158789
31
0.0
39
0.0
210
0.0
220
0.0
230
1.0
0
LINE
5
F9
330
70
100
AcDbEntity
67
0
8
0
62
256
6
ByLayer
370
-1
48
1.0
60
0
100
AcDbLine
10
583.116302156079
20
188.531576158789
30
0.0
11
580.256230293656
21
186.67244270477
31
0.0
39
0.0
210
0.0
220
0.0
230
1.0
0
LINE
5
FA
330
70
100
AcDbEntity
67
0
8
0
62
256
6
ByLayer
370
-1
48
1.0
60
0
100
AcDbLine
10
580.256230293656
20
186.67244270477
30
0.0
11
577.372240663558
21
184.841187501912
31
0.0
39
0.0
210
0.0
220
0.0
230
1.0
0
LINE
5
FB
330
70
100
AcDbEntity
67
0
8
0
62
256
6
ByLayer
370
-1
48
1.0
60
0
100
AcDbLine
10
577.372240663558
20
184.841187501912
30
0.0
11
574.464947576772
21
183.038584311961
31
0.0
39
0.0
210
0.0
220
0.0
230
1.0
0
LINE
5
FC
330
70
100
AcDbEntity
67
0
8
0
62
256
6
ByLayer
370
-1
48
1.0
60
0
100
AcDbLine
10
574.464947576772
20
183.038584311961
30
0.0
11
571.534965344285
21
181.265406896665
31
0.0
39
0.0
210
0.0
220
0.0
230
1.0
0
LINE
5
FD
330
70
100
AcDbEntity
67
0
8
0
62
256
6
ByLayer
370
-1
48
1.0
60
0
100
AcDbLine
10
571.534965344285
20
181.265406896665
30
0.0
11
568.582908277084
21
179.522429017771
31
0.0
39
0.0
210
0.0
220
0.0
230
1.0
0
LINE
5
FE
330
70
100
AcDbEntity
67
0
8
0
62
256
6
ByLayer
370
-1
48
1.0
60
0
100
AcDbLine
10
568.582908277084
20
179.522429017771
30
0.0
11
565.609390686158
21
177.810424437027
31
0.0
39
0.0
210
0.0
220
0.0
230
1.0
0
LINE
5
FF
330
70
100
AcDbEntity
67
0
8
0
62
256
6
ByLayer
370
-1
48
1.0
60
0
100
AcDbLine
10
565.609390686158
20
177.810424437027
30
0.0
11
562.615026882492
21
176.13016691618
31
0.0
39
0.0
210
0.0
220
0.0
230
1.0
0
LINE
5
100
330
70
100
AcDbEntity
67
0
8
0
62
256
6
ByLayer
370
-1
48
1.0
60
0
100
AcDbLine
10
562.615026882492
20
176.13016691618
30
0.0
11
559.600431177075
21
174.482430216977
31
0.0
39
0.0
210
0.0
220
0.0
230
1.0
0
LINE
5
101
330
70
100
AcDbEntity
67
0
8
0
62
256
6
ByLayer
370
-1
48
1.0
60
0
100
AcDbLine
10
559.600431177075
20
174.482430216977
30
0.0
11
556.566217880893
21
172.867988101165
31
0.0
39
0.0
210
0.0
220
0.0
230
1.0
0
LINE
5
102
330
70
100
AcDbEntity
67
0
8
0
62
256
6
ByLayer
370
-1
48
1.0
60
0
100
AcDbLine
10
556.566217880893
20
172.867988101165
30
0.0
11
553.513028413131
21
171.287604579118
31
0.0
39
0.0
210
0.0
220
0.0
230
1.0
0
LINE
5
103
330
70
100
AcDbEntity
67
0
8
0
62
256
6
ByLayer
370
-1
48
1.0
60
0
100
AcDbLine
10
553.513028413131
20
171.287604579118
30
0.0
11
550.441576593026
21
169.741845075129
31
0.0
39
0.0
210
0.0
220
0.0
230
1.0
0
LINE
5
104
330
70
100
AcDbEntity
67
0
8
0
62
256
6
ByLayer
370
-1
48
1.0
60
0
100
AcDbLine
10
550.441576593026
20
169.741845075129
30
0.0
11
547.352512930005
21
168.231108349344
31
0.0
39
0.0
210
0.0
220
0.0
230
1.0
0
LINE
5
105
330
70
100
AcDbEntity
67
0
8
0
62
256
6
ByLayer
370
-1
48
1.0
60
0
100
AcDbLine
10
547.352512930005
20
168.231108349344
30
0.0
11
544.246482257094
21
166.75578877059
31
0.0
39
0.0
210
0.0
220
0.0
230
1.0
0
LINE
5
106
330
70
100
AcDbEntity
67
0
8
0
62
256
6
ByLayer
370
-1
48
1.0
60
0
100
AcDbLine
10
544.246482257094
20
166.75578877059
30
0.0
11
541.124129407324
21
165.316280707694
31
0.0
39
0.0
210
0.0
220
0.0
230
1.0
0
LINE
5
107
330
70
100
AcDbEntity
67
0
8
0
62
256
6
ByLayer
370
-1
48
1.0
60
0
100
AcDbLine
10
541.124129407324
20
165.316280707694
30
0.0
11
537.98609921372
21
163.912978529485
31
0.0
39
0.0
210
0.0
220
0.0
230
1.0
0
LINE
5
108
330
70
100
AcDbEntity
67
0
8
0
62
256
6
ByLayer
370
-1
48
1.0
60
0
100
AcDbLine
10
537.98609921372
20
163.912978529485
30
0.0
11
534.833036509313
21
162.546276604788
31
0.0
39
0.0
210
0.0
220
0.0
230
1.0
0
LINE
5
109
330
70
100
AcDbEntity
67
0
8
0
62
256
6
ByLayer
370
-1
48
1.0
60
0
100
AcDbLine
10
534.833036509313
20
162.546276604788
30
0.0
11
531.665586127128
21
161.216569302431
31
0.0
39
0.0
210
0.0
220
0.0
230
1.0
0
LINE
5
10A
330
70
100
AcDbEntity
67
0
8
0
62
256
6
ByLayer
370
-1
48
1.0
60
0
100
AcDbLine
10
531.665586127128
20
161.216569302431
30
0.0
11
528.484392900196
21
159.924250991241
31
0.0
39
0.0
210
0.0
220
0.0
230
1.0
0
LINE
5
10B
330
70
100
AcDbEntity
67
0
8
0
62
256
6
ByLayer
370
-1
48
1.0
60
0
100
AcDbLine
10
528.484392900196
20
159.924250991241
30
0.0
11
525.290101661543
21
158.669716040045
31
0.0
39
0.0
210
0.0
220
0.0
230
1.0
0
LINE
5
10C
330
70
100
AcDbEntity
67
0
8
0
62
256
6
ByLayer
370
-1
48
1.0
60
0
100
AcDbLine
10
525.290101661543
20
158.669716040045
30
0.0
11
522.083357244197
21
157.453358817671
31
0.0
39
0.0
210
0.0
220
0.0
230
1.0
0
LINE
5
10D
330
70
100
AcDbEntity
67
0
8
0
62
256
6
ByLayer
370
-1
48
1.0
60
0
100
AcDbLine
10
522.083357244197
20
157.453358817671
30
0.0
11
518.864804481188
21
156.275573692945
31
0.0
39
0.0
210
0.0
220
0.0
230
1.0
0
LINE
5
10E
330
70
100
AcDbEntity
67
0
8
0
62
256
6
ByLayer
370
-1
48
1.0
60
0
100
AcDbLine
10
518.864804481188
20
156.275573692945
30
0.0
11
515.635088205542
21
155.136755034694
31
0.0
39
0.0
210
0.0
220
0.0
230
1.0
0
LINE
5
10F
330
70
100
AcDbEntity
67
0
8
0
62
256
6
ByLayer
370
-1
48
1.0
60
0
100
AcDbLine
10
515.635088205542
20
155.136755034694
30
0.0
11
512.394853250289
21
154.037297211747
31
0.0
39
0.0
210
0.0
220
0.0
230
1.0
0
LINE
5
110
330
70
100
AcDbEntity
67
0
8
0
62
256
6
ByLayer
370
-1
48
1.0
60
0
100
AcDbLine
10
512.394853250289
20
154.037297211747
30
0.0
11
509.144744448455
21
152.977594592929
31
0.0
39
0.0
210
0.0
220
0.0
230
1.0
0
LINE
5
111
330
70
100
AcDbEntity
67
0
8
0
62
256
6
ByLayer
370
-1
48
1.0
60
0
100
AcDbLine
10
509.144744448455
20
152.977594592929
30
0.0
11
505.885406633069
21
151.958041547068
31
0.0
39
0.0
210
0.0
220
0.0
230
1.0
0
LINE
5
112
330
70
100
AcDbEntity
67
0
8
0
62
256
6
ByLayer
370
-1
48
1.0
60
0
100
AcDbLine
10
505.885406633069
20
151.958041547068
30
0.0
11
502.61748463716
21
150.979032442991
31
0.0
39
0.0
210
0.0
220
0.0
230
1.0
0
LINE
5
113
330
70
100
AcDbEntity
67
0
8
0
62
256
6
ByLayer
370
-1
48
1.0
60
0
100
AcDbLine
10
502.61748463716
20
150.979032442991
30
0.0
11
499.341623293754
21
150.040961649526
31
0.0
39
0.0
210
0.0
220
0.0
230
1.0
0
LINE
5
114
330
70
100
AcDbEntity
67
0
8
0
62
256
6
ByLayer
370
-1
48
1.0
60
0
100
AcDbLine
10
499.341623293754
20
150.040961649526
30
0.0
11
496.058467435881
21
149.144223535499
31
0.0
39
0.0
210
0.0
220
0.0
230
1.0
0
LINE
5
115
330
70
100
AcDbEntity
67
0
8
0
62
256
6
ByLayer
370
-1
48
1.0
60
0
100
AcDbLine
10
496.058467435881
20
149.144223535499
30
0.0
11
492.768667417934
21
148.289209756743
31
0.0
39
0.0
210
0.0
220
0.0
230
1.0
0
LINE
5
116
330
70
100
AcDbEntity
67
0
8
0
62
256
6
ByLayer
370
-1
48
1.0
60
0
100
AcDbLine
10
492.768667417934
20
148.289209756743
30
0.0
11
489.473137364645
21
147.47611280531
31
0.0
39
0.0
210
0.0
220
0.0
230
1.0
0
LINE
5
117
330
70
100
AcDbEntity
67
0
8
0
62
256
6
ByLayer
370
-1
48
1.0
60
0
100
AcDbLine
10
489.473137364645
20
147.47611280531
30
0.0
11
486.172762284066
21
146.704939830002
31
0.0
39
0.0
210
0.0
220
0.0
230
1.0
0
LINE
5
118
330
70
100
AcDbEntity
67
0
8
0
62
256
6
ByLayer
370
-1
48
1.0
60
0
100
AcDbLine
10
486.172762284066
20
146.704939830002
30
0.0
11
482.868313226612
21
145.975719222387
31
0.0
39
0.0
210
0.0
220
0.0
230
1.0
0
LINE
5
119
330
70
100
AcDbEntity
67
0
8
0
62
256
6
ByLayer
370
-1
48
1.0
60
0
100
AcDbLine
10
482.868313226612
20
145.975719222387
30
0.0
11
479.560561242697
21
145.288479374031
31
0.0
39
0.0
210
0.0
220
0.0
230
1.0
0
LINE
5
11A
330
70
100
AcDbEntity
67
0
8
0
62
256
6
ByLayer
370
-1
48
1.0
60
0
100
AcDbLine
10
479.560561242697
20
145.288479374031
30
0.0
11
476.250277382734
21
144.643248676502
31
0.0
39
0.0
210
0.0
220
0.0
230
1.0
0
LINE
5
11B
330
70
100
AcDbEntity
67
0
8
0
62
256
6
ByLayer
370
-1
48
1.0
60
0
100
AcDbLine
10
476.250277382734
20
144.643248676502
30
0.0
11
472.938232697135
21
144.040055521367
31
0.0
39
0.0
210
0.0
220
0.0
230
1.0
0
LINE
5
11C
330
70
100
AcDbEntity
67
0
8
0
62
256
6
ByLayer
370
-1
48
1.0
60
0
100
AcDbLine
10
472.938232697135
20
144.040055521367
30
0.0
11
469.625198236315
21
143.478928300192
31
0.0
39
0.0
210
0.0
220
0.0
230
1.0
0
LINE
5
11D
330
70
100
AcDbEntity
67
0
8
0
62
256
6
ByLayer
370
-1
48
1.0
60
0
100
AcDbLine
10
469.625198236315
20
143.478928300192
30
0.0
11
466.311945050687
21
142.959895404545
31
0.0
39
0.0
210
0.0
220
0.0
230
1.0
0
LINE
5
11E
330
70
100
AcDbEntity
67
0
8
0
62
256
6
ByLayer
370
-1
48
1.0
60
0
100
AcDbLine
10
466.311945050687
20
142.959895404545
30
0.0
11
462.999244190663
21
142.482985225992
31
0.0
39
0.0
210
0.0
220
0.0
230
1.0
0
LINE
5
11F
330
70
100
AcDbEntity
67
0
8
0
62
256
6
ByLayer
370
-1
48
1.0
60
0
100
AcDbLine
10
462.999244190663
20
142.482985225992
30
0.0
11
459.687866706659
21
142.048226156101
31
0.0
39
0.0
210
0.0
220
0.0
230
1.0
0
LINE
5
120
330
70
100
AcDbEntity
67
0
8
0
62
256
6
ByLayer
370
-1
48
1.0
60
0
100
AcDbLine
10
459.687866706659
20
142.048226156101
30
0.0
11
456.378583649086
21
141.655646586439
31
0.0
39
0.0
210
0.0
220
0.0
230
1.0
0
LINE
5
121
330
70
100
AcDbEntity
67
0
8
0
62
256
6
ByLayer
370
-1
48
1.0
60
0
100
AcDbLine
10
456.378583649086
20
141.655646586439
30
0.0
11
453.072166068359
21
141.305274908572
31
0.0
39
0.0
210
0.0
220
0.0
230
1.0
0
LINE
5
122
330
70
100
AcDbEntity
67
0
8
0
62
256
6
ByLayer
370
-1
48
1.0
60
0
100
AcDbLine
10
453.072166068359
20
141.305274908572
30
0.0
11
449.769387345148
21
140.997130974859
31
0.0
39
0.0
210
0.0
220
0.0
230
1.0
0
LINE
5
123
330
70
100
AcDbEntity
67
0
8
0
62
256
6
ByLayer
370
-1
48
1.0
60
0
100
AcDbLine
10
449.769387345148
20
140.997130974859
30
0.0
11
446.471091559168
21
140.730960305981
31
0.0
39
0.0
210
0.0
220
0.0
230
1.0
0
LINE
5
124
330
70
100
AcDbEntity
67
0
8
0
62
256
6
ByLayer
370
-1
48
1.0
60
0
100
AcDbLine
10
446.471091559168
20
140.730960305981
30
0.0
11
443.178128230979
21
140.506449473926
31
0.0
39
0.0
210
0.0
220
0.0
230
1.0
0
LINE
5
125
330
70
100
AcDbEntity
67
0
8
0
62
256
6
ByLayer
370
-1
48
1.0
60
0
100
AcDbLine
10
443.178128230979
20
140.506449473926
30
0.0
11
439.891327570601
21
140.32334992386
31
0.0
39
0.0
210
0.0
220
0.0
230
1.0
0
LINE
5
126
330
70
100
AcDbEntity
67
0
8
0
62
256
6
ByLayer
370
-1
48
1.0
60
0
100
AcDbLine
10
439.891327570601
20
140.32334992386
30
0.0
11
436.611519788059
21
140.181413100948
31
0.0
39
0.0
210
0.0
220
0.0
230
1.0
0
LINE
5
127
330
70
100
AcDbEntity
67
0
8
0
62
256
6
ByLayer
370
-1
48
1.0
60
0
100
AcDbLine
10
436.611519788059
20
140.181413100948
30
0.0
11
433.339535093373
21
140.080390450355
31
0.0
39
0.0
210
0.0
220
0.0
230
1.0
0
LINE
5
128
330
70
100
AcDbEntity
67
0
8
0
62
256
6
ByLayer
370
-1
48
1.0
60
0
100
AcDbLine
10
433.339535093373
20
140.080390450355
30
0.0
11
430.076119160208
21
140.020025911592
31
0.0
39
0.0
210
0.0
220
0.0
230
1.0
0
LINE
5
129
330
70
100
AcDbEntity
67
0
8
0
62
256
6
ByLayer
370
-1
48
1.0
60
0
100
AcDbLine
10
430.076119160208
20
140.020025911592
30
0.0
11
426.817354594454
21
139.99983683856
31
0.0
39
0.0
210
0.0
220
0.0
230
1.0
0
LINE
5
12A
330
70
100
AcDbEntity
67
0
8
0
62
256
6
ByLayer
370
-1
48
1.0
60
0
100
AcDbLine
10
426.817310353975
20
139.999836836624
30
0.0
11
423.55857299166
21
140.019821563702
31
0.0
39
0.0
210
0.0
220
0.0
230
1.0
0
LINE
5
12B
330
70
100
AcDbEntity
67
0
8
0
62
256
6
ByLayer
370
-1
48
1.0
60
0
100
AcDbLine
10
423.55857299166
20
140.019821563702
30
0.0
11
420.29691577358
21
140.080221946754
31
0.0
39
0.0
210
0.0
220
0.0
230
1.0
0
LINE
5
12C
330
70
100
AcDbEntity
67
0
8
0
62
256
6
ByLayer
370
-1
48
1.0
60
0
100
AcDbLine
10
420.29691577358
20
140.080221946754
30
0.0
11
417.029392004078
21
140.181280389699
31
0.0
39
0.0
210
0.0
220
0.0
230
1.0
0
LINE
5
12D
330
70
100
AcDbEntity
67
0
8
0
62
256
6
ByLayer
370
-1
48
1.0
60
0
100
AcDbLine
10
417.029392004078
20
140.181280389699
30
0.0
11
413.753054987496
21
140.323239296459
31
0.0
39
0.0
210
0.0
220
0.0
230
1.0
0
LINE
5
12E
330
70
100
AcDbEntity
67
0
8
0
62
256
6
ByLayer
370
-1
48
1.0
60
0
100
AcDbLine
10
413.753054987496
20
140.323239296459
30
0.0
11
410.466576746801
21
140.506527522531
31
0.0
39
0.0
210
0.0
220
0.0
230
1.0
0
LINE
5
12F
330
70
100
AcDbEntity
67
0
8
0
62
256
6
ByLayer
370
-1
48
1.0
60
0
100
AcDbLine
10
410.466576746801
20
140.506527522531
30
0.0
11
407.173781660195
21
140.731841176804
31
0.0
39
0.0
210
0.0
220
0.0
230
1.0
0
LINE
5
130
330
70
100
AcDbEntity
67
0
8
0
62
256
6
ByLayer
370
-1
48
1.0
60
0
100
AcDbLine
10
407.173781660195
20
140.731841176804
30
0.0
11
403.875739072333
21
140.999203779656
31
0.0
39
0.0
210
0.0
220
0.0
230
1.0
0
LINE
5
131
330
70
100
AcDbEntity
67
0
8
0
62
256
6
ByLayer
370
-1
48
1.0
60
0
100
AcDbLine
10
403.875739072333
20
140.999203779656
30
0.0
11
400.573224111538
21
141.308593148991
31
0.0
39
0.0
210
0.0
220
0.0
230
1.0
0
LINE
5
132
330
70
100
AcDbEntity
67
0
8
0
62
256
6
ByLayer
370
-1
48
1.0
60
0
100
AcDbLine
10
400.573224111538
20
141.308593148991
30
0.0
11
397.267011906133
21
141.659987102714
31
0.0
39
0.0
210
0.0
220
0.0
230
1.0
0
LINE
5
133
330
70
100
AcDbEntity
67
0
8
0
62
256
6
ByLayer
370
-1
48
1.0
60
0
100
AcDbLine
10
397.267011906133
20
141.659987102714
30
0.0
11
393.957877584441
21
142.05336345873
31
0.0
39
0.0
210
0.0
220
0.0
230
1.0
0
LINE
5
134
330
70
100
AcDbEntity
67
0
8
0
62
256
6
ByLayer
370
-1
48
1.0
60
0
100
AcDbLine
10
393.957877584441
20
142.05336345873
30
0.0
11
390.646596274784
21
142.488700034942
31
0.0
39
0.0
210
0.0
220
0.0
230
1.0
0
LINE
5
135
330
70
100
AcDbEntity
67
0
8
0
62
256
6
ByLayer
370
-1
48
1.0
60
0
100
AcDbLine
10
390.646596274784
20
142.488700034942
30
0.0
11
387.333943105486
21
142.965974649254
31
0.0
39
0.0
210
0.0
220
0.0
230
1.0
0
LINE
5
136
330
70
100
AcDbEntity
67
0
8
0
62
256
6
ByLayer
370
-1
48
1.0
60
0
100
AcDbLine
10
387.333943105486
20
142.965974649254
30
0.0
11
384.020693204868
21
143.485165119573
31
0.0
39
0.0
210
0.0
220
0.0
230
1.0
0
LINE
5
137
330
70
100
AcDbEntity
67
0
8
0
62
256
6
ByLayer
370
-1
48
1.0
60
0
100
AcDbLine
10
384.020693204868
20
143.485165119573
30
0.0
11
380.707621701253
21
144.046249263802
31
0.0
39
0.0
210
0.0
220
0.0
230
1.0
0
LINE
5
138
330
70
100
AcDbEntity
67
0
8
0
62
256
6
ByLayer
370
-1
48
1.0
60
0
100
AcDbLine
10
380.707621701253
20
144.046249263802
30
0.0
11
377.395503722965
21
144.649204899845
31
0.0
39
0.0
210
0.0
220
0.0
230
1.0
0
LINE
5
139
330
70
100
AcDbEntity
67
0
8
0
62
256
6
ByLayer
370
-1
48
1.0
60
0
100
AcDbLine
10
377.395503722965
20
144.649204899845
30
0.0
11
374.085114398326
21
145.294009845608
31
0.0
39
0.0
210
0.0
220
0.0
230
1.0
0
LINE
5
13A
330
70
100
AcDbEntity
67
0
8
0
62
256
6
ByLayer
370
-1
48
1.0
60
0
100
AcDbLine
10
374.085114398326
20
145.294009845608
30
0.0
11
370.777228855658
21
145.980641918994
31
0.0
39
0.0
210
0.0
220
0.0
230
1.0
0
LINE
5
13B
330
70
100
AcDbEntity
67
0
8
0
62
256
6
ByLayer
370
-1
48
1.0
60
0
100
AcDbLine
10
370.777228855658
20
145.980641918994
30
0.0
11
367.472622223285
21
146.709078937908
31
0.0
39
0.0
210
0.0
220
0.0
230
1.0
0
LINE
5
13C
330
70
100
AcDbEntity
67
0
8
0
62
256
6
ByLayer
370
-1
48
1.0
60
0
100
AcDbLine
10
367.472622223285
20
146.709078937908
30
0.0
11
364.172069629529
21
147.479298720254
31
0.0
39
0.0
210
0.0
220
0.0
230
1.0
0
LINE
5
13D
330
70
100
AcDbEntity
67
0
8
0
62
256
6
ByLayer
370
-1
48
1.0
60
0
100
AcDbLine
10
364.172069629529
20
147.479298720254
30
0.0
11
360.876346202713
21
148.291279083938
31
0.0
39
0.0
210
0.0
220
0.0
230
1.0
0
LINE
5
13E
330
70
100
AcDbEntity
67
0
8
0
62
256
6
ByLayer
370
-1
48
1.0
60
0
100
AcDbLine
10
360.876346202713
20
148.291279083938
30
0.0
11
357.586227071159
21
149.144997846863
31
0.0
39
0.0
210
0.0
220
0.0
230
1.0
0
LINE
5
13F
330
70
100
AcDbEntity
67
0
8
0
62
256
6
ByLayer
370
-1
48
1.0
60
0
100
AcDbLine
10
357.586227071159
20
149.144997846863
30
0.0
11
354.302487363191
21
150.040432826934
31
0.0
39
0.0
210
0.0
220
0.0
230
1.0
0
LINE
5
140
330
70
100
AcDbEntity
67
0
8
0
62
256
6
ByLayer
370
-1
48
1.0
60
0
100
AcDbLine
10
354.302487363191
20
150.040432826934
30
0.0
11
351.025910412095
21
150.977551872276
31
0.0
39
0.0
210
0.0
220
0.0
230
1.0
0
LINE
5
141
330
70
100
AcDbEntity
67
0
8
0
62
256
6
ByLayer
370
-1
48
1.0
60
0
100
AcDbLine
10
351.025910412095
20
150.977551872276
30
0.0
11
347.757375653791
21
151.956041452131
31
0.0
39
0.0
210
0.0
220
0.0
230
1.0
0
LINE
5
142
330
70
100
AcDbEntity
67
0
8
0
62
256
6
ByLayer
370
-1
48
1.0
60
0
100
AcDbLine
10
347.757375653791
20
151.956041452131
30
0.0
11
344.497578932458
21
152.975427248685
31
0.0
39
0.0
210
0.0
220
0.0
230
1.0
0
LINE
5
143
330
70
100
AcDbEntity
67
0
8
0
62
256
6
ByLayer
370
-1
48
1.0
60
0
100
AcDbLine
10
344.497578932458
20
152.975427248685
30
0.0
11
341.247151149944
21
154.035262480552
31
0.0
39
0.0
210
0.0
220
0.0
230
1.0
0
LINE
5
144
330
70
100
AcDbEntity
67
0
8
0
62
256
6
ByLayer
370
-1
48
1.0
60
0
100
AcDbLine
10
341.247151149944
20
154.035262480552
30
0.0
11
338.006723208099
21
155.135100366347
31
0.0
39
0.0
210
0.0
220
0.0
230
1.0
0
LINE
5
145
330
70
100
AcDbEntity
67
0
8
0
62
256
6
ByLayer
370
-1
48
1.0
60
0
100
AcDbLine
10
338.006723208099
20
155.135100366347
30
0.0
11
334.77692600877
21
156.274494124682
31
0.0
39
0.0
210
0.0
220
0.0
230
1.0
0
LINE
5
146
330
70
100
AcDbEntity
67
0
8
0
62
256
6
ByLayer
370
-1
48
1.0
60
0
100
AcDbLine
10
334.77692600877
20
156.274494124682
30
0.0
11
331.558390453808
21
157.452996974171
31
0.0
39
0.0
210
0.0
220
0.0
230
1.0
0
LINE
5
147
330
70
100
AcDbEntity
67
0
8
0
62
256
6
ByLayer
370
-1
48
1.0
60
0
100
AcDbLine
10
331.558390453808
20
157.452996974171
30
0.0
11
328.351747445061
21
158.670162133429
31
0.0
39
0.0
210
0.0
220
0.0
230
1.0
0
LINE
5
148
330
70
100
AcDbEntity
67
0
8
0
62
256
6
ByLayer
370
-1
48
1.0
60
0
100
AcDbLine
10
328.351747445061
20
158.670162133429
30
0.0
11
325.157627884377
21
159.925542821068
31
0.0
39
0.0
210
0.0
220
0.0
230
1.0
0
LINE
5
149
330
70
100
AcDbEntity
67
0
8
0
62
256
6
ByLayer
370
-1
48
1.0
60
0
100
AcDbLine
10
325.157627884377
20
159.925542821068
30
0.0
11
321.976662673606
21
161.218692255702
31
0.0
39
0.0
210
0.0
220
0.0
230
1.0
0
LINE
5
14A
330
70
100
AcDbEntity
67
0
8
0
62
256
6
ByLayer
370
-1
48
1.0
60
0
100
AcDbLine
10
321.976662673606
20
161.218692255702
30
0.0
11
318.809482714597
21
162.549163655946
31
0.0
39
0.0
210
0.0
220
0.0
230
1.0
0
LINE
5
14B
330
70
100
AcDbEntity
67
0
8
0
62
256
6
ByLayer
370
-1
48
1.0
60
0
100
AcDbLine
10
318.809482714597
20
162.549163655946
30
0.0
11
315.656718909197
21
163.916510240413
31
0.0
39
0.0
210
0.0
220
0.0
230
1.0
0
LINE
5
14C
330
70
100
AcDbEntity
67
0
8
0
62
256
6
ByLayer
370
-1
48
1.0
60
0
100
AcDbLine
10
315.656718909197
20
163.916510240413
30
0.0
11
312.519002159257
21
165.320285227716
31
0.0
39
0.0
210
0.0
220
0.0
230
1.0
0
LINE
5
14D
330
70
100
AcDbEntity
67
0
8
0
62
256
6
ByLayer
370
-1
48
1.0
60
0
100
AcDbLine
10
312.519002159257
20
165.320285227716
30
0.0
11
309.396963366625
21
166.760041836469
31
0.0
39
0.0
210
0.0
220
0.0
230
1.0
0
LINE
5
14E
330
70
100
AcDbEntity
67
0
8
0
62
256
6
ByLayer
370
-1
48
1.0
60
0
100
AcDbLine
10
309.396963366625
20
166.760041836469
30
0.0
11
306.291233433149
21
168.235333285287
31
0.0
39
0.0
210
0.0
220
0.0
230
1.0
0
LINE
5
14F
330
70
100
AcDbEntity
67
0
8
0
62
256
6
ByLayer
370
-1
48
1.0
60
0
100
AcDbLine
10
306.291233433149
20
168.235333285287
30
0.0
11
303.20244326068
21
169.745712792782
31
0.0
39
0.0
210
0.0
220
0.0
230
1.0
0
LINE
5
150
330
70
100
AcDbEntity
67
0
8
0
62
256
6
ByLayer
370
-1
48
1.0
60
0
100
AcDbLine
10
303.20244326068
20
169.745712792782
30
0.0
11
300.131223751064
21
171.290733577569
31
0.0
39
0.0
210
0.0
220
0.0
230
1.0
0
LINE
5
151
330
70
100
AcDbEntity
67
0
8
0
62
256
6
ByLayer
370
-1
48
1.0
60
0
100
AcDbLine
10
300.131223751064
20
171.290733577569
30
0.0
11
297.078205806152
21
172.869948858261
31
0.0
39
0.0
210
0.0
220
0.0
230
1.0
0
LINE
5
152
330
70
100
AcDbEntity
67
0
8
0
62
256
6
ByLayer
370
-1
48
1.0
60
0
100
AcDbLine
10
297.078205806152
20
172.869948858261
30
0.0
11
294.044020327792
21
174.482911853472
31
0.0
39
0.0
210
0.0
220
0.0
230
1.0
0
LINE
5
153
330
70
100
AcDbEntity
67
0
8
0
62
256
6
ByLayer
370
-1
48
1.0
60
0
100
AcDbLine
10
294.044020327792
20
174.482911853472
30
0.0
11
291.029298217833
21
176.129175781815
31
0.0
39
0.0
210
0.0
220
0.0
230
1.0
0
LINE
5
154
330
70
100
AcDbEntity
67
0
8
0
62
256
6
ByLayer
370
-1
48
1.0
60
0
100
AcDbLine
10
291.029298217833
20
176.129175781815
30
0.0
11
288.034674797249
21
177.808277607833
31
0.0
39
0.0
210
0.0
220
0.0
230
1.0
0
LINE
5
155
330
70
100
AcDbEntity
67
0
8
0
62
256
6
ByLayer
370
-1
48
1.0
60
0
100
AcDbLine
10
288.034674797249
20
177.808277607833
30
0.0
11
285.060882902665
21
179.519306820804
31
0.0
39
0.0
210
0.0
220
0.0
230
1.0
0
LINE
5
156
330
70
100
AcDbEntity
67
0
8
0
62
256
6
ByLayer
370
-1
48
1.0
60
0
100
AcDbLine
10
285.060882902665
20
179.519306820804
30
0.0
11
282.108586395718
21
181.261381968351
31
0.0
39
0.0
210
0.0
220
0.0
230
1.0
0
LINE
5
157
330
70
100
AcDbEntity
67
0
8
0
62
256
6
ByLayer
370
-1
48
1.0
60
0
100
AcDbLine
10
282.108586395718
20
181.261381968351
30
0.0
11
279.178403248393
21
183.033756932175
31
0.0
39
0.0
210
0.0
220
0.0
230
1.0
0
LINE
5
158
330
70
100
AcDbEntity
67
0
8
0
62
256
6
ByLayer
370
-1
48
1.0
60
0
100
AcDbLine
10
279.178403248393
20
183.033756932175
30
0.0
11
276.270951432671
21
184.83568559398
31
0.0
39
0.0
210
0.0
220
0.0
230
1.0
0
LINE
5
159
330
70
100
AcDbEntity
67
0
8
0
62
256
6
ByLayer
370
-1
48
1.0
60
0
100
AcDbLine
10
276.270951432671
20
184.83568559398
30
0.0
11
273.386848920536
21
186.666421835468
31
0.0
39
0.0
210
0.0
220
0.0
230
1.0
0
LINE
5
15A
330
70
100
AcDbEntity
67
0
8
0
62
256
6
ByLayer
370
-1
48
1.0
60
0
100
AcDbLine
10
273.386848920536
20
186.666421835468
30
0.0
11
270.526713683972
21
188.525219538342
31
0.0
39
0.0
210
0.0
220
0.0
230
1.0
0
LINE
5
15B
330
70
100
AcDbEntity
67
0
8
0
62
256
6
ByLayer
370
-1
48
1.0
60
0
100
AcDbLine
10
270.526713683972
20
188.525219538342
30
0.0
11
267.691163694962
21
190.411332584305
31
0.0
39
0.0
210
0.0
220
0.0
230
1.0
0
LINE
5
15C
330
70
100
AcDbEntity
67
0
8
0
62
256
6
ByLayer
370
-1
48
1.0
60
0
100
AcDbLine
10
267.691163694962
20
190.411332584305
30
0.0
11
264.880816925489
21
192.324014855059
31
0.0
39
0.0
210
0.0
220
0.0
230
1.0
0
LINE
5
15D
330
70
100
AcDbEntity
67
0
8
0
62
256
6
ByLayer
370
-1
48
1.0
60
0
100
AcDbLine
10
264.880816925489
20
192.324014855059
30
0.0
11
262.096291347537
21
194.262520232306
31
0.0
39
0.0
210
0.0
220
0.0
230
1.0
0
LINE
5
15E
330
70
100
AcDbEntity
67
0
8
0
62
256
6
ByLayer
370
-1
48
1.0
60
0
100
AcDbLine
10
262.096291347537
20
194.262520232306
30
0.0
11
259.338204933088
21
196.22610259775
31
0.0
39
0.0
210
0.0
220
0.0
230
1.0
0
LINE
5
15F
330
70
100
AcDbEntity
67
0
8
0
62
256
6
ByLayer
370
-1
48
1.0
60
0
100
AcDbLine
10
259.338204933088
20
196.22610259775
30
0.0
11
256.607174663265
21
198.213992656408
31
0.0
39
0.0
210
0.0
220
0.0
230
1.0
0
LINE
5
160
330
70
100
AcDbEntity
67
0
8
0
62
256
6
ByLayer
370
-1
48
1.0
60
0
100
AcDbLine
10
256.607174663265
20
198.213992656408
30
0.0
11
253.903796465004
21
200.2252725641
31
0.0
39
0.0
210
0.0
220
0.0
230
1.0
0
LINE
5
161
330
70
100
AcDbEntity
67
0
8
0
62
256
6
ByLayer
370
-1
48
1.0
60
0
100
AcDbLine
10
253.903796465004
20
200.2252725641
30
0.0
11
251.228646526963
21
202.259025138051
31
0.0
39
0.0
210
0.0
220
0.0
230
1.0
0
LINE
5
162
330
70
100
AcDbEntity
67
0
8
0
62
256
6
ByLayer
370
-1
48
1.0
60
0
100
AcDbLine
10
251.228646526963
20
202.259025138051
30
0.0
11
248.582300300018
21
204.314340891249
31
0.0
39
0.0
210
0.0
220
0.0
230
1.0
0
LINE
5
163
330
70
100
AcDbEntity
67
0
8
0
62
256
6
ByLayer
370
-1
48
1.0
60
0
100
AcDbLine
10
248.582300300018
20
204.314340891249
30
0.0
11
245.965333235042
21
206.390310336679
31
0.0
39
0.0
210
0.0
220
0.0
230
1.0
0
LINE
5
164
330
70
100
AcDbEntity
67
0
8
0
62
256
6
ByLayer
370
-1
48
1.0
60
0
100
AcDbLine
10
245.965333235042
20
206.390310336679
30
0.0
11
243.378320782907
21
208.486023987329
31
0.0
39
0.0
210
0.0
220
0.0
230
1.0
0
LINE
5
165
330
70
100
AcDbEntity
67
0
8
0
62
256
6
ByLayer
370
-1
48
1.0
60
0
100
AcDbLine
10
243.378320782907
20
208.486023987329
30
0.0
11
240.821838394488
21
210.600572356185
31
0.0
39
0.0
210
0.0
220
0.0
230
1.0
0
LINE
5
166
330
70
100
AcDbEntity
67
0
8
0
62
256
6
ByLayer
370
-1
48
1.0
60
0
100
AcDbLine
10
240.821838394488
20
210.600572356185
30
0.0
11
238.297393161984
21
212.732014579194
31
0.0
39
0.0
210
0.0
220
0.0
230
1.0
0
LINE
5
167
330
70
100
AcDbEntity
67
0
8
0
62
256
6
ByLayer
370
-1
48
1.0
60
0
100
AcDbLine
10
238.297393161984
20
212.732014579194
30
0.0
11
235.806534560505
21
214.878093334805
31
0.0
39
0.0
210
0.0
220
0.0
230
1.0
0
LINE
5
168
330
70
100
AcDbEntity
67
0
8
0
62
256
6
ByLayer
370
-1
48
1.0
60
0
100
AcDbLine
10
235.806534560505
20
214.878093334805
30
0.0
11
233.345289355021
21
217.042352996054
31
0.0
39
0.0
210
0.0
220
0.0
230
1.0
0
LINE
5
169
330
70
100
AcDbEntity
67
0
8
0
62
256
6
ByLayer
370
-1
48
1.0
60
0
100
AcDbLine
10
233.345289355021
20
217.042352996054
30
0.0
11
230.909314293894
21
219.228735451351
31
0.0
39
0.0
210
0.0
220
0.0
230
1.0
0
LINE
5
16A
330
70
100
AcDbEntity
67
0
8
0
62
256
6
ByLayer
370
-1
48
1.0
60
0
100
AcDbLine
10
230.909314293894
20
219.228735451351
30
0.0
11
228.494266125481
21
221.44118258911
31
0.0
39
0.0
210
0.0
220
0.0
230
1.0
0
LINE
5
16B
330
70
100
AcDbEntity
67
0
8
0
62
256
6
ByLayer
370
-1
48
1.0
60
0
100
AcDbLine
10
228.494266125481
20
221.44118258911
30
0.0
11
226.095801598144
21
223.683636297745
31
0.0
39
0.0
210
0.0
220
0.0
230
1.0
0
LINE
5
16C
330
70
100
AcDbEntity
67
0
8
0
62
256
6
ByLayer
370
-1
48
1.0
60
0
100
AcDbLine
10
226.095801598144
20
223.683636297745
30
0.0
11
223.709584653909
21
225.960033868699
31
0.0
39
0.0
210
0.0
220
0.0
230
1.0
0
LINE
5
16D
330
70
100
AcDbEntity
67
0
8
0
62
256
6
ByLayer
370
-1
48
1.0
60
0
100
AcDbLine
10
223.709584653909
20
225.960033868699
30
0.0
11
221.335641246528
21
228.271336307366
31
0.0
39
0.0
210
0.0
220
0.0
230
1.0
0
LINE
5
16E
330
70
100
AcDbEntity
67
0
8
0
62
256
6
ByLayer
370
-1
48
1.0
60
0
100
AcDbLine
10
221.335641246528
20
228.271336307366
30
0.0
11
218.976952242002
21
230.615929513045
31
0.0
39
0.0
210
0.0
220
0.0
230
1.0
0
LINE
5
16F
330
70
100
AcDbEntity
67
0
8
0
62
256
6
ByLayer
370
-1
48
1.0
60
0
100
AcDbLine
10
218.976952242002
20
230.615929513045
30
0.0
11
216.634478425152
21
232.993334501308
31
0.0
39
0.0
210
0.0
220
0.0
230
1.0
0
LINE
5
170
330
70
100
AcDbEntity
67
0
8
0
62
256
6
ByLayer
370
-1
48
1.0
60
0
100
AcDbLine
10
216.634478425152
20
232.993334501308
30
0.0
11
214.309180580802
21
235.403072287727
31
0.0
39
0.0
210
0.0
220
0.0
230
1.0
0
LINE
5
171
330
70
100
AcDbEntity
67
0
8
0
62
256
6
ByLayer
370
-1
48
1.0
60
0
100
AcDbLine
10
214.309180580802
20
235.403072287727
30
0.0
11
212.002019493774
21
237.844663887876
31
0.0
39
0.0
210
0.0
220
0.0
230
1.0
0
LINE
5
172
330
70
100
AcDbEntity
67
0
8
0
62
256
6
ByLayer
370
-1
48
1.0
60
0
100
AcDbLine
10
212.002019493774
20
237.844663887876
30
0.0
11
209.713955948891
21
240.317630317326
31
0.0
39
0.0
210
0.0
220
0.0
230
1.0
0
LINE
5
173
330
70
100
AcDbEntity
67
0
8
0
62
256
6
ByLayer
370
-1
48
1.0
60
0
100
AcDbLine
10
209.713955948891
20
240.317630317326
30
0.0
11
207.445950730976
21
242.821492591651
31
0.0
39
0.0
210
0.0
220
0.0
230
1.0
0
LINE
5
174
330
70
100
AcDbEntity
67
0
8
0
62
256
6
ByLayer
370
-1
48
1.0
60
0
100
AcDbLine
10
207.445950730976
20
242.821492591651
30
0.0
11
205.19896462485
21
245.355771726422
31
0.0
39
0.0
210
0.0
220
0.0
230
1.0
0
LINE
5
175
330
70
100
AcDbEntity
67
0
8
0
62
256
6
ByLayer
370
-1
48
1.0
60
0
100
AcDbLine
10
205.19896462485
20
245.355771726422
30
0.0
11
202.973958415337
21
247.919988737212
31
0.0
39
0.0
210
0.0
220
0.0
230
1.0
0
LINE
5
176
330
70
100
AcDbEntity
67
0
8
0
62
256
6
ByLayer
370
-1
48
1.0
60
0
100
AcDbLine
10
202.973958415337
20
247.919988737212
30
0.0
11
200.771892887258
21
250.513664639595
31
0.0
39
0.0
210
0.0
220
0.0
230
1.0
0
LINE
5
177
330
70
100
AcDbEntity
67
0
8
0
62
256
6
ByLayer
370
-1
48
1.0
60
0
100
AcDbLine
10
200.771892887258
20
250.513664639595
30
0.0
11
198.593728825438
21
253.136320449141
31
0.0
39
0.0
210
0.0
220
0.0
230
1.0
0
LINE
5
178
330
70
100
AcDbEntity
67
0
8
0
62
256
6
ByLayer
370
-1
48
1.0
60
0
100
AcDbLine
10
198.593728825438
20
253.136320449141
30
0.0
11
196.440427014697
21
255.787477181424
31
0.0
39
0.0
210
0.0
220
0.0
230
1.0
0
LINE
5
179
330
70
100
AcDbEntity
67
0
8
0
62
256
6
ByLayer
370
-1
48
1.0
60
0
100
AcDbLine
10
196.440427014697
20
255.787477181424
30
0.0
11
194.31294823986
21
258.466655852016
31
0.0
39
0.0
210
0.0
220
0.0
230
1.0
0
LINE
5
17A
330
70
100
AcDbEntity
67
0
8
0
62
256
6
ByLayer
370
-1
48
1.0
60
0
100
AcDbLine
10
194.31294823986
20
258.466655852016
30
0.0
11
192.212253285747
21
261.17337747649
31
0.0
39
0.0
210
0.0
220
0.0
230
1.0
0
LINE
5
17B
330
70
100
AcDbEntity
67
0
8
0
62
256
6
ByLayer
370
-1
48
1.0
60
0
100
AcDbLine
10
192.212253285747
20
261.17337747649
30
0.0
11
190.139302937183
21
263.907163070418
31
0.0
39
0.0
210
0.0
220
0.0
230
1.0
0
LINE
5
17C
330
70
100
AcDbEntity
67
0
8
0
62
256
6
ByLayer
370
-1
48
1.0
60
0
100
AcDbLine
10
190.139302937183
20
263.907163070418
30
0.0
11
188.095057978989
21
266.667533649373
31
0.0
39
0.0
210
0.0
220
0.0
230
1.0
0
LINE
5
17D
330
70
100
AcDbEntity
67
0
8
0
62
256
6
ByLayer
370
-1
48
1.0
60
0
100
AcDbLine
10
188.095057978989
20
266.667533649373
30
0.0
11
186.080479195988
21
269.454010228927
31
0.0
39
0.0
210
0.0
220
0.0
230
1.0
0
LINE
5
17E
330
70
100
AcDbEntity
67
0
8
0
62
256
6
ByLayer
370
-1
48
1.0
60
0
100
AcDbLine
10
186.080479195988
20
269.454010228927
30
0.0
11
184.096527373003
21
272.266113824653
31
0.0
39
0.0
210
0.0
220
0.0
230
1.0
0
LINE
5
17F
330
70
100
AcDbEntity
67
0
8
0
62
256
6
ByLayer
370
-1
48
1.0
60
0
100
AcDbLine
10
184.096527373003
20
272.266113824653
30
0.0
11
182.144163294856
21
275.103365452123
31
0.0
39
0.0
210
0.0
220
0.0
230
1.0
0
LINE
5
180
330
70
100
AcDbEntity
67
0
8
0
62
256
6
ByLayer
370
-1
48
1.0
60
0
100
AcDbLine
10
182.144163294856
20
275.103365452123
30
0.0
11
180.22434774637
21
277.96528612691
31
0.0
39
0.0
210
0.0
220
0.0
230
1.0
0
LINE
5
181
330
70
100
AcDbEntity
67
0
8
0
62
256
6
ByLayer
370
-1
48
1.0
60
0
100
AcDbLine
10
180.22434774637
20
277.96528612691
30
0.0
11
178.338041512367
21
280.851396864587
31
0.0
39
0.0
210
0.0
220
0.0
230
1.0
0
LINE
5
182
330
70
100
AcDbEntity
67
0
8
0
62
256
6
ByLayer
370
-1
48
1.0
60
0
100
AcDbLine
10
178.338041512367
20
280.851396864587
30
0.0
11
176.486211396433
21
283.761203396938
31
0.0
39
0.0
210
0.0
220
0.0
230
1.0
0
LINE
5
183
330
70
100
AcDbEntity
67
0
8
0
62
256
6
ByLayer
370
-1
48
1.0
60
0
100
AcDbLine
10
176.486211396433
20
283.761203396938
30
0.0
11
174.669778690895
21
286.694066367688
31
0.0
39
0.0
210
0.0
220
0.0
230
1.0
0
LINE
5
184
330
70
100
AcDbEntity
67
0
8
0
62
256
6
ByLayer
370
-1
48
1.0
60
0
100
AcDbLine
10
174.669778690895
20
286.694066367688
30
0.0
11
172.88949687733
21
289.649340328405
31
0.0
39
0.0
210
0.0
220
0.0
230
1.0
0
LINE
5
185
330
70
100
AcDbEntity
67
0
8
0
62
256
6
ByLayer
370
-1
48
1.0
60
0
100
AcDbLine
10
172.88949687733
20
289.649340328405
30
0.0
11
171.146100827046
21
292.626392555092
31
0.0
39
0.0
210
0.0
220
0.0
230
1.0
0
LINE
5
186
330
70
100
AcDbEntity
67
0
8
0
62
256
6
ByLayer
370
-1
48
1.0
60
0
100
AcDbLine
10
171.146100827046
20
292.626392555092
30
0.0
11
169.440325411355
21
295.624590323752
31
0.0
39
0.0
210
0.0
220
0.0
230
1.0
0
LINE
5
187
330
70
100
AcDbEntity
67
0
8
0
62
256
6
ByLayer
370
-1
48
1.0
60
0
100
AcDbLine
10
169.440325411355
20
295.624590323752
30
0.0
11
167.772905501564
21
298.643300910387
31
0.0
39
0.0
210
0.0
220
0.0
230
1.0
0
LINE
5
188
330
70
100
AcDbEntity
67
0
8
0
62
256
6
ByLayer
370
-1
48
1.0
60
0
100
AcDbLine
10
167.772905501564
20
298.643300910387
30
0.0
11
166.144575968983
21
301.681891590999
31
0.0
39
0.0
210
0.0
220
0.0
230
1.0
0
LINE
5
189
330
70
100
AcDbEntity
67
0
8
0
62
256
6
ByLayer
370
-1
48
1.0
60
0
100
AcDbLine
10
166.144575968983
20
301.681891590999
30
0.0
11
164.556071684921
21
304.739729641591
31
0.0
39
0.0
210
0.0
220
0.0
230
1.0
0
LINE
5
18A
330
70
100
AcDbEntity
67
0
8
0
62
256
6
ByLayer
370
-1
48
1.0
60
0
100
AcDbLine
10
164.556071684921
20
304.739729641591
30
0.0
11
163.008127520689
21
307.816182338165
31
0.0
39
0.0
210
0.0
220
0.0
230
1.0
0
LINE
5
18B
330
70
100
AcDbEntity
67
0
8
0
62
256
6
ByLayer
370
-1
48
1.0
60
0
100
AcDbLine
10
163.008127520689
20
307.816182338165
30
0.0
11
161.501478347595
21
310.910616956725
31
0.0
39
0.0
210
0.0
220
0.0
230
1.0
0
LINE
5
18C
330
70
100
AcDbEntity
67
0
8
0
62
256
6
ByLayer
370
-1
48
1.0
60
0
100
AcDbLine
10
161.501478347595
20
310.910616956725
30
0.0
11
160.036859036948
21
314.022400773271
31
0.0
39
0.0
210
0.0
220
0.0
230
1.0
0
LINE
5
18D
330
70
100
AcDbEntity
67
0
8
0
62
256
6
ByLayer
370
-1
48
1.0
60
0
100
AcDbLine
10
160.036859036948
20
314.022400773271
30
0.0
11
158.615004460058
21
317.150901063808
31
0.0
39
0.0
210
0.0
220
0.0
230
1.0
0
LINE
5
18E
330
70
100
AcDbEntity
67
0
8
0
62
256
6
ByLayer
370
-1
48
1.0
60
0
100
AcDbLine
10
158.615004460058
20
317.150901063808
30
0.0
11
157.236649488235
21
320.295485104337
31
0.0
39
0.0
210
0.0
220
0.0
230
1.0
0
LINE
5
18F
330
70
100
AcDbEntity
67
0
8
0
62
256
6
ByLayer
370
-1
48
1.0
60
0
100
AcDbLine
10
157.236649488235
20
320.295485104337
30
0.0
11
155.902528992788
21
323.455520170862
31
0.0
39
0.0
210
0.0
220
0.0
230
1.0
0
LINE
5
190
330
70
100
AcDbEntity
67
0
8
0
62
256
6
ByLayer
370
-1
48
1.0
60
0
100
AcDbLine
10
155.902528992788
20
323.455520170862
30
0.0
11
154.613377845026
21
326.630373539383
31
0.0
39
0.0
210
0.0
220
0.0
230
1.0
0
LINE
5
191
330
70
100
AcDbEntity
67
0
8
0
62
256
6
ByLayer
370
-1
48
1.0
60
0
100
AcDbLine
10
154.613377845026
20
326.630373539383
30
0.0
11
153.369930916259
21
329.819412485905
31
0.0
39
0.0
210
0.0
220
0.0
230
1.0
0
LINE
5
192
330
70
100
AcDbEntity
67
0
8
0
62
256
6
ByLayer
370
-1
48
1.0
60
0
100
AcDbLine
10
153.369930916259
20
329.819412485905
30
0.0
11
152.172923077795
21
333.022004286429
31
0.0
39
0.0
210
0.0
220
0.0
230
1.0
0
LINE
5
193
330
70
100
AcDbEntity
67
0
8
0
62
256
6
ByLayer
370
-1
48
1.0
60
0
100
AcDbLine
10
152.172923077795
20
333.022004286429
30
0.0
11
151.023089200945
21
336.237516216958
31
0.0
39
0.0
210
0.0
220
0.0
230
1.0
0
LINE
5
194
330
70
100
AcDbEntity
67
0
8
0
62
256
6
ByLayer
370
-1
48
1.0
60
0
100
AcDbLine
10
151.023089200945
20
336.237516216958
30
0.0
11
149.921164157017
21
339.465315553495
31
0.0
39
0.0
210
0.0
220
0.0
230
1.0
0
LINE
5
195
330
70
100
AcDbEntity
67
0
8
0
62
256
6
ByLayer
370
-1
48
1.0
60
0
100
AcDbLine
10
149.921164157017
20
339.465315553495
30
0.0
11
148.868044198847
21
342.704543011036
31
0.0
39
0.0
210
0.0
220
0.0
230
1.0
0
LINE
5
196
330
70
100
AcDbEntity
67
0
8
0
62
256
6
ByLayer
370
-1
48
1.0
60
0
100
AcDbLine
10
148.868044198847
20
342.704543011036
30
0.0
11
147.864304621219
21
345.954174481833
31
0.0
39
0.0
210
0.0
220
0.0
230
1.0
0
LINE
5
197
330
70
100
AcDbEntity
67
0
8
0
62
256
6
ByLayer
370
-1
48
1.0
60
0
100
AcDbLine
10
147.864304621219
20
345.954174481833
30
0.0
11
146.910198342545
21
349.21333040359
31
0.0
39
0.0
210
0.0
220
0.0
230
1.0
0
LINE
5
198
330
70
100
AcDbEntity
67
0
8
0
62
256
6
ByLayer
370
-1
48
1.0
60
0
100
AcDbLine
10
146.910198342545
20
349.21333040359
30
0.0
11
146.005978281207
21
352.481131214034
31
0.0
39
0.0
210
0.0
220
0.0
230
1.0
0
LINE
5
199
330
70
100
AcDbEntity
67
0
8
0
62
256
6
ByLayer
370
-1
48
1.0
60
0
100
AcDbLine
10
146.005978281207
20
352.481131214034
30
0.0
11
145.151897355585
21
355.756697350895
31
0.0
39
0.0
210
0.0
220
0.0
230
1.0
0
LINE
5
19A
330
70
100
AcDbEntity
67
0
8
0
62
256
6
ByLayer
370
-1
48
1.0
60
0
100
AcDbLine
10
145.151897355585
20
355.756697350895
30
0.0
11
144.348208484061
21
359.0391492519
31
0.0
39
0.0
210
0.0
220
0.0
230
1.0
0
LINE
5
19B
330
70
100
AcDbEntity
67
0
8
0
62
256
6
ByLayer
370
-1
48
1.0
60
0
100
AcDbLine
10
144.348208484061
20
359.0391492519
30
0.0
11
143.595164585016
21
362.327607354775
31
0.0
39
0.0
210
0.0
220
0.0
230
1.0
0
LINE
5
19C
330
70
100
AcDbEntity
67
0
8
0
62
256
6
ByLayer
370
-1
48
1.0
60
0
100
AcDbLine
10
143.595164585016
20
362.327607354775
30
0.0
11
142.893018576832
21
365.62119209725
31
0.0
39
0.0
210
0.0
220
0.0
230
1.0
0
LINE
5
19D
330
70
100
AcDbEntity
67
0
8
0
62
256
6
ByLayer
370
-1
48
1.0
60
0
100
AcDbLine
10
142.893018576832
20
365.62119209725
30
0.0
11
142.24202337789
21
368.919023917052
31
0.0
39
0.0
210
0.0
220
0.0
230
1.0
0
LINE
5
19E
330
70
100
AcDbEntity
67
0
8
0
62
256
6
ByLayer
370
-1
48
1.0
60
0
100
AcDbLine
10
142.24202337789
20
368.919023917052
30
0.0
11
141.642431906572
21
372.220223251908
31
0.0
39
0.0
210
0.0
220
0.0
230
1.0
0
LINE
5
19F
330
70
100
AcDbEntity
67
0
8
0
62
256
6
ByLayer
370
-1
48
1.0
60
0
100
AcDbLine
10
141.642431906572
20
372.220223251908
30
0.0
11
141.094497081259
21
375.523910539547
31
0.0
39
0.0
210
0.0
220
0.0
230
1.0
0
LINE
5
1A0
330
70
100
AcDbEntity
67
0
8
0
62
256
6
ByLayer
370
-1
48
1.0
60
0
100
AcDbLine
10
141.094497081259
20
375.523910539547
30
0.0
11
140.598471820332
21
378.829206217697
31
0.0
39
0.0
210
0.0
220
0.0
230
1.0
0
LINE
5
1A1
330
70
100
AcDbEntity
67
0
8
0
62
256
6
ByLayer
370
-1
48
1.0
60
0
100
AcDbLine
10
140.598471820332
20
378.829206217697
30
0.0
11
140.154609042173
21
382.135230724085
31
0.0
39
0.0
210
0.0
220
0.0
230
1.0
0
LINE
5
1A2
330
70
100
AcDbEntity
67
0
8
0
62
256
6
ByLayer
370
-1
48
1.0
60
0
100
AcDbLine
10
140.154609042173
20
382.135230724085
30
0.0
11
139.763161665162
21
385.441104496438
31
0.0
39
0.0
210
0.0
220
0.0
230
1.0
0
LINE
5
1A3
330
70
100
AcDbEntity
67
0
8
0
62
256
6
ByLayer
370
-1
48
1.0
60
0
100
AcDbLine
10
139.763161665162
20
385.441104496438
30
0.0
11
139.424382607683
21
388.745947972486
31
0.0
39
0.0
210
0.0
220
0.0
230
1.0
0
LINE
5
1A4
330
70
100
AcDbEntity
67
0
8
0
62
256
6
ByLayer
370
-1
48
1.0
60
0
100
AcDbLine
10
139.424382607683
20
388.745947972486
30
0.0
11
139.138524788114
21
392.048881589954
31
0.0
39
0.0
210
0.0
220
0.0
230
1.0
0
LINE
5
1A5
330
70
100
AcDbEntity
67
0
8
0
62
256
6
ByLayer
370
-1
48
1.0
60
0
100
AcDbLine
10
139.138524788114
20
392.048881589954
30
0.0
11
138.905564647574
21
395.348065189221
31
0.0
39
0.0
210
0.0
220
0.0
230
1.0
0
LINE
5
1A6
330
70
100
AcDbEntity
67
0
8
0
62
256
6
ByLayer
370
-1
48
1.0
60
0
100
AcDbLine
10
138.905564647574
20
395.348065189221
30
0.0
11
138.724817612843
21
398.641414183993
31
0.0
39
0.0
210
0.0
220
0.0
230
1.0
0
LINE
5
1A7
330
70
100
AcDbEntity
67
0
8
0
62
256
6
ByLayer
370
-1
48
1.0
60
0
100
AcDbLine
10
138.724817612843
20
398.641414183993
30
0.0
11
138.596013706216
21
401.930228641524
31
0.0
39
0.0
210
0.0
220
0.0
230
1.0
0
LINE
5
1A8
330
70
100
AcDbEntity
67
0
8
0
62
256
6
ByLayer
370
-1
48
1.0
60
0
100
AcDbLine
10
138.596013706216
20
401.930228641524
30
0.0
11
138.518909716853
21
405.215945125598
31
0.0
39
0.0
210
0.0
220
0.0
230
1.0
0
LINE
5
1A9
330
70
100
AcDbEntity
67
0
8
0
62
256
6
ByLayer
370
-1
48
1.0
60
0
100
AcDbLine
10
138.518909716853
20
405.215945125598
30
0.0
11
138.493262433919
21
408.500000200001
31
0.0
39
0.0
210
0.0
220
0.0
230
1.0
0
LINE
5
1AA
330
70
100
AcDbEntity
67
0
8
0
62
256
6
ByLayer
370
-1
48
1.0
60
0
100
AcDbLine
10
138.493262433919
20
408.500000200001
30
0.0
11
138.518905177629
21
411.783860511807
31
0.0
39
0.0
210
0.0
220
0.0
230
1.0
0
LINE
5
1AB
330
70
100
AcDbEntity
67
0
8
0
62
256
6
ByLayer
370
-1
48
1.0
60
0
100
AcDbLine
10
138.518905177629
20
411.783860511807
30
0.0
11
138.596000585357
21
415.069209762686
31
0.0
39
0.0
210
0.0
220
0.0
230
1.0
0
LINE
5
1AC
330
70
100
AcDbEntity
67
0
8
0
62
256
6
ByLayer
370
-1
48
1.0
60
0
100
AcDbLine
10
138.596000585357
20
415.069209762686
30
0.0
11
138.724799421997
21
418.357808820108
31
0.0
39
0.0
210
0.0
220
0.0
230
1.0
0
LINE
5
1AD
330
70
100
AcDbEntity
67
0
8
0
62
256
6
ByLayer
370
-1
48
1.0
60
0
100
AcDbLine
10
138.724799421997
20
418.357808820108
30
0.0
11
138.905552452445
21
421.651418551547
31
0.0
39
0.0
210
0.0
220
0.0
230
1.0
0
LINE
5
1AE
330
70
100
AcDbEntity
67
0
8
0
62
256
6
ByLayer
370
-1
48
1.0
60
0
100
AcDbLine
10
138.905552452445
20
421.651418551547
30
0.0
11
139.138632640865
21
424.951090701935
31
0.0
39
0.0
210
0.0
220
0.0
230
1.0
0
LINE
5
1AF
330
70
100
AcDbEntity
67
0
8
0
62
256
6
ByLayer
370
-1
48
1.0
60
0
100
AcDbLine
10
139.138632640865
20
424.951090701935
30
0.0
11
139.424707398187
21
428.253971824564
31
0.0
39
0.0
210
0.0
220
0.0
230
1.0
0
LINE
5
1B0
330
70
100
AcDbEntity
67
0
8
0
62
256
6
ByLayer
370
-1
48
1.0
60
0
100
AcDbLine
10
139.424707398187
20
428.253971824564
30
0.0
11
139.76363401649
21
431.558779677611
31
0.0
39
0.0
210
0.0
220
0.0
230
1.0
0
LINE
5
1B1
330
70
100
AcDbEntity
67
0
8
0
62
256
6
ByLayer
370
-1
48
1.0
60
0
100
AcDbLine
10
139.76363401649
20
431.558779677611
30
0.0
11
140.15516805646
21
434.864632615464
31
0.0
39
0.0
210
0.0
220
0.0
230
1.0
0
LINE
5
1B2
330
70
100
AcDbEntity
67
0
8
0
62
256
6
ByLayer
370
-1
48
1.0
60
0
100
AcDbLine
10
140.15516805646
20
434.864632615464
30
0.0
11
140.599065078789
21
438.170648992509
31
0.0
39
0.0
210
0.0
220
0.0
230
1.0
0
LINE
5
1B3
330
70
100
AcDbEntity
67
0
8
0
62
256
6
ByLayer
370
-1
48
1.0
60
0
100
AcDbLine
10
140.599065078789
20
438.170648992509
30
0.0
11
141.095080644164
21
441.475947163135
31
0.0
39
0.0
210
0.0
220
0.0
230
1.0
0
LINE
5
1B4
330
70
100
AcDbEntity
67
0
8
0
62
256
6
ByLayer
370
-1
48
1.0
60
0
100
AcDbLine
10
141.095080644164
20
441.475947163135
30
0.0
11
141.642970313275
21
444.779645481727
31
0.0
39
0.0
210
0.0
220
0.0
230
1.0
0
LINE
5
1B5
330
70
100
AcDbEntity
67
0
8
0
62
256
6
ByLayer
370
-1
48
1.0
60
0
100
AcDbLine
10
141.642970313275
20
444.779645481727
30
0.0
11
142.242489646812
21
448.080862302675
31
0.0
39
0.0
210
0.0
220
0.0
230
1.0
0
LINE
5
1B6
330
70
100
AcDbEntity
67
0
8
0
62
256
6
ByLayer
370
-1
48
1.0
60
0
100
AcDbLine
10
142.242489646812
20
448.080862302675
30
0.0
11
142.893394205462
21
451.378715980363
31
0.0
39
0.0
210
0.0
220
0.0
230
1.0
0
LINE
5
1B7
330
70
100
AcDbEntity
67
0
8
0
62
256
6
ByLayer
370
-1
48
1.0
60
0
100
AcDbLine
10
142.893394205462
20
451.378715980363
30
0.0
11
143.595439549915
21
454.672324869181
31
0.0
39
0.0
210
0.0
220
0.0
230
1.0
0
LINE
5
1B8
330
70
100
AcDbEntity
67
0
8
0
62
256
6
ByLayer
370
-1
48
1.0
60
0
100
AcDbLine
10
143.595439549915
20
454.672324869181
30
0.0
11
144.34838124086
21
457.960807323516
31
0.0
39
0.0
210
0.0
220
0.0
230
1.0
0
LINE
5
1B9
330
70
100
AcDbEntity
67
0
8
0
62
256
6
ByLayer
370
-1
48
1.0
60
0
100
AcDbLine
10
144.34838124086
20
457.960807323516
30
0.0
11
145.151974838986
21
461.243281697754
31
0.0
39
0.0
210
0.0
220
0.0
230
1.0
0
LINE
5
1BA
330
70
100
AcDbEntity
67
0
8
0
62
256
6
ByLayer
370
-1
48
1.0
60
0
100
AcDbLine
10
145.151974838986
20
461.243281697754
30
0.0
11
146.005975904983
21
464.518866346282
31
0.0
39
0.0
210
0.0
220
0.0
230
1.0
0
LINE
5
1BB
330
70
100
AcDbEntity
67
0
8
0
62
256
6
ByLayer
370
-1
48
1.0
60
0
100
AcDbLine
10
146.005975904983
20
464.518866346282
30
0.0
11
146.910139999539
21
467.786679623488
31
0.0
39
0.0
210
0.0
220
0.0
230
1.0
0
LINE
5
1BC
330
70
100
AcDbEntity
67
0
8
0
62
256
6
ByLayer
370
-1
48
1.0
60
0
100
AcDbLine
10
146.910139999539
20
467.786679623488
30
0.0
11
147.864222683343
21
471.04583988376
31
0.0
39
0.0
210
0.0
220
0.0
230
1.0
0
LINE
5
1BD
330
70
100
AcDbEntity
67
0
8
0
62
256
6
ByLayer
370
-1
48
1.0
60
0
100
AcDbLine
10
147.864222683343
20
471.04583988376
30
0.0
11
148.867979517085
21
474.295465481485
31
0.0
39
0.0
210
0.0
220
0.0
230
1.0
0
LINE
5
1BE
330
70
100
AcDbEntity
67
0
8
0
62
256
6
ByLayer
370
-1
48
1.0
60
0
100
AcDbLine
10
148.867979517085
20
474.295465481485
30
0.0
11
149.921163392936
21
477.534672818362
31
0.0
39
0.0
210
0.0
220
0.0
230
1.0
0
LINE
5
1BF
330
70
100
AcDbEntity
67
0
8
0
62
256
6
ByLayer
370
-1
48
1.0
60
0
100
AcDbLine
10
149.921163392936
20
477.534672818362
30
0.0
11
151.02313158179
21
480.762412271584
31
0.0
39
0.0
210
0.0
220
0.0
230
1.0
0
LINE
5
1C0
330
70
100
AcDbEntity
67
0
8
0
62
256
6
ByLayer
370
-1
48
1.0
60
0
100
AcDbLine
10
151.02313158179
20
480.762412271584
30
0.0
11
152.173010987323
21
483.977869530122
31
0.0
39
0.0
210
0.0
220
0.0
230
1.0
0
LINE
5
1C1
330
70
100
AcDbEntity
67
0
8
0
62
256
6
ByLayer
370
-1
48
1.0
60
0
100
AcDbLine
10
152.173010987323
20
483.977869530122
30
0.0
11
153.370065413402
21
487.180412153694
31
0.0
39
0.0
210
0.0
220
0.0
230
1.0
0
LINE
5
1C2
330
70
100
AcDbEntity
67
0
8
0
62
256
6
ByLayer
370
-1
48
1.0
60
0
100
AcDbLine
10
153.370065413402
20
487.180412153694
30
0.0
11
154.613558663896
21
490.369407702017
31
0.0
39
0.0
210
0.0
220
0.0
230
1.0
0
LINE
5
1C3
330
70
100
AcDbEntity
67
0
8
0
62
256
6
ByLayer
370
-1
48
1.0
60
0
100
AcDbLine
10
154.613558663896
20
490.369407702017
30
0.0
11
155.902754542671
21
493.54422373481
31
0.0
39
0.0
210
0.0
220
0.0
230
1.0
0
LINE
5
1C4
330
70
100
AcDbEntity
67
0
8
0
62
256
6
ByLayer
370
-1
48
1.0
60
0
100
AcDbLine
10
155.902754542671
20
493.54422373481
30
0.0
11
157.236916853594
21
496.704227811793
31
0.0
39
0.0
210
0.0
220
0.0
230
1.0
0
LINE
5
1C5
330
70
100
AcDbEntity
67
0
8
0
62
256
6
ByLayer
370
-1
48
1.0
60
0
100
AcDbLine
10
157.236916853594
20
496.704227811793
30
0.0
11
158.615309400534
21
499.848787492681
31
0.0
39
0.0
210
0.0
220
0.0
230
1.0
0
LINE
5
1C6
330
70
100
AcDbEntity
67
0
8
0
62
256
6
ByLayer
370
-1
48
1.0
60
0
100
AcDbLine
10
158.615309400534
20
499.848787492681
30
0.0
11
160.037195987358
21
502.977270337195
31
0.0
39
0.0
210
0.0
220
0.0
230
1.0
0
LINE
5
1C7
330
70
100
AcDbEntity
67
0
8
0
62
256
6
ByLayer
370
-1
48
1.0
60
0
100
AcDbLine
10
160.037195987358
20
502.977270337195
30
0.0
11
161.501840417932
21
506.089043905051
31
0.0
39
0.0
210
0.0
220
0.0
230
1.0
0
LINE
5
1C8
330
70
100
AcDbEntity
67
0
8
0
62
256
6
ByLayer
370
-1
48
1.0
60
0
100
AcDbLine
10
161.501840417932
20
506.089043905051
30
0.0
11
163.008506496125
21
509.183475755969
31
0.0
39
0.0
210
0.0
220
0.0
230
1.0
0
LINE
5
1C9
330
70
100
AcDbEntity
67
0
8
0
62
256
6
ByLayer
370
-1
48
1.0
60
0
100
AcDbLine
10
163.008506496125
20
509.183475755969
30
0.0
11
164.556458025803
21
512.259933449667
31
0.0
39
0.0
210
0.0
220
0.0
230
1.0
0
LINE
5
1CA
330
70
100
AcDbEntity
67
0
8
0
62
256
6
ByLayer
370
-1
48
1.0
60
0
100
AcDbLine
10
164.556458025803
20
512.259933449667
30
0.0
11
166.144958810834
21
515.317784545863
31
0.0
39
0.0
210
0.0
220
0.0
230
1.0
0
LINE
5
1CB
330
70
100
AcDbEntity
67
0
8
0
62
256
6
ByLayer
370
-1
48
1.0
60
0
100
AcDbLine
10
166.144958810834
20
515.317784545863
30
0.0
11
167.773272655086
21
518.356396604275
31
0.0
39
0.0
210
0.0
220
0.0
230
1.0
0
LINE
5
1CC
330
70
100
AcDbEntity
67
0
8
0
62
256
6
ByLayer
370
-1
48
1.0
60
0
100
AcDbLine
10
167.773272655086
20
518.356396604275
30
0.0
11
169.440663362426
21
521.375137184622
31
0.0
39
0.0
210
0.0
220
0.0
230
1.0
0
LINE
5
1CD
330
70
100
AcDbEntity
67
0
8
0
62
256
6
ByLayer
370
-1
48
1.0
60
0
100
AcDbLine
10
169.440663362426
20
521.375137184622
30
0.0
11
171.146394736721
21
524.373373846622
31
0.0
39
0.0
210
0.0
220
0.0
230
1.0
0
LINE
5
1CE
330
70
100
AcDbEntity
67
0
8
0
62
256
6
ByLayer
370
-1
48
1.0
60
0
100
AcDbLine
10
171.146394736721
20
524.373373846622
30
0.0
11
172.889730581838
21
527.350474149992
31
0.0
39
0.0
210
0.0
220
0.0
230
1.0
0
LINE
5
1CF
330
70
100
AcDbEntity
67
0
8
0
62
256
6
ByLayer
370
-1
48
1.0
60
0
100
AcDbLine
10
172.889730581838
20
527.350474149992
30
0.0
11
174.669934701646
21
530.305805654452
31
0.0
39
0.0
210
0.0
220
0.0
230
1.0
0
LINE
5
1D0
330
70
100
AcDbEntity
67
0
8
0
62
256
6
ByLayer
370
-1
48
1.0
60
0
100
AcDbLine
10
174.669934701646
20
530.305805654452
30
0.0
11
176.486270900011
21
533.238735919719
31
0.0
39
0.0
210
0.0
220
0.0
230
1.0
0
LINE
5
1D1
330
70
100
AcDbEntity
67
0
8
0
62
256
6
ByLayer
370
-1
48
1.0
60
0
100
AcDbLine
10
176.486270900011
20
533.238735919719
30
0.0
11
178.337993574806
21
536.148635884766
31
0.0
39
0.0
210
0.0
220
0.0
230
1.0
0
LINE
5
1D2
330
70
100
AcDbEntity
67
0
8
0
62
256
6
ByLayer
370
-1
48
1.0
60
0
100
AcDbLine
10
178.337993574806
20
536.148635884766
30
0.0
11
180.224096166516
21
539.034982989881
31
0.0
39
0.0
210
0.0
220
0.0
230
1.0
0
LINE
5
1D3
330
70
100
AcDbEntity
67
0
8
0
62
256
6
ByLayer
370
-1
48
1.0
60
0
100
AcDbLine
10
180.224096166516
20
539.034982989881
30
0.0
11
182.1435747521
21
541.897285860742
31
0.0
39
0.0
210
0.0
220
0.0
230
1.0
0
LINE
5
1D4
330
70
100
AcDbEntity
67
0
8
0
62
256
6
ByLayer
370
-1
48
1.0
60
0
100
AcDbLine
10
182.1435747521
20
541.897285860742
30
0.0
11
184.09549988313
21
544.735031129879
31
0.0
39
0.0
210
0.0
220
0.0
230
1.0
0
LINE
5
1D5
330
70
100
AcDbEntity
67
0
8
0
62
256
6
ByLayer
370
-1
48
1.0
60
0
100
AcDbLine
10
184.09549988313
20
544.735031129879
30
0.0
11
186.078942111178
21
547.547705429824
31
0.0
39
0.0
210
0.0
220
0.0
230
1.0
0
LINE
5
1D6
330
70
100
AcDbEntity
67
0
8
0
62
256
6
ByLayer
370
-1
48
1.0
60
0
100
AcDbLine
10
186.078942111178
20
547.547705429824
30
0.0
11
188.092971987814
21
550.334795393107
31
0.0
39
0.0
210
0.0
220
0.0
230
1.0
0
LINE
5
1D7
330
70
100
AcDbEntity
67
0
8
0
62
256
6
ByLayer
370
-1
48
1.0
60
0
100
AcDbLine
10
188.092971987814
20
550.334795393107
30
0.0
11
190.13666006461
21
553.09578765226
31
0.0
39
0.0
210
0.0
220
0.0
230
1.0
0
LINE
5
1D8
330
70
100
AcDbEntity
67
0
8
0
62
256
6
ByLayer
370
-1
48
1.0
60
0
100
AcDbLine
10
190.13666006461
20
553.09578765226
30
0.0
11
192.209076893138
21
555.830168839813
31
0.0
39
0.0
210
0.0
220
0.0
230
1.0
0
LINE
5
1D9
330
70
100
AcDbEntity
67
0
8
0
62
256
6
ByLayer
370
-1
48
1.0
60
0
100
AcDbLine
10
192.209076893138
20
555.830168839813
30
0.0
11
194.30929302497
21
558.537425588297
31
0.0
39
0.0
210
0.0
220
0.0
230
1.0
0
LINE
5
1DA
330
70
100
AcDbEntity
67
0
8
0
62
256
6
ByLayer
370
-1
48
1.0
60
0
100
AcDbLine
10
194.30929302497
20
558.537425588297
30
0.0
11
196.436379011676
21
561.217044530243
31
0.0
39
0.0
210
0.0
220
0.0
230
1.0
0
LINE
5
1DB
330
70
100
AcDbEntity
67
0
8
0
62
256
6
ByLayer
370
-1
48
1.0
60
0
100
AcDbLine
10
196.436379011676
20
561.217044530243
30
0.0
11
198.589405404828
21
563.868512298182
31
0.0
39
0.0
210
0.0
220
0.0
230
1.0
0
LINE
5
1DC
330
70
100
AcDbEntity
67
0
8
0
62
256
6
ByLayer
370
-1
48
1.0
60
0
100
AcDbLine
10
198.589405404828
20
563.868512298182
30
0.0
11
200.767442755997
21
566.491315524645
31
0.0
39
0.0
210
0.0
220
0.0
230
1.0
0
LINE
5
1DD
330
70
100
AcDbEntity
67
0
8
0
62
256
6
ByLayer
370
-1
48
1.0
60
0
100
AcDbLine
10
200.767442755997
20
566.491315524645
30
0.0
11
202.969561616756
21
569.084940842162
31
0.0
39
0.0
210
0.0
220
0.0
230
1.0
0
LINE
5
1DE
330
70
100
AcDbEntity
67
0
8
0
62
256
6
ByLayer
370
-1
48
1.0
60
0
100
AcDbLine
10
202.969561616756
20
569.084940842162
30
0.0
11
205.194832538676
21
571.648874883265
31
0.0
39
0.0
210
0.0
220
0.0
230
1.0
0
LINE
5
1DF
330
70
100
AcDbEntity
67
0
8
0
62
256
6
ByLayer
370
-1
48
1.0
60
0
100
AcDbLine
10
205.194832538676
20
571.648874883265
30
0.0
11
207.442306134755
21
574.182620637877
31
0.0
39
0.0
210
0.0
220
0.0
230
1.0
0
LINE
5
1E0
330
70
100
AcDbEntity
67
0
8
0
62
256
6
ByLayer
370
-1
48
1.0
60
0
100
AcDbLine
10
207.442306134755
20
574.182620637877
30
0.0
11
209.7109503338
21
576.685765638241
31
0.0
39
0.0
210
0.0
220
0.0
230
1.0
0
LINE
5
1E1
330
70
100
AcDbEntity
67
0
8
0
62
256
6
ByLayer
370
-1
48
1.0
60
0
100
AcDbLine
10
209.7109503338
20
576.685765638241
30
0.0
11
211.999733871649
21
579.157913270511
31
0.0
39
0.0
210
0.0
220
0.0
230
1.0
0
LINE
5
1E2
330
70
100
AcDbEntity
67
0
8
0
62
256
6
ByLayer
370
-1
48
1.0
60
0
100
AcDbLine
10
211.999733871649
20
579.157913270511
30
0.0
11
214.307627066298
21
581.598666043267
31
0.0
39
0.0
210
0.0
220
0.0
230
1.0
0
LINE
5
1E3
330
70
100
AcDbEntity
67
0
8
0
62
256
6
ByLayer
370
-1
48
1.0
60
0
100
AcDbLine
10
214.307627066298
20
581.598666043267
30
0.0
11
216.633600235741
21
584.007626465089
31
0.0
39
0.0
210
0.0
220
0.0
230
1.0
0
LINE
5
1E4
330
70
100
AcDbEntity
67
0
8
0
62
256
6
ByLayer
370
-1
48
1.0
60
0
100
AcDbLine
10
216.633600235741
20
584.007626465089
30
0.0
11
218.976623697975
21
586.384397044558
31
0.0
39
0.0
210
0.0
220
0.0
230
1.0
0
LINE
5
1E5
330
70
100
AcDbEntity
67
0
8
0
62
256
6
ByLayer
370
-1
48
1.0
60
0
100
AcDbLine
10
218.976623697975
20
586.384397044558
30
0.0
11
221.335667770995
21
588.728580290253
31
0.0
39
0.0
210
0.0
220
0.0
230
1.0
0
LINE
5
1E6
330
70
100
AcDbEntity
67
0
8
0
62
256
6
ByLayer
370
-1
48
1.0
60
0
100
AcDbLine
10
221.335667770995
20
588.728580290253
30
0.0
11
223.709702772797
21
591.039778710756
31
0.0
39
0.0
210
0.0
220
0.0
230
1.0
0
LINE
5
1E7
330
70
100
AcDbEntity
67
0
8
0
62
256
6
ByLayer
370
-1
48
1.0
60
0
100
AcDbLine
10
223.709702772797
20
591.039778710756
30
0.0
11
226.097699021375
21
593.317594814646
31
0.0
39
0.0
210
0.0
220
0.0
230
1.0
0
LINE
5
1E8
330
70
100
AcDbEntity
67
0
8
0
62
256
6
ByLayer
370
-1
48
1.0
60
0
100
AcDbLine
10
226.097699021375
20
593.317594814646
30
0.0
11
228.498626834727
21
595.561631110505
31
0.0
39
0.0
210
0.0
220
0.0
230
1.0
0
LINE
5
1E9
330
70
100
AcDbEntity
67
0
8
0
62
256
6
ByLayer
370
-1
48
1.0
60
0
100
AcDbLine
10
228.498626834727
20
595.561631110505
30
0.0
11
230.912751797393
21
597.772762450458
31
0.0
39
0.0
210
0.0
220
0.0
230
1.0
0
LINE
5
1EA
330
70
100
AcDbEntity
67
0
8
0
62
256
6
ByLayer
370
-1
48
1.0
60
0
100
AcDbLine
10
230.912751797393
20
597.772762450458
30
0.0
11
233.347149032018
21
599.957968736207
31
0.0
39
0.0
210
0.0
220
0.0
230
1.0
0
LINE
5
1EB
330
70
100
AcDbEntity
67
0
8
0
62
256
6
ByLayer
370
-1
48
1.0
60
0
100
AcDbLine
10
233.347149032018
20
599.957968736207
30
0.0
11
235.807072555295
21
602.121664978115
31
0.0
39
0.0
210
0.0
220
0.0
230
1.0
0
LINE
5
1EC
330
70
100
AcDbEntity
67
0
8
0
62
256
6
ByLayer
370
-1
48
1.0
60
0
100
AcDbLine
10
235.807072555295
20
602.121664978115
30
0.0
11
238.297274324524
21
604.267732122672
31
0.0
39
0.0
210
0.0
220
0.0
230
1.0
0
LINE
5
1ED
330
70
100
AcDbEntity
67
0
8
0
62
256
6
ByLayer
370
-1
48
1.0
60
0
100
AcDbLine
10
238.297274324524
20
604.267732122672
30
0.0
11
240.821830935959
21
606.399355477238
31
0.0
39
0.0
210
0.0
220
0.0
230
1.0
0
LINE
5
1EE
330
70
100
AcDbEntity
67
0
8
0
62
256
6
ByLayer
370
-1
48
1.0
60
0
100
AcDbLine
10
240.821830935959
20
606.399355477238
30
0.0
11
243.378439059343
21
608.513443525638
31
0.0
39
0.0
210
0.0
220
0.0
230
1.0
0
LINE
5
1EF
330
70
100
AcDbEntity
67
0
8
0
62
256
6
ByLayer
370
-1
48
1.0
60
0
100
AcDbLine
10
243.378439059343
20
608.513443525638
30
0.0
11
245.965677159488
21
610.60832615917
31
0.0
39
0.0
210
0.0
220
0.0
230
1.0
0
LINE
5
1F0
330
70
100
AcDbEntity
67
0
8
0
62
256
6
ByLayer
370
-1
48
1.0
60
0
100
AcDbLine
10
245.965677159488
20
610.60832615917
30
0.0
11
248.58293537176
21
612.683213816088
31
0.0
39
0.0
210
0.0
220
0.0
230
1.0
0
LINE
5
1F1
330
70
100
AcDbEntity
67
0
8
0
62
256
6
ByLayer
370
-1
48
1.0
60
0
100
AcDbLine
10
248.58293537176
20
612.683213816088
30
0.0
11
251.229603831521
21
614.737316934648
31
0.0
39
0.0
210
0.0
220
0.0
230
1.0
0
LINE
5
1F2
330
70
100
AcDbEntity
67
0
8
0
62
256
6
ByLayer
370
-1
48
1.0
60
0
100
AcDbLine
10
251.229603831521
20
614.737316934648
30
0.0
11
253.905072674135
21
616.769845953102
31
0.0
39
0.0
210
0.0
220
0.0
230
1.0
0
LINE
5
1F3
330
70
100
AcDbEntity
67
0
8
0
62
256
6
ByLayer
370
-1
48
1.0
60
0
100
AcDbLine
10
253.905072674135
20
616.769845953102
30
0.0
11
256.608732034968
21
618.780011309705
31
0.0
39
0.0
210
0.0
220
0.0
230
1.0
0
LINE
5
1F4
330
70
100
AcDbEntity
67
0
8
0
62
256
6
ByLayer
370
-1
48
1.0
60
0
100
AcDbLine
10
256.608732034968
20
618.780011309705
30
0.0
11
259.339972049383
21
620.767023442711
31
0.0
39
0.0
210
0.0
220
0.0
230
1.0
0
LINE
5
1F5
330
70
100
AcDbEntity
67
0
8
0
62
256
6
ByLayer
370
-1
48
1.0
60
0
100
AcDbLine
10
259.339972049383
20
620.767023442711
30
0.0
11
262.098182852745
21
622.730092790375
31
0.0
39
0.0
210
0.0
220
0.0
230
1.0
0
LINE
5
1F6
330
70
100
AcDbEntity
67
0
8
0
62
256
6
ByLayer
370
-1
48
1.0
60
0
100
AcDbLine
10
262.098182852745
20
622.730092790375
30
0.0
11
264.882754580416
21
624.66842979095
31
0.0
39
0.0
210
0.0
220
0.0
230
1.0
0
LINE
5
1F7
330
70
100
AcDbEntity
67
0
8
0
62
256
6
ByLayer
370
-1
48
1.0
60
0
100
AcDbLine
10
264.882754580416
20
624.66842979095
30
0.0
11
267.693077367762
21
626.58124488269
31
0.0
39
0.0
210
0.0
220
0.0
230
1.0
0
LINE
5
1F8
330
70
100
AcDbEntity
67
0
8
0
62
256
6
ByLayer
370
-1
48
1.0
60
0
100
AcDbLine
10
267.693077367762
20
626.58124488269
30
0.0
11
270.528541350146
21
628.46774850385
31
0.0
39
0.0
210
0.0
220
0.0
230
1.0
0
LINE
5
1F9
330
70
100
AcDbEntity
67
0
8
0
62
256
6
ByLayer
370
-1
48
1.0
60
0
100
AcDbLine
10
270.528541350146
20
628.46774850385
30
0.0
11
273.388536662933
21
630.327151092683
31
0.0
39
0.0
210
0.0
220
0.0
230
1.0
0
LINE
5
1FA
330
70
100
AcDbEntity
67
0
8
0
62
256
6
ByLayer
370
-1
48
1.0
60
0
100
AcDbLine
10
273.388536662933
20
630.327151092683
30
0.0
11
276.272453441486
21
632.158663087445
31
0.0
39
0.0
210
0.0
220
0.0
230
1.0
0
LINE
5
1FB
330
70
100
AcDbEntity
67
0
8
0
62
256
6
ByLayer
370
-1
48
1.0
60
0
100
AcDbLine
10
276.272453441486
20
632.158663087445
30
0.0
11
279.17968182117
21
633.961494926388
31
0.0
39
0.0
210
0.0
220
0.0
230
1.0
0
LINE
5
1FC
330
70
100
AcDbEntity
67
0
8
0
62
256
6
ByLayer
370
-1
48
1.0
60
0
100
AcDbLine
10
279.17968182117
20
633.961494926388
30
0.0
11
282.109611937349
21
635.734857047767
31
0.0
39
0.0
210
0.0
220
0.0
230
1.0
0
LINE
5
1FD
330
70
100
AcDbEntity
67
0
8
0
62
256
6
ByLayer
370
-1
48
1.0
60
0
100
AcDbLine
10
282.109611937349
20
635.734857047767
30
0.0
11
285.061633925386
21
637.477959889836
31
0.0
39
0.0
210
0.0
220
0.0
230
1.0
0
LINE
5
1FE
330
70
100
AcDbEntity
67
0
8
0
62
256
6
ByLayer
370
-1
48
1.0
60
0
100
AcDbLine
10
285.061633925386
20
637.477959889836
30
0.0
11
288.035137920647
21
639.19001389085
31
0.0
39
0.0
210
0.0
220
0.0
230
1.0
0
LINE
5
1FF
330
70
100
AcDbEntity
67
0
8
0
62
256
6
ByLayer
370
-1
48
1.0
60
0
100
AcDbLine
10
288.035137920647
20
639.19001389085
30
0.0
11
291.029514058494
21
640.870229489062
31
0.0
39
0.0
210
0.0
220
0.0
230
1.0
0
LINE
5
200
330
70
100
AcDbEntity
67
0
8
0
62
256
6
ByLayer
370
-1
48
1.0
60
0
100
AcDbLine
10
291.029514058494
20
640.870229489062
30
0.0
11
294.044152474292
21
642.517817122727
31
0.0
39
0.0
210
0.0
220
0.0
230
1.0
0
LINE
5
201
330
70
100
AcDbEntity
67
0
8
0
62
256
6
ByLayer
370
-1
48
1.0
60
0
100
AcDbLine
10
294.044152474292
20
642.517817122727
30
0.0
11
297.078438285336
21
644.131986955679
31
0.0
39
0.0
210
0.0
220
0.0
230
1.0
0
LINE
5
202
330
70
100
AcDbEntity
67
0
8
0
62
256
6
ByLayer
370
-1
48
1.0
60
0
100
AcDbLine
10
297.078438285336
20
644.131986955679
30
0.0
11
300.13164987426
21
645.712046380867
31
0.0
39
0.0
210
0.0
220
0.0
230
1.0
0
LINE
5
203
330
70
100
AcDbEntity
67
0
8
0
62
256
6
ByLayer
370
-1
48
1.0
60
0
100
AcDbLine
10
300.13164987426
20
645.712046380867
30
0.0
11
303.203106385459
21
647.257556017743
31
0.0
39
0.0
210
0.0
220
0.0
230
1.0
0
LINE
5
204
330
70
100
AcDbEntity
67
0
8
0
62
256
6
ByLayer
370
-1
48
1.0
60
0
100
AcDbLine
10
303.203106385459
20
647.257556017743
30
0.0
11
306.292164660363
21
648.768114128867
31
0.0
39
0.0
210
0.0
220
0.0
230
1.0
0
LINE
5
205
330
70
100
AcDbEntity
67
0
8
0
62
256
6
ByLayer
370
-1
48
1.0
60
0
100
AcDbLine
10
306.292164660363
20
648.768114128867
30
0.0
11
309.398181540401
21
650.2433189768
31
0.0
39
0.0
210
0.0
220
0.0
230
1.0
0
LINE
5
206
330
70
100
AcDbEntity
67
0
8
0
62
256
6
ByLayer
370
-1
48
1.0
60
0
100
AcDbLine
10
309.398181540401
20
650.2433189768
30
0.0
11
312.520513867003
21
651.682768824103
31
0.0
39
0.0
210
0.0
220
0.0
230
1.0
0
LINE
5
207
330
70
100
AcDbEntity
67
0
8
0
62
256
6
ByLayer
370
-1
48
1.0
60
0
100
AcDbLine
10
312.520513867003
20
651.682768824103
30
0.0
11
315.658518481598
21
653.086061933336
31
0.0
39
0.0
210
0.0
220
0.0
230
1.0
0
LINE
5
208
330
70
100
AcDbEntity
67
0
8
0
62
256
6
ByLayer
370
-1
48
1.0
60
0
100
AcDbLine
10
315.658518481598
20
653.086061933336
30
0.0
11
318.811552225616
21
654.452796567061
31
0.0
39
0.0
210
0.0
220
0.0
230
1.0
0
LINE
5
209
330
70
100
AcDbEntity
67
0
8
0
62
256
6
ByLayer
370
-1
48
1.0
60
0
100
AcDbLine
10
318.811552225616
20
654.452796567061
30
0.0
11
321.978971940486
21
655.782570987838
31
0.0
39
0.0
210
0.0
220
0.0
230
1.0
0
LINE
5
20A
330
70
100
AcDbEntity
67
0
8
0
62
256
6
ByLayer
370
-1
48
1.0
60
0
100
AcDbLine
10
321.978971940486
20
655.782570987838
30
0.0
11
325.160134467638
21
657.074983458229
31
0.0
39
0.0
210
0.0
220
0.0
230
1.0
0
LINE
5
20B
330
70
100
AcDbEntity
67
0
8
0
62
256
6
ByLayer
370
-1
48
1.0
60
0
100
AcDbLine
10
325.160134467638
20
657.074983458229
30
0.0
11
328.354396648502
21
658.329632240794
31
0.0
39
0.0
210
0.0
220
0.0
230
1.0
0
LINE
5
20C
330
70
100
AcDbEntity
67
0
8
0
62
256
6
ByLayer
370
-1
48
1.0
60
0
100
AcDbLine
10
328.354396648502
20
658.329632240794
30
0.0
11
331.561115324506
21
659.546115598093
31
0.0
39
0.0
210
0.0
220
0.0
230
1.0
0
LINE
5
20D
330
70
100
AcDbEntity
67
0
8
0
62
256
6
ByLayer
370
-1
48
1.0
60
0
100
AcDbLine
10
331.561115324506
20
659.546115598093
30
0.0
11
334.77964733708
21
660.724031792689
31
0.0
39
0.0
210
0.0
220
0.0
230
1.0
0
LINE
5
20E
330
70
100
AcDbEntity
67
0
8
0
62
256
6
ByLayer
370
-1
48
1.0
60
0
100
AcDbLine
10
334.77964733708
20
660.724031792689
30
0.0
11
338.009349527654
21
661.862979087142
31
0.0
39
0.0
210
0.0
220
0.0
230
1.0
0
LINE
5
20F
330
70
100
AcDbEntity
67
0
8
0
62
256
6
ByLayer
370
-1
48
1.0
60
0
100
AcDbLine
10
338.009349527654
20
661.862979087142
30
0.0
11
341.249578737657
21
662.962555744012
31
0.0
39
0.0
210
0.0
220
0.0
230
1.0
0
LINE
5
210
330
70
100
AcDbEntity
67
0
8
0
62
256
6
ByLayer
370
-1
48
1.0
60
0
100
AcDbLine
10
341.249578737657
20
662.962555744012
30
0.0
11
344.499691808519
21
664.022360025861
31
0.0
39
0.0
210
0.0
220
0.0
230
1.0
0
LINE
5
211
330
70
100
AcDbEntity
67
0
8
0
62
256
6
ByLayer
370
-1
48
1.0
60
0
100
AcDbLine
10
344.499691808519
20
664.022360025861
30
0.0
11
347.759045581669
21
665.041990195249
31
0.0
39
0.0
210
0.0
220
0.0
230
1.0
0
LINE
5
212
330
70
100
AcDbEntity
67
0
8
0
62
256
6
ByLayer
370
-1
48
1.0
60
0
100
AcDbLine
10
347.759045581669
20
665.041990195249
30
0.0
11
351.026996898537
21
666.021044514737
31
0.0
39
0.0
210
0.0
220
0.0
230
1.0
0
LINE
5
213
330
70
100
AcDbEntity
67
0
8
0
62
256
6
ByLayer
370
-1
48
1.0
60
0
100
AcDbLine
10
351.026996898537
20
666.021044514737
30
0.0
11
354.302902600552
21
666.959121246887
31
0.0
39
0.0
210
0.0
220
0.0
230
1.0
0
LINE
5
214
330
70
100
AcDbEntity
67
0
8
0
62
256
6
ByLayer
370
-1
48
1.0
60
0
100
AcDbLine
10
354.302902600552
20
666.959121246887
30
0.0
11
357.586119529143
21
667.855818654258
31
0.0
39
0.0
210
0.0
220
0.0
230
1.0
0
LINE
5
215
330
70
100
AcDbEntity
67
0
8
0
62
256
6
ByLayer
370
-1
48
1.0
60
0
100
AcDbLine
10
357.586119529143
20
667.855818654258
30
0.0
11
360.875977947197
21
668.710752224207
31
0.0
39
0.0
210
0.0
220
0.0
230
1.0
0
LINE
5
216
330
70
100
AcDbEntity
67
0
8
0
62
256
6
ByLayer
370
-1
48
1.0
60
0
100
AcDbLine
10
360.875977947197
20
668.710752224207
30
0.0
11
364.171509544454
21
669.523818788432
31
0.0
39
0.0
210
0.0
220
0.0
230
1.0
0
LINE
5
217
330
70
100
AcDbEntity
67
0
8
0
62
256
6
ByLayer
370
-1
48
1.0
60
0
100
AcDbLine
10
364.171509544454
20
669.523818788432
30
0.0
11
367.471876531474
21
670.295005302502
31
0.0
39
0.0
210
0.0
220
0.0
230
1.0
0
LINE
5
218
330
70
100
AcDbEntity
67
0
8
0
62
256
6
ByLayer
370
-1
48
1.0
60
0
100
AcDbLine
10
367.471876531474
20
670.295005302502
30
0.0
11
370.776310494155
21
671.024272420322
31
0.0
39
0.0
210
0.0
220
0.0
230
1.0
0
LINE
5
219
330
70
100
AcDbEntity
67
0
8
0
62
256
6
ByLayer
370
-1
48
1.0
60
0
100
AcDbLine
10
370.776310494155
20
671.024272420322
30
0.0
11
374.084043018399
21
671.711580795793
31
0.0
39
0.0
210
0.0
220
0.0
230
1.0
0
LINE
5
21A
330
70
100
AcDbEntity
67
0
8
0
62
256
6
ByLayer
370
-1
48
1.0
60
0
100
AcDbLine
10
374.084043018399
20
671.711580795793
30
0.0
11
377.394305690105
21
672.356891082818
31
0.0
39
0.0
210
0.0
220
0.0
230
1.0
0
LINE
5
21B
330
70
100
AcDbEntity
67
0
8
0
62
256
6
ByLayer
370
-1
48
1.0
60
0
100
AcDbLine
10
377.394305690105
20
672.356891082818
30
0.0
11
380.706330095174
21
672.9601639353
31
0.0
39
0.0
210
0.0
220
0.0
230
1.0
0
LINE
5
21C
330
70
100
AcDbEntity
67
0
8
0
62
256
6
ByLayer
370
-1
48
1.0
60
0
100
AcDbLine
10
380.706330095174
20
672.9601639353
30
0.0
11
384.019347819506
21
673.521360007141
31
0.0
39
0.0
210
0.0
220
0.0
230
1.0
0
LINE
5
21D
330
70
100
AcDbEntity
67
0
8
0
62
256
6
ByLayer
370
-1
48
1.0
60
0
100
AcDbLine
10
384.019347819506
20
673.521360007141
30
0.0
11
387.332590449002
21
674.040439952244
31
0.0
39
0.0
210
0.0
220
0.0
230
1.0
0
LINE
5
21E
330
70
100
AcDbEntity
67
0
8
0
62
256
6
ByLayer
370
-1
48
1.0
60
0
100
AcDbLine
10
387.332590449002
20
674.040439952244
30
0.0
11
390.645289569562
21
674.517364424511
31
0.0
39
0.0
210
0.0
220
0.0
230
1.0
0
LINE
5
21F
330
70
100
AcDbEntity
67
0
8
0
62
256
6
ByLayer
370
-1
48
1.0
60
0
100
AcDbLine
10
390.645289569562
20
674.517364424511
30
0.0
11
393.956676767086
21
674.952094077845
31
0.0
39
0.0
210
0.0
220
0.0
230
1.0
0
LINE
5
220
330
70
100
AcDbEntity
67
0
8
0
62
256
6
ByLayer
370
-1
48
1.0
60
0
100
AcDbLine
10
393.956676767086
20
674.952094077845
30
0.0
11
397.265983627476
21
675.34458956615
31
0.0
39
0.0
210
0.0
220
0.0
230
1.0
0
LINE
5
221
330
70
100
AcDbEntity
67
0
8
0
62
256
6
ByLayer
370
-1
48
1.0
60
0
100
AcDbLine
10
397.265983627476
20
675.34458956615
30
0.0
11
400.57244173663
21
675.694811543326
31
0.0
39
0.0
210
0.0
220
0.0
230
1.0
0
LINE
5
222
330
70
100
AcDbEntity
67
0
8
0
62
256
6
ByLayer
370
-1
48
1.0
60
0
100
AcDbLine
10
400.57244173663
20
675.694811543326
30
0.0
11
403.875252118916
21
676.002822876085
31
0.0
39
0.0
210
0.0
220
0.0
230
1.0
0
LINE
5
223
330
70
100
AcDbEntity
67
0
8
0
62
256
6
ByLayer
370
-1
48
1.0
60
0
100
AcDbLine
10
403.875252118916
20
676.002822876085
30
0.0
11
407.173556045611
21
676.268935698334
31
0.0
39
0.0
210
0.0
220
0.0
230
1.0
0
LINE
5
224
330
70
100
AcDbEntity
67
0
8
0
62
256
6
ByLayer
370
-1
48
1.0
60
0
100
AcDbLine
10
407.173556045611
20
676.268935698334
30
0.0
11
410.466522970532
21
676.493406161175
31
0.0
39
0.0
210
0.0
220
0.0
230
1.0
0
LINE
5
225
330
70
100
AcDbEntity
67
0
8
0
62
256
6
ByLayer
370
-1
48
1.0
60
0
100
AcDbLine
10
410.466522970532
20
676.493406161175
30
0.0
11
413.753323267691
21
676.676487739469
31
0.0
39
0.0
210
0.0
220
0.0
230
1.0
0
LINE
5
226
330
70
100
AcDbEntity
67
0
8
0
62
256
6
ByLayer
370
-1
48
1.0
60
0
100
AcDbLine
10
413.753323267691
20
676.676487739469
30
0.0
11
417.033127311098
21
676.818433908078
31
0.0
39
0.0
210
0.0
220
0.0
230
1.0
0
LINE
5
227
330
70
100
AcDbEntity
67
0
8
0
62
256
6
ByLayer
370
-1
48
1.0
60
0
100
AcDbLine
10
417.033127311098
20
676.818433908078
30
0.0
11
420.305105474766
21
676.919498141863
31
0.0
39
0.0
210
0.0
220
0.0
230
1.0
0
LINE
5
228
330
70
100
AcDbEntity
67
0
8
0
62
256
6
ByLayer
370
-1
48
1.0
60
0
100
AcDbLine
10
420.305105474766
20
676.919498141863
30
0.0
11
423.568428132704
21
676.979933915685
31
0.0
39
0.0
210
0.0
220
0.0
230
1.0
0
LINE
5
229
330
70
100
AcDbEntity
67
0
8
0
62
256
6
ByLayer
370
-1
48
1.0
60
0
100
AcDbLine
10
423.568428132704
20
676.979933915685
30
0.0
11
426.822847899222
21
677.000001560662
31
0.0
39
0.0
210
0.0
220
0.0
230
1.0
0
LINE
5
22A
330
70
100
AcDbEntity
67
0
8
0
62
256
6
ByLayer
370
-1
48
1.0
60
0
100
AcDbLine
10
426.822990140143
20
677.000001560796
30
0.0
11
430.079729091023
21
676.979945958574
31
0.0
39
0.0
210
0.0
220
0.0
230
1.0
0
LINE
5
22B
330
70
100
AcDbEntity
67
0
8
0
62
256
6
ByLayer
370
-1
48
1.0
60
0
100
AcDbLine
10
430.079729091023
20
676.979945958574
30
0.0
11
433.343481681744
21
676.919577650054
31
0.0
39
0.0
210
0.0
220
0.0
230
1.0
0
LINE
5
22C
330
70
100
AcDbEntity
67
0
8
0
62
256
6
ByLayer
370
-1
48
1.0
60
0
100
AcDbLine
10
433.343481681744
20
676.919577650054
30
0.0
11
436.614394668274
21
676.8186009326
31
0.0
39
0.0
210
0.0
220
0.0
230
1.0
0
LINE
5
22D
330
70
100
AcDbEntity
67
0
8
0
62
256
6
ByLayer
370
-1
48
1.0
60
0
100
AcDbLine
10
436.614394668274
20
676.8186009326
30
0.0
11
439.892614806578
21
676.676720103576
31
0.0
39
0.0
210
0.0
220
0.0
230
1.0
0
LINE
5
22E
330
70
100
AcDbEntity
67
0
8
0
62
256
6
ByLayer
370
-1
48
1.0
60
0
100
AcDbLine
10
439.892614806578
20
676.676720103576
30
0.0
11
443.178288852625
21
676.493639460345
31
0.0
39
0.0
210
0.0
220
0.0
230
1.0
0
LINE
5
22F
330
70
100
AcDbEntity
67
0
8
0
62
256
6
ByLayer
370
-1
48
1.0
60
0
100
AcDbLine
10
443.178288852625
20
676.493639460345
30
0.0
11
446.471109208566
21
676.268919823294
31
0.0
39
0.0
210
0.0
220
0.0
230
1.0
0
LINE
5
230
330
70
100
AcDbEntity
67
0
8
0
62
256
6
ByLayer
370
-1
48
1.0
60
0
100
AcDbLine
10
446.471109208566
20
676.268919823294
30
0.0
11
449.769240962338
21
676.001931162004
31
0.0
39
0.0
210
0.0
220
0.0
230
1.0
0
LINE
5
231
330
70
100
AcDbEntity
67
0
8
0
62
256
6
ByLayer
370
-1
48
1.0
60
0
100
AcDbLine
10
449.769240962338
20
676.001931162004
30
0.0
11
453.071801731712
21
675.692682184426
31
0.0
39
0.0
210
0.0
220
0.0
230
1.0
0
LINE
5
232
330
70
100
AcDbEntity
67
0
8
0
62
256
6
ByLayer
370
-1
48
1.0
60
0
100
AcDbLine
10
453.071801731712
20
675.692682184426
30
0.0
11
456.378022475586
21
675.341230529648
31
0.0
39
0.0
210
0.0
220
0.0
230
1.0
0
LINE
5
233
330
70
100
AcDbEntity
67
0
8
0
62
256
6
ByLayer
370
-1
48
1.0
60
0
100
AcDbLine
10
456.378022475586
20
675.341230529648
30
0.0
11
459.687134152854
21
674.947633836756
31
0.0
39
0.0
210
0.0
220
0.0
230
1.0
0
LINE
5
234
330
70
100
AcDbEntity
67
0
8
0
62
256
6
ByLayer
370
-1
48
1.0
60
0
100
AcDbLine
10
459.687134152854
20
674.947633836756
30
0.0
11
462.998367722412
21
674.51194974484
31
0.0
39
0.0
210
0.0
220
0.0
230
1.0
0
LINE
5
235
330
70
100
AcDbEntity
67
0
8
0
62
256
6
ByLayer
370
-1
48
1.0
60
0
100
AcDbLine
10
462.998367722412
20
674.51194974484
30
0.0
11
466.310954143155
21
674.034235892985
31
0.0
39
0.0
210
0.0
220
0.0
230
1.0
0
LINE
5
236
330
70
100
AcDbEntity
67
0
8
0
62
256
6
ByLayer
370
-1
48
1.0
60
0
100
AcDbLine
10
466.310954143155
20
674.034235892985
30
0.0
11
469.624124373979
21
673.514549920279
31
0.0
39
0.0
210
0.0
220
0.0
230
1.0
0
LINE
5
237
330
70
100
AcDbEntity
67
0
8
0
62
256
6
ByLayer
370
-1
48
1.0
60
0
100
AcDbLine
10
469.624124373979
20
673.514549920279
30
0.0
11
472.93710937378
21
672.952949465811
31
0.0
39
0.0
210
0.0
220
0.0
230
1.0
0
LINE
5
238
330
70
100
AcDbEntity
67
0
8
0
62
256
6
ByLayer
370
-1
48
1.0
60
0
100
AcDbLine
10
472.93710937378
20
672.952949465811
30
0.0
11
476.249140101452
21
672.349492168667
31
0.0
39
0.0
210
0.0
220
0.0
230
1.0
0
LINE
5
239
330
70
100
AcDbEntity
67
0
8
0
62
256
6
ByLayer
370
-1
48
1.0
60
0
100
AcDbLine
10
476.249140101452
20
672.349492168667
30
0.0
11
479.559447515892
21
671.704235667935
31
0.0
39
0.0
210
0.0
220
0.0
230
1.0
0
LINE
5
23A
330
70
100
AcDbEntity
67
0
8
0
62
256
6
ByLayer
370
-1
48
1.0
60
0
100
AcDbLine
10
479.559447515892
20
671.704235667935
30
0.0
11
482.867262575995
21
671.017237602703
31
0.0
39
0.0
210
0.0
220
0.0
230
1.0
0
LINE
5
23B
330
70
100
AcDbEntity
67
0
8
0
62
256
6
ByLayer
370
-1
48
1.0
60
0
100
AcDbLine
10
482.867262575995
20
671.017237602703
30
0.0
11
486.171816240657
21
670.288555612058
31
0.0
39
0.0
210
0.0
220
0.0
230
1.0
0
LINE
5
23C
330
70
100
AcDbEntity
67
0
8
0
62
256
6
ByLayer
370
-1
48
1.0
60
0
100
AcDbLine
10
486.171816240657
20
670.288555612058
30
0.0
11
489.472339468771
21
669.518247335087
31
0.0
39
0.0
210
0.0
220
0.0
230
1.0
0
LINE
5
23D
330
70
100
AcDbEntity
67
0
8
0
62
256
6
ByLayer
370
-1
48
1.0
60
0
100
AcDbLine
10
489.472339468771
20
669.518247335087
30
0.0
11
492.768063219236
21
668.706370410878
31
0.0
39
0.0
210
0.0
220
0.0
230
1.0
0
LINE
5
23E
330
70
100
AcDbEntity
67
0
8
0
62
256
6
ByLayer
370
-1
48
1.0
60
0
100
AcDbLine
10
492.768063219236
20
668.706370410878
30
0.0
11
496.058218450945
21
667.852982478518
31
0.0
39
0.0
210
0.0
220
0.0
230
1.0
0
LINE
5
23F
330
70
100
AcDbEntity
67
0
8
0
62
256
6
ByLayer
370
-1
48
1.0
60
0
100
AcDbLine
10
496.058218450945
20
667.852982478518
30
0.0
11
499.342036122794
21
666.958141177096
31
0.0
39
0.0
210
0.0
220
0.0
230
1.0
0
LINE
5
240
330
70
100
AcDbEntity
67
0
8
0
62
256
6
ByLayer
370
-1
48
1.0
60
0
100
AcDbLine
10
499.342036122794
20
666.958141177096
30
0.0
11
502.618747193678
21
666.021904145697
31
0.0
39
0.0
210
0.0
220
0.0
230
1.0
0
LINE
5
241
330
70
100
AcDbEntity
67
0
8
0
62
256
6
ByLayer
370
-1
48
1.0
60
0
100
AcDbLine
10
502.618747193678
20
666.021904145697
30
0.0
11
505.887582622495
21
665.044329023411
31
0.0
39
0.0
210
0.0
220
0.0
230
1.0
0
LINE
5
242
330
70
100
AcDbEntity
67
0
8
0
62
256
6
ByLayer
370
-1
48
1.0
60
0
100
AcDbLine
10
505.887582622495
20
665.044329023411
30
0.0
11
509.147750134649
21
664.025559239199
31
0.0
39
0.0
210
0.0
220
0.0
230
1.0
0
LINE
5
243
330
70
100
AcDbEntity
67
0
8
0
62
256
6
ByLayer
370
-1
48
1.0
60
0
100
AcDbLine
10
509.147750134649
20
664.025559239199
30
0.0
11
512.398489456326
21
662.966088413389
31
0.0
39
0.0
210
0.0
220
0.0
230
1.0
0
LINE
5
244
330
70
100
AcDbEntity
67
0
8
0
62
256
6
ByLayer
370
-1
48
1.0
60
0
100
AcDbLine
10
512.398489456326
20
662.966088413389
30
0.0
11
515.639168451881
21
661.866400576031
31
0.0
39
0.0
210
0.0
220
0.0
230
1.0
0
LINE
5
245
330
70
100
AcDbEntity
67
0
8
0
62
256
6
ByLayer
370
-1
48
1.0
60
0
100
AcDbLine
10
515.639168451881
20
661.866400576031
30
0.0
11
518.869160092034
21
660.726972748248
31
0.0
39
0.0
210
0.0
220
0.0
230
1.0
0
LINE
5
246
330
70
100
AcDbEntity
67
0
8
0
62
256
6
ByLayer
370
-1
48
1.0
60
0
100
AcDbLine
10
518.869160092034
20
660.726972748248
30
0.0
11
522.087837347502
21
659.548281951165
31
0.0
39
0.0
210
0.0
220
0.0
230
1.0
0
LINE
5
247
330
70
100
AcDbEntity
67
0
8
0
62
256
6
ByLayer
370
-1
48
1.0
60
0
100
AcDbLine
10
522.087837347502
20
659.548281951165
30
0.0
11
525.294573189004
21
658.330805205905
31
0.0
39
0.0
210
0.0
220
0.0
230
1.0
0
LINE
5
248
330
70
100
AcDbEntity
67
0
8
0
62
256
6
ByLayer
370
-1
48
1.0
60
0
100
AcDbLine
10
525.294573189004
20
658.330805205905
30
0.0
11
528.488740587258
21
657.075019533592
31
0.0
39
0.0
210
0.0
220
0.0
230
1.0
0
LINE
5
249
330
70
100
AcDbEntity
67
0
8
0
62
256
6
ByLayer
370
-1
48
1.0
60
0
100
AcDbLine
10
528.488740587258
20
657.075019533592
30
0.0
11
531.669712512983
21
655.781401955352
31
0.0
39
0.0
210
0.0
220
0.0
230
1.0
0
LINE
5
24A
330
70
100
AcDbEntity
67
0
8
0
62
256
6
ByLayer
370
-1
48
1.0
60
0
100
AcDbLine
10
531.669712512983
20
655.781401955352
30
0.0
11
534.836861936896
21
654.450429492306
31
0.0
39
0.0
210
0.0
220
0.0
230
1.0
0
LINE
5
24B
330
70
100
AcDbEntity
67
0
8
0
62
256
6
ByLayer
370
-1
48
1.0
60
0
100
AcDbLine
10
534.836861936896
20
654.450429492306
30
0.0
11
537.989561829716
21
653.08257916558
31
0.0
39
0.0
210
0.0
220
0.0
230
1.0
0
LINE
5
24C
330
70
100
AcDbEntity
67
0
8
0
62
256
6
ByLayer
370
-1
48
1.0
60
0
100
AcDbLine
10
537.989561829716
20
653.08257916558
30
0.0
11
541.127185162161
21
651.678327996297
31
0.0
39
0.0
210
0.0
220
0.0
230
1.0
0
LINE
5
24D
330
70
100
AcDbEntity
67
0
8
0
62
256
6
ByLayer
370
-1
48
1.0
60
0
100
AcDbLine
10
541.127185162161
20
651.678327996297
30
0.0
11
544.249104904949
21
650.238153005581
31
0.0
39
0.0
210
0.0
220
0.0
230
1.0
0
LINE
5
24E
330
70
100
AcDbEntity
67
0
8
0
62
256
6
ByLayer
370
-1
48
1.0
60
0
100
AcDbLine
10
544.249104904949
20
650.238153005581
30
0.0
11
547.3546940288
21
648.762531214557
31
0.0
39
0.0
210
0.0
220
0.0
230
1.0
0
LINE
5
24F
330
70
100
AcDbEntity
67
0
8
0
62
256
6
ByLayer
370
-1
48
1.0
60
0
100
AcDbLine
10
547.3546940288
20
648.762531214557
30
0.0
11
550.44332550443
21
647.251939644348
31
0.0
39
0.0
210
0.0
220
0.0
230
1.0
0
LINE
5
250
330
70
100
AcDbEntity
67
0
8
0
62
256
6
ByLayer
370
-1
48
1.0
60
0
100
AcDbLine
10
550.44332550443
20
647.251939644348
30
0.0
11
553.514372302559
21
645.706855316078
31
0.0
39
0.0
210
0.0
220
0.0
230
1.0
0
LINE
5
251
330
70
100
AcDbEntity
67
0
8
0
62
256
6
ByLayer
370
-1
48
1.0
60
0
100
AcDbLine
10
553.514372302559
20
645.706855316078
30
0.0
11
556.567207393904
21
644.127755250871
31
0.0
39
0.0
210
0.0
220
0.0
230
1.0
0
LINE
5
252
330
70
100
AcDbEntity
67
0
8
0
62
256
6
ByLayer
370
-1
48
1.0
60
0
100
AcDbLine
10
556.567207393904
20
644.127755250871
30
0.0
11
559.601203749184
21
642.515116469852
31
0.0
39
0.0
210
0.0
220
0.0
230
1.0
0
LINE
5
253
330
70
100
AcDbEntity
67
0
8
0
62
256
6
ByLayer
370
-1
48
1.0
60
0
100
AcDbLine
10
559.601203749184
20
642.515116469852
30
0.0
11
562.615734339117
21
640.869415994143
31
0.0
39
0.0
210
0.0
220
0.0
230
1.0
0
LINE
5
254
330
70
100
AcDbEntity
67
0
8
0
62
256
6
ByLayer
370
-1
48
1.0
60
0
100
AcDbLine
10
562.615734339117
20
640.869415994143
30
0.0
11
565.610172134422
21
639.19113084487
31
0.0
39
0.0
210
0.0
220
0.0
230
1.0
0
LINE
5
255
330
70
100
AcDbEntity
67
0
8
0
62
256
6
ByLayer
370
-1
48
1.0
60
0
100
AcDbLine
10
565.610172134422
20
639.19113084487
30
0.0
11
568.583890105817
21
637.480738043156
31
0.0
39
0.0
210
0.0
220
0.0
230
1.0
0
LINE
5
256
330
70
100
AcDbEntity
67
0
8
0
62
256
6
ByLayer
370
-1
48
1.0
60
0
100
AcDbLine
10
568.583890105817
20
637.480738043156
30
0.0
11
571.536226983281
21
635.738836403724
31
0.0
39
0.0
210
0.0
220
0.0
230
1.0
0
LINE
5
257
330
70
100
AcDbEntity
67
0
8
0
62
256
6
ByLayer
370
-1
48
1.0
60
0
100
AcDbLine
10
571.536226983281
20
635.738836403724
30
0.0
11
574.466433513953
21
633.966492300654
31
0.0
39
0.0
210
0.0
220
0.0
230
1.0
0
LINE
5
258
330
70
100
AcDbEntity
67
0
8
0
62
256
6
ByLayer
370
-1
48
1.0
60
0
100
AcDbLine
10
574.466433513953
20
633.966492300654
30
0.0
11
577.37388540113
21
632.164516337384
31
0.0
39
0.0
210
0.0
220
0.0
230
1.0
0
LINE
5
259
330
70
100
AcDbEntity
67
0
8
0
62
256
6
ByLayer
370
-1
48
1.0
60
0
100
AcDbLine
10
577.37388540113
20
632.164516337384
30
0.0
11
580.2579711062
21
630.333682005025
31
0.0
39
0.0
210
0.0
220
0.0
230
1.0
0
LINE
5
25A
330
70
100
AcDbEntity
67
0
8
0
62
256
6
ByLayer
370
-1
48
1.0
60
0
100
AcDbLine
10
580.2579711062
20
630.333682005025
30
0.0
11
583.118079090547
21
628.474762794687
31
0.0
39
0.0
210
0.0
220
0.0
230
1.0
0
LINE
5
25B
330
70
100
AcDbEntity
67
0
8
0
62
256
6
ByLayer
370
-1
48
1.0
60
0
100
AcDbLine
10
583.118079090547
20
628.474762794687
30
0.0
11
585.953597815558
21
626.588532197478
31
0.0
39
0.0
210
0.0
220
0.0
230
1.0
0
LINE
5
25C
330
70
100
AcDbEntity
67
0
8
0
62
256
6
ByLayer
370
-1
48
1.0
60
0
100
AcDbLine
10
585.953597815558
20
626.588532197478
30
0.0
11
588.763915742619
21
624.675763704508
31
0.0
39
0.0
210
0.0
220
0.0
230
1.0
0
LINE
5
25D
330
70
100
AcDbEntity
67
0
8
0
62
256
6
ByLayer
370
-1
48
1.0
60
0
100
AcDbLine
10
588.763915742619
20
624.675763704508
30
0.0
11
591.548421333115
21
622.737230806887
31
0.0
39
0.0
210
0.0
220
0.0
230
1.0
0
LINE
5
25E
330
70
100
AcDbEntity
67
0
8
0
62
256
6
ByLayer
370
-1
48
1.0
60
0
100
AcDbLine
10
591.548421333115
20
622.737230806887
30
0.0
11
594.306503048433
21
620.773706995723
31
0.0
39
0.0
210
0.0
220
0.0
230
1.0
0
LINE
5
25F
330
70
100
AcDbEntity
67
0
8
0
62
256
6
ByLayer
370
-1
48
1.0
60
0
100
AcDbLine
10
594.306503048433
20
620.773706995723
30
0.0
11
597.037549349958
21
618.785965762128
31
0.0
39
0.0
210
0.0
220
0.0
230
1.0
0
LINE
5
260
330
70
100
AcDbEntity
67
0
8
0
62
256
6
ByLayer
370
-1
48
1.0
60
0
100
AcDbLine
10
597.037549349958
20
618.785965762128
30
0.0
11
599.740948493756
21
616.774781702176
31
0.0
39
0.0
210
0.0
220
0.0
230
1.0
0
LINE
5
261
330
70
100
AcDbEntity
67
0
8
0
62
256
6
ByLayer
370
-1
48
1.0
60
0
100
AcDbLine
10
599.740948493756
20
616.774781702176
30
0.0
11
602.416091734912
21
614.741017049025
31
0.0
39
0.0
210
0.0
220
0.0
230
1.0
0
LINE
5
262
330
70
100
AcDbEntity
67
0
8
0
62
256
6
ByLayer
370
-1
48
1.0
60
0
100
AcDbLine
10
602.416091734912
20
614.741017049025
30
0.0
11
605.062408334386
21
612.685627620666
31
0.0
39
0.0
210
0.0
220
0.0
230
1.0
0
LINE
5
263
330
70
100
AcDbEntity
67
0
8
0
62
256
6
ByLayer
370
-1
48
1.0
60
0
100
AcDbLine
10
605.062408334386
20
612.685627620666
30
0.0
11
607.679338251168
21
610.609563604939
31
0.0
39
0.0
210
0.0
220
0.0
230
1.0
0
LINE
5
264
330
70
100
AcDbEntity
67
0
8
0
62
256
6
ByLayer
370
-1
48
1.0
60
0
100
AcDbLine
10
607.679338251168
20
610.609563604939
30
0.0
11
610.266321444243
21
608.513775189683
31
0.0
39
0.0
210
0.0
220
0.0
230
1.0
0
LINE
5
265
330
70
100
AcDbEntity
67
0
8
0
62
256
6
ByLayer
370
-1
48
1.0
60
0
100
AcDbLine
10
610.266321444243
20
608.513775189683
30
0.0
11
612.822797872601
21
606.399212562737
31
0.0
39
0.0
210
0.0
220
0.0
230
1.0
0
LINE
5
266
330
70
100
AcDbEntity
67
0
8
0
62
256
6
ByLayer
370
-1
48
1.0
60
0
100
AcDbLine
10
612.822797872601
20
606.399212562737
30
0.0
11
615.34820749523
21
604.26682591194
31
0.0
39
0.0
210
0.0
220
0.0
230
1.0
0
LINE
5
267
330
70
100
AcDbEntity
67
0
8
0
62
256
6
ByLayer
370
-1
48
1.0
60
0
100
AcDbLine
10
615.34820749523
20
604.26682591194
30
0.0
11
617.841990271116
21
602.117565425131
31
0.0
39
0.0
210
0.0
220
0.0
230
1.0
0
LINE
5
268
330
70
100
AcDbEntity
67
0
8
0
62
256
6
ByLayer
370
-1
48
1.0
60
0
100
AcDbLine
10
617.841990271116
20
602.117565425131
30
0.0
11
620.303586159249
21
599.95238129015
31
0.0
39
0.0
210
0.0
220
0.0
230
1.0
0
LINE
5
269
330
70
100
AcDbEntity
67
0
8
0
62
256
6
ByLayer
370
-1
48
1.0
60
0
100
AcDbLine
10
620.303586159249
20
599.95238129015
30
0.0
11
622.736907802197
21
597.768296020663
31
0.0
39
0.0
210
0.0
220
0.0
230
1.0
0
LINE
5
26A
330
70
100
AcDbEntity
67
0
8
0
62
256
6
ByLayer
370
-1
48
1.0
60
0
100
AcDbLine
10
622.736907802197
20
597.768296020663
30
0.0
11
625.152415706355
21
595.556017531125
31
0.0
39
0.0
210
0.0
220
0.0
230
1.0
0
LINE
5
26B
330
70
100
AcDbEntity
67
0
8
0
62
256
6
ByLayer
370
-1
48
1.0
60
0
100
AcDbLine
10
625.152415706355
20
595.556017531125
30
0.0
11
627.551970893378
21
593.313307668499
31
0.0
39
0.0
210
0.0
220
0.0
230
1.0
0
LINE
5
26C
330
70
100
AcDbEntity
67
0
8
0
62
256
6
ByLayer
370
-1
48
1.0
60
0
100
AcDbLine
10
627.551970893378
20
593.313307668499
30
0.0
11
629.93708913868
21
591.03822269586
31
0.0
39
0.0
210
0.0
220
0.0
230
1.0
0
LINE
5
26D
330
70
100
AcDbEntity
67
0
8
0
62
256
6
ByLayer
370
-1
48
1.0
60
0
100
AcDbLine
10
629.93708913868
20
591.03822269586
30
0.0
11
632.309286217675
21
588.728818876285
31
0.0
39
0.0
210
0.0
220
0.0
230
1.0
0
LINE
5
26E
330
70
100
AcDbEntity
67
0
8
0
62
256
6
ByLayer
370
-1
48
1.0
60
0
100
AcDbLine
10
632.309286217675
20
588.728818876285
30
0.0
11
634.668217688726
21
586.384579994584
31
0.0
39
0.0
210
0.0
220
0.0
230
1.0
0
LINE
5
26F
330
70
100
AcDbEntity
67
0
8
0
62
256
6
ByLayer
370
-1
48
1.0
60
0
100
AcDbLine
10
634.668217688726
20
586.384579994584
30
0.0
11
637.010860541125
21
584.007361737203
31
0.0
39
0.0
210
0.0
220
0.0
230
1.0
0
LINE
5
270
330
70
100
AcDbEntity
67
0
8
0
62
256
6
ByLayer
370
-1
48
1.0
60
0
100
AcDbLine
10
637.010860541125
20
584.007361737203
30
0.0
11
639.336226144165
21
581.597689000312
31
0.0
39
0.0
210
0.0
220
0.0
230
1.0
0
LINE
5
271
330
70
100
AcDbEntity
67
0
8
0
62
256
6
ByLayer
370
-1
48
1.0
60
0
100
AcDbLine
10
639.336226144165
20
581.597689000312
30
0.0
11
641.643366937667
21
579.156056948135
31
0.0
39
0.0
210
0.0
220
0.0
230
1.0
0
LINE
5
272
330
70
100
AcDbEntity
67
0
8
0
62
256
6
ByLayer
370
-1
48
1.0
60
0
100
AcDbLine
10
641.643366937667
20
579.156056948135
30
0.0
11
643.931335361453
21
576.682960744899
31
0.0
39
0.0
210
0.0
220
0.0
230
1.0
0
LINE
5
273
330
70
100
AcDbEntity
67
0
8
0
62
256
6
ByLayer
370
-1
48
1.0
60
0
100
AcDbLine
10
643.931335361453
20
576.682960744899
30
0.0
11
646.199183855345
21
574.178895554827
31
0.0
39
0.0
210
0.0
220
0.0
230
1.0
0
LINE
5
274
330
70
100
AcDbEntity
67
0
8
0
62
256
6
ByLayer
370
-1
48
1.0
60
0
100
AcDbLine
10
646.199183855345
20
574.178895554827
30
0.0
11
648.445964859165
21
571.644356542146
31
0.0
39
0.0
210
0.0
220
0.0
230
1.0
0
LINE
5
275
330
70
100
AcDbEntity
67
0
8
0
62
256
6
ByLayer
370
-1
48
1.0
60
0
100
AcDbLine
10
648.445964859165
20
571.644356542146
30
0.0
11
650.670730812733
21
569.079838871081
31
0.0
39
0.0
210
0.0
220
0.0
230
1.0
0
LINE
5
276
330
70
100
AcDbEntity
67
0
8
0
62
256
6
ByLayer
370
-1
48
1.0
60
0
100
AcDbLine
10
650.670730812733
20
569.079838871081
30
0.0
11
652.872534155873
21
566.485837705857
31
0.0
39
0.0
210
0.0
220
0.0
230
1.0
0
LINE
5
277
330
70
100
AcDbEntity
67
0
8
0
62
256
6
ByLayer
370
-1
48
1.0
60
0
100
AcDbLine
10
652.872534155873
20
566.485837705857
30
0.0
11
655.050427328405
21
563.862848210698
31
0.0
39
0.0
210
0.0
220
0.0
230
1.0
0
LINE
5
278
330
70
100
AcDbEntity
67
0
8
0
62
256
6
ByLayer
370
-1
48
1.0
60
0
100
AcDbLine
10
655.050427328405
20
563.862848210698
30
0.0
11
657.203462770151
21
561.211365549832
31
0.0
39
0.0
210
0.0
220
0.0
230
1.0
0
LINE
5
279
330
70
100
AcDbEntity
67
0
8
0
62
256
6
ByLayer
370
-1
48
1.0
60
0
100
AcDbLine
10
657.203462770151
20
561.211365549832
30
0.0
11
659.330692920933
21
558.531884887481
31
0.0
39
0.0
210
0.0
220
0.0
230
1.0
0
LINE
5
27A
330
70
100
AcDbEntity
67
0
8
0
62
256
6
ByLayer
370
-1
48
1.0
60
0
100
AcDbLine
10
659.330692920933
20
558.531884887481
30
0.0
11
661.431170220573
21
555.824901387873
31
0.0
39
0.0
210
0.0
220
0.0
230
1.0
0
LINE
5
27B
330
70
100
AcDbEntity
67
0
8
0
62
256
6
ByLayer
370
-1
48
1.0
60
0
100
AcDbLine
10
661.431170220573
20
555.824901387873
30
0.0
11
663.503947108891
21
553.090910215232
31
0.0
39
0.0
210
0.0
220
0.0
230
1.0
0
LINE
5
27C
330
70
100
AcDbEntity
67
0
8
0
62
256
6
ByLayer
370
-1
48
1.0
60
0
100
AcDbLine
10
663.503947108891
20
553.090910215232
30
0.0
11
665.54807602571
21
550.330406533782
31
0.0
39
0.0
210
0.0
220
0.0
230
1.0
0
LINE
5
27D
330
70
100
AcDbEntity
67
0
8
0
62
256
6
ByLayer
370
-1
48
1.0
60
0
100
AcDbLine
10
665.54807602571
20
550.330406533782
30
0.0
11
667.562609410852
21
547.543885507751
31
0.0
39
0.0
210
0.0
220
0.0
230
1.0
0
LINE
5
27E
330
70
100
AcDbEntity
67
0
8
0
62
256
6
ByLayer
370
-1
48
1.0
60
0
100
AcDbLine
10
667.562609410852
20
547.543885507751
30
0.0
11
669.546599704138
21
544.731842301362
31
0.0
39
0.0
210
0.0
220
0.0
230
1.0
0
LINE
5
27F
330
70
100
AcDbEntity
67
0
8
0
62
256
6
ByLayer
370
-1
48
1.0
60
0
100
AcDbLine
10
669.546599704138
20
544.731842301362
30
0.0
11
671.499099345389
21
541.894772078841
31
0.0
39
0.0
210
0.0
220
0.0
230
1.0
0
LINE
5
280
330
70
100
AcDbEntity
67
0
8
0
62
256
6
ByLayer
370
-1
48
1.0
60
0
100
AcDbLine
10
671.499099345389
20
541.894772078841
30
0.0
11
673.419160774429
21
539.033170004414
31
0.0
39
0.0
210
0.0
220
0.0
230
1.0
0
LINE
5
281
330
70
100
AcDbEntity
67
0
8
0
62
256
6
ByLayer
370
-1
48
1.0
60
0
100
AcDbLine
10
673.419160774429
20
539.033170004414
30
0.0
11
675.305836431076
21
536.147531242305
31
0.0
39
0.0
210
0.0
220
0.0
230
1.0
0
LINE
5
282
330
70
100
AcDbEntity
67
0
8
0
62
256
6
ByLayer
370
-1
48
1.0
60
0
100
AcDbLine
10
675.305836431076
20
536.147531242305
30
0.0
11
677.158178755155
21
533.23835095674
31
0.0
39
0.0
210
0.0
220
0.0
230
1.0
0
LINE
5
283
330
70
100
AcDbEntity
67
0
8
0
62
256
6
ByLayer
370
-1
48
1.0
60
0
100
AcDbLine
10
677.158178755155
20
533.23835095674
30
0.0
11
678.975240186487
21
530.306124311943
31
0.0
39
0.0
210
0.0
220
0.0
230
1.0
0
LINE
5
284
330
70
100
AcDbEntity
67
0
8
0
62
256
6
ByLayer
370
-1
48
1.0
60
0
100
AcDbLine
10
678.975240186487
20
530.306124311943
30
0.0
11
680.756072121314
21
527.351344256955
31
0.0
39
0.0
210
0.0
220
0.0
230
1.0
0
LINE
5
285
330
70
100
AcDbEntity
67
0
8
0
62
256
6
ByLayer
370
-1
48
1.0
60
0
100
AcDbLine
10
680.756072121314
20
527.351344256955
30
0.0
11
682.49979432109
21
524.374539241109
31
0.0
39
0.0
210
0.0
220
0.0
230
1.0
0
LINE
5
286
330
70
100
AcDbEntity
67
0
8
0
62
256
6
ByLayer
370
-1
48
1.0
60
0
100
AcDbLine
10
682.49979432109
20
524.374539241109
30
0.0
11
684.205685898188
21
521.37636274847
31
0.0
39
0.0
210
0.0
220
0.0
230
1.0
0
LINE
5
287
330
70
100
AcDbEntity
67
0
8
0
62
256
6
ByLayer
370
-1
48
1.0
60
0
100
AcDbLine
10
684.205685898188
20
521.37636274847
30
0.0
11
685.873044369596
21
518.357485308319
31
0.0
39
0.0
210
0.0
220
0.0
230
1.0
0
LINE
5
288
330
70
100
AcDbEntity
67
0
8
0
62
256
6
ByLayer
370
-1
48
1.0
60
0
100
AcDbLine
10
685.873044369596
20
518.357485308319
30
0.0
11
687.501167252308
21
515.318577449937
31
0.0
39
0.0
210
0.0
220
0.0
230
1.0
0
LINE
5
289
330
70
100
AcDbEntity
67
0
8
0
62
256
6
ByLayer
370
-1
48
1.0
60
0
100
AcDbLine
10
687.501167252308
20
515.318577449937
30
0.0
11
689.089352063313
21
512.260309702608
31
0.0
39
0.0
210
0.0
220
0.0
230
1.0
0
LINE
5
28A
330
70
100
AcDbEntity
67
0
8
0
62
256
6
ByLayer
370
-1
48
1.0
60
0
100
AcDbLine
10
689.089352063313
20
512.260309702608
30
0.0
11
690.636896319602
21
509.183352595613
31
0.0
39
0.0
210
0.0
220
0.0
230
1.0
0
LINE
5
28B
330
70
100
AcDbEntity
67
0
8
0
62
256
6
ByLayer
370
-1
48
1.0
60
0
100
AcDbLine
10
690.636896319602
20
509.183352595613
30
0.0
11
692.143097538168
21
506.088376658234
31
0.0
39
0.0
210
0.0
220
0.0
230
1.0
0
LINE
5
28C
330
70
100
AcDbEntity
67
0
8
0
62
256
6
ByLayer
370
-1
48
1.0
60
0
100
AcDbLine
10
692.143097538168
20
506.088376658234
30
0.0
11
693.607253236
21
502.976052419755
31
0.0
39
0.0
210
0.0
220
0.0
230
1.0
0
LINE
5
28D
330
70
100
AcDbEntity
67
0
8
0
62
256
6
ByLayer
370
-1
48
1.0
60
0
100
AcDbLine
10
693.607253236
20
502.976052419755
30
0.0
11
695.02866093009
21
499.847050409455
31
0.0
39
0.0
210
0.0
220
0.0
230
1.0
0
LINE
5
28E
330
70
100
AcDbEntity
67
0
8
0
62
256
6
ByLayer
370
-1
48
1.0
60
0
100
AcDbLine
10
695.02866093009
20
499.847050409455
30
0.0
11
696.406618137428
21
496.702041156617
31
0.0
39
0.0
210
0.0
220
0.0
230
1.0
0
LINE
5
28F
330
70
100
AcDbEntity
67
0
8
0
62
256
6
ByLayer
370
-1
48
1.0
60
0
100
AcDbLine
10
696.406618137428
20
496.702041156617
30
0.0
11
697.740422375007
21
493.541695190525
31
0.0
39
0.0
210
0.0
220
0.0
230
1.0
0
LINE
5
290
330
70
100
AcDbEntity
67
0
8
0
62
256
6
ByLayer
370
-1
48
1.0
60
0
100
AcDbLine
10
697.740422375007
20
493.541695190525
30
0.0
11
699.029371159816
21
490.366683040458
31
0.0
39
0.0
210
0.0
220
0.0
230
1.0
0
LINE
5
291
330
70
100
AcDbEntity
67
0
8
0
62
256
6
ByLayer
370
-1
48
1.0
60
0
100
AcDbLine
10
699.029371159816
20
490.366683040458
30
0.0
11
700.272762008848
21
487.1776752357
31
0.0
39
0.0
210
0.0
220
0.0
230
1.0
0
LINE
5
292
330
70
100
AcDbEntity
67
0
8
0
62
256
6
ByLayer
370
-1
48
1.0
60
0
100
AcDbLine
10
700.272762008848
20
487.1776752357
30
0.0
11
701.469892439092
21
483.975342305533
31
0.0
39
0.0
210
0.0
220
0.0
230
1.0
0
LINE
5
293
330
70
100
AcDbEntity
67
0
8
0
62
256
6
ByLayer
370
-1
48
1.0
60
0
100
AcDbLine
10
701.469892439092
20
483.975342305533
30
0.0
11
702.62005996754
21
480.760354779239
31
0.0
39
0.0
210
0.0
220
0.0
230
1.0
0
LINE
5
294
330
70
100
AcDbEntity
67
0
8
0
62
256
6
ByLayer
370
-1
48
1.0
60
0
100
AcDbLine
10
702.62005996754
20
480.760354779239
30
0.0
11
703.722562111184
21
477.533383186099
31
0.0
39
0.0
210
0.0
220
0.0
230
1.0
0
LINE
5
295
330
70
100
AcDbEntity
67
0
8
0
62
256
6
ByLayer
370
-1
48
1.0
60
0
100
AcDbLine
10
703.722562111184
20
477.533383186099
30
0.0
11
704.776696387013
21
474.295098055396
31
0.0
39
0.0
210
0.0
220
0.0
230
1.0
0
LINE
5
296
330
70
100
AcDbEntity
67
0
8
0
62
256
6
ByLayer
370
-1
48
1.0
60
0
100
AcDbLine
10
704.776696387013
20
474.295098055396
30
0.0
11
705.78176031202
21
471.046169916412
31
0.0
39
0.0
210
0.0
220
0.0
230
1.0
0
LINE
5
297
330
70
100
AcDbEntity
67
0
8
0
62
256
6
ByLayer
370
-1
48
1.0
60
0
100
AcDbLine
10
705.78176031202
20
471.046169916412
30
0.0
11
706.736989614779
21
467.787363161339
31
0.0
39
0.0
210
0.0
220
0.0
230
1.0
0
LINE
5
298
330
70
100
AcDbEntity
67
0
8
0
62
256
6
ByLayer
370
-1
48
1.0
60
0
100
AcDbLine
10
706.736989614779
20
467.787363161339
30
0.0
11
707.641756702388
21
464.519740316133
31
0.0
39
0.0
210
0.0
220
0.0
230
1.0
0
LINE
5
299
330
70
100
AcDbEntity
67
0
8
0
62
256
6
ByLayer
370
-1
48
1.0
60
0
100
AcDbLine
10
707.641756702388
20
464.519740316133
30
0.0
11
708.495883569298
21
461.244220078212
31
0.0
39
0.0
210
0.0
220
0.0
230
1.0
0
LINE
5
29A
330
70
100
AcDbEntity
67
0
8
0
62
256
6
ByLayer
370
-1
48
1.0
60
0
100
AcDbLine
10
708.495883569298
20
461.244220078212
30
0.0
11
709.299213333453
21
457.961706008339
31
0.0
39
0.0
210
0.0
220
0.0
230
1.0
0
LINE
5
29B
330
70
100
AcDbEntity
67
0
8
0
62
256
6
ByLayer
370
-1
48
1.0
60
0
100
AcDbLine
10
709.299213333453
20
457.961706008339
30
0.0
11
710.051589112798
21
454.673101667276
31
0.0
39
0.0
210
0.0
220
0.0
230
1.0
0
LINE
5
29C
330
70
100
AcDbEntity
67
0
8
0
62
256
6
ByLayer
370
-1
48
1.0
60
0
100
AcDbLine
10
710.051589112798
20
454.673101667276
30
0.0
11
710.752854025275
21
451.379310615787
31
0.0
39
0.0
210
0.0
220
0.0
230
1.0
0
LINE
5
29D
330
70
100
AcDbEntity
67
0
8
0
62
256
6
ByLayer
370
-1
48
1.0
60
0
100
AcDbLine
10
710.752854025275
20
451.379310615787
30
0.0
11
711.402851188831
21
448.081236414634
31
0.0
39
0.0
210
0.0
220
0.0
230
1.0
0
LINE
5
29E
330
70
100
AcDbEntity
67
0
8
0
62
256
6
ByLayer
370
-1
48
1.0
60
0
100
AcDbLine
10
711.402851188831
20
448.081236414634
30
0.0
11
712.001423721409
21
444.779782624579
31
0.0
39
0.0
210
0.0
220
0.0
230
1.0
0
LINE
5
29F
330
70
100
AcDbEntity
67
0
8
0
62
256
6
ByLayer
370
-1
48
1.0
60
0
100
AcDbLine
10
712.001423721409
20
444.779782624579
30
0.0
11
712.548414740954
21
441.475852806387
31
0.0
39
0.0
210
0.0
220
0.0
230
1.0
0
LINE
5
2A0
330
70
100
AcDbEntity
67
0
8
0
62
256
6
ByLayer
370
-1
48
1.0
60
0
100
AcDbLine
10
712.548414740954
20
441.475852806387
30
0.0
11
713.04366736541
21
438.170350520819
31
0.0
39
0.0
210
0.0
220
0.0
230
1.0
0
LINE
5
2A1
330
70
100
AcDbEntity
67
0
8
0
62
256
6
ByLayer
370
-1
48
1.0
60
0
100
AcDbLine
10
713.04366736541
20
438.170350520819
30
0.0
11
713.487024712721
21
434.864179328638
31
0.0
39
0.0
210
0.0
220
0.0
230
1.0
0
LINE
5
2A2
330
70
100
AcDbEntity
67
0
8
0
62
256
6
ByLayer
370
-1
48
1.0
60
0
100
AcDbLine
10
713.487024712721
20
434.864179328638
30
0.0
11
713.878329900832
21
431.558242790608
31
0.0
39
0.0
210
0.0
220
0.0
230
1.0
0
LINE
5
2A3
330
70
100
AcDbEntity
67
0
8
0
62
256
6
ByLayer
370
-1
48
1.0
60
0
100
AcDbLine
10
713.878329900832
20
431.558242790608
30
0.0
11
714.217426047686
21
428.25344446749
31
0.0
39
0.0
210
0.0
220
0.0
230
1.0
0
LINE
5
2A4
330
70
100
AcDbEntity
67
0
8
0
62
256
6
ByLayer
370
-1
48
1.0
60
0
100
AcDbLine
10
714.217426047686
20
428.25344446749
30
0.0
11
714.504156271229
21
424.950687920048
31
0.0
39
0.0
210
0.0
220
0.0
230
1.0
0
LINE
5
2A5
330
70
100
AcDbEntity
67
0
8
0
62
256
6
ByLayer
370
-1
48
1.0
60
0
100
AcDbLine
10
714.504156271229
20
424.950687920048
30
0.0
11
714.738363689405
21
421.650876709046
31
0.0
39
0.0
210
0.0
220
0.0
230
1.0
0
LINE
5
2A6
330
70
100
AcDbEntity
67
0
8
0
62
256
6
ByLayer
370
-1
48
1.0
60
0
100
AcDbLine
10
714.738363689405
20
421.650876709046
30
0.0
11
714.919891420158
21
418.354914395244
31
0.0
39
0.0
210
0.0
220
0.0
230
1.0
0
LINE
5
2A7
330
70
100
AcDbEntity
67
0
8
0
62
256
6
ByLayer
370
-1
48
1.0
60
0
100
AcDbLine
10
714.919891420158
20
418.354914395244
30
0.0
11
715.048774637516
21
415.063743132355
31
0.0
39
0.0
210
0.0
220
0.0
230
1.0
0
LINE
5
2A8
330
70
100
AcDbEntity
67
0
8
0
62
256
6
ByLayer
370
-1
48
1.0
60
0
100
AcDbLine
10
715.048774637516
20
415.063743132355
30
0.0
11
715.125841388059
21
411.778447761836
31
0.0
39
0.0
210
0.0
220
0.0
230
1.0
0
LINE
5
2A9
330
70
100
AcDbEntity
67
0
8
0
62
256
6
ByLayer
370
-1
48
1.0
60
0
100
AcDbLine
10
715.125841388059
20
411.778447761836
30
0.0
11
715.151463906713
21
408.5000002
31
0.0
39
0.0
210
0.0
220
0.0
230
1.0
0
LINE
5
2AA
330
70
100
AcDbEntity
67
0
8
0
62
256
6
ByLayer
370
-1
48
1.0
60
0
100
AcDbLine
10
787.267973543012
20
1200.0000002
30
0.0
11
787.233329574815
21
1198.60008693447
31
0.0
39
0.0
210
0.0
220
0.0
230
1.0
0
LINE
5
2AB
330
70
100
AcDbEntity
67
0
8
0
62
256
6
ByLayer
370
-1
48
1.0
60
0
100
AcDbLine
10
787.233329574815
20
1198.60008693447
30
0.0
11
787.129252164377
21
1197.18375432135
31
0.0
39
0.0
210
0.0
220
0.0
230
1.0
0
LINE
5
2AC
330
70
100
AcDbEntity
67
0
8
0
62
256
6
ByLayer
370
-1
48
1.0
60
0
100
AcDbLine
10
787.129252164377
20
1197.18375432135
30
0.0
11
786.955523052932
21
1195.75757850062
31
0.0
39
0.0
210
0.0
220
0.0
230
1.0
0
LINE
5
2AD
330
70
100
AcDbEntity
67
0
8
0
62
256
6
ByLayer
370
-1
48
1.0
60
0
100
AcDbLine
10
786.955523052932
20
1195.75757850062
30
0.0
11
786.711923981713
21
1194.32813561228
31
0.0
39
0.0
210
0.0
220
0.0
230
1.0
0
LINE
5
2AE
330
70
100
AcDbEntity
67
0
8
0
62
256
6
ByLayer
370
-1
48
1.0
60
0
100
AcDbLine
10
786.711923981713
20
1194.32813561228
30
0.0
11
786.398236691951
21
1192.90200179632
31
0.0
39
0.0
210
0.0
220
0.0
230
1.0
0
LINE
5
2AF
330
70
100
AcDbEntity
67
0
8
0
62
256
6
ByLayer
370
-1
48
1.0
60
0
100
AcDbLine
10
786.398236691951
20
1192.90200179632
30
0.0
11
786.01424292488
21
1191.48575319273
31
0.0
39
0.0
210
0.0
220
0.0
230
1.0
0
LINE
5
2B0
330
70
100
AcDbEntity
67
0
8
0
62
256
6
ByLayer
370
-1
48
1.0
60
0
100
AcDbLine
10
786.01424292488
20
1191.48575319273
30
0.0
11
785.559724421731
21
1190.0859659415
31
0.0
39
0.0
210
0.0
220
0.0
230
1.0
0
LINE
5
2B1
330
70
100
AcDbEntity
67
0
8
0
62
256
6
ByLayer
370
-1
48
1.0
60
0
100
AcDbLine
10
785.559724421731
20
1190.0859659415
30
0.0
11
785.034462923739
21
1188.70921618264
31
0.0
39
0.0
210
0.0
220
0.0
230
1.0
0
LINE
5
2B2
330
70
100
AcDbEntity
67
0
8
0
62
256
6
ByLayer
370
-1
48
1.0
60
0
100
AcDbLine
10
785.034462923739
20
1188.70921618264
30
0.0
11
784.43893726083
21
1187.36179661494
31
0.0
39
0.0
210
0.0
220
0.0
230
1.0
0
LINE
5
2B3
330
70
100
AcDbEntity
67
0
8
0
62
256
6
ByLayer
370
-1
48
1.0
60
0
100
AcDbLine
10
784.43893726083
20
1187.36179661494
30
0.0
11
783.777022605747
21
1186.04860335457
31
0.0
39
0.0
210
0.0
220
0.0
230
1.0
0
LINE
5
2B4
330
70
100
AcDbEntity
67
0
8
0
62
256
6
ByLayer
370
-1
48
1.0
60
0
100
AcDbLine
10
783.777022605747
20
1186.04860335457
30
0.0
11
783.05352778626
21
1184.77414082515
31
0.0
39
0.0
210
0.0
220
0.0
230
1.0
0
LINE
5
2B5
330
70
100
AcDbEntity
67
0
8
0
62
256
6
ByLayer
370
-1
48
1.0
60
0
100
AcDbLine
10
783.05352778626
20
1184.77414082515
30
0.0
11
782.273257258262
21
1183.54291510256
31
0.0
39
0.0
210
0.0
220
0.0
230
1.0
0
LINE
5
2B6
330
70
100
AcDbEntity
67
0
8
0
62
256
6
ByLayer
370
-1
48
1.0
60
0
100
AcDbLine
10
782.273257258262
20
1183.54291510256
30
0.0
11
781.441015477646
21
1182.35943226267
31
0.0
39
0.0
210
0.0
220
0.0
230
1.0
0
LINE
5
2B7
330
70
100
AcDbEntity
67
0
8
0
62
256
6
ByLayer
370
-1
48
1.0
60
0
100
AcDbLine
10
781.441015477646
20
1182.35943226267
30
0.0
11
780.561606900307
21
1181.22819838137
31
0.0
39
0.0
210
0.0
220
0.0
230
1.0
0
LINE
5
2B8
330
70
100
AcDbEntity
67
0
8
0
62
256
6
ByLayer
370
-1
48
1.0
60
0
100
AcDbLine
10
780.561606900307
20
1181.22819838137
30
0.0
11
779.639835982138
21
1180.15371953455
31
0.0
39
0.0
210
0.0
220
0.0
230
1.0
0
LINE
5
2B9
330
70
100
AcDbEntity
67
0
8
0
62
256
6
ByLayer
370
-1
48
1.0
60
0
100
AcDbLine
10
779.639835982138
20
1180.15371953455
30
0.0
11
778.679277308562
21
1179.1388867277
31
0.0
39
0.0
210
0.0
220
0.0
230
1.0
0
LINE
5
2BA
330
70
100
AcDbEntity
67
0
8
0
62
256
6
ByLayer
370
-1
48
1.0
60
0
100
AcDbLine
10
778.679277308562
20
1179.1388867277
30
0.0
11
777.669010940626
21
1178.16900640806
31
0.0
39
0.0
210
0.0
220
0.0
230
1.0
0
LINE
5
2BB
330
70
100
AcDbEntity
67
0
8
0
62
256
6
ByLayer
370
-1
48
1.0
60
0
100
AcDbLine
10
777.669010940626
20
1178.16900640806
30
0.0
11
776.604750527007
21
1177.24104124247
31
0.0
39
0.0
210
0.0
220
0.0
230
1.0
0
LINE
5
2BC
330
70
100
AcDbEntity
67
0
8
0
62
256
6
ByLayer
370
-1
48
1.0
60
0
100
AcDbLine
10
776.604750527007
20
1177.24104124247
30
0.0
11
775.485799511471
21
1176.3569925929
31
0.0
39
0.0
210
0.0
220
0.0
230
1.0
0
LINE
5
2BD
330
70
100
AcDbEntity
67
0
8
0
62
256
6
ByLayer
370
-1
48
1.0
60
0
100
AcDbLine
10
775.485799511471
20
1176.3569925929
30
0.0
11
774.311968012475
21
1175.51954876914
31
0.0
39
0.0
210
0.0
220
0.0
230
1.0
0
LINE
5
2BE
330
70
100
AcDbEntity
67
0
8
0
62
256
6
ByLayer
370
-1
48
1.0
60
0
100
AcDbLine
10
774.311968012475
20
1175.51954876914
30
0.0
11
773.088728041693
21
1174.73659133943
31
0.0
39
0.0
210
0.0
220
0.0
230
1.0
0
LINE
5
2BF
330
70
100
AcDbEntity
67
0
8
0
62
256
6
ByLayer
370
-1
48
1.0
60
0
100
AcDbLine
10
773.088728041693
20
1174.73659133943
30
0.0
11
771.821974611358
21
1174.01214808894
31
0.0
39
0.0
210
0.0
220
0.0
230
1.0
0
LINE
5
2C0
330
70
100
AcDbEntity
67
0
8
0
62
256
6
ByLayer
370
-1
48
1.0
60
0
100
AcDbLine
10
771.821974611358
20
1174.01214808894
30
0.0
11
770.51702366064
21
1173.34906267068
31
0.0
39
0.0
210
0.0
220
0.0
230
1.0
0
LINE
5
2C1
330
70
100
AcDbEntity
67
0
8
0
62
256
6
ByLayer
370
-1
48
1.0
60
0
100
AcDbLine
10
770.51702366064
20
1173.34906267068
30
0.0
11
769.179191128709
21
1172.75017873766
31
0.0
39
0.0
210
0.0
220
0.0
230
1.0
0
LINE
5
2C2
330
70
100
AcDbEntity
67
0
8
0
62
256
6
ByLayer
370
-1
48
1.0
60
0
100
AcDbLine
10
769.179191128709
20
1172.75017873766
30
0.0
11
767.813792954736
21
1172.21833994289
31
0.0
39
0.0
210
0.0
220
0.0
230
1.0
0
LINE
5
2C3
330
70
100
AcDbEntity
67
0
8
0
62
256
6
ByLayer
370
-1
48
1.0
60
0
100
AcDbLine
10
767.813792954736
20
1172.21833994289
30
0.0
11
766.426145077891
21
1171.75638993937
31
0.0
39
0.0
210
0.0
220
0.0
230
1.0
0
LINE
5
2C4
330
70
100
AcDbEntity
67
0
8
0
62
256
6
ByLayer
370
-1
48
1.0
60
0
100
AcDbLine
10
766.426145077891
20
1171.75638993937
30
0.0
11
765.021594448917
21
1171.36713179539
31
0.0
39
0.0
210
0.0
220
0.0
230
1.0
0
LINE
5
2C5
330
70
100
AcDbEntity
67
0
8
0
62
256
6
ByLayer
370
-1
48
1.0
60
0
100
AcDbLine
10
765.021594448917
20
1171.36713179539
30
0.0
11
763.606552909548
21
1171.05141391815
31
0.0
39
0.0
210
0.0
220
0.0
230
1.0
0
LINE
5
2C6
330
70
100
AcDbEntity
67
0
8
0
62
256
6
ByLayer
370
-1
48
1.0
60
0
100
AcDbLine
10
763.606552909548
20
1171.05141391815
30
0.0
11
762.187916784636
21
1170.80803245028
31
0.0
39
0.0
210
0.0
220
0.0
230
1.0
0
LINE
5
2C7
330
70
100
AcDbEntity
67
0
8
0
62
256
6
ByLayer
370
-1
48
1.0
60
0
100
AcDbLine
10
762.187916784636
20
1170.80803245028
30
0.0
11
760.7724057034
21
1170.63580377175
31
0.0
39
0.0
210
0.0
220
0.0
230
1.0
0
LINE
5
2C8
330
70
100
AcDbEntity
67
0
8
0
62
256
6
ByLayer
370
-1
48
1.0
60
0
100
AcDbLine
10
760.7724057034
20
1170.63580377175
30
0.0
11
759.366739295054
21
1170.53354426253
31
0.0
39
0.0
210
0.0
220
0.0
230
1.0
0
LINE
5
2C9
330
70
100
AcDbEntity
67
0
8
0
62
256
6
ByLayer
370
-1
48
1.0
60
0
100
AcDbLine
10
759.366739295054
20
1170.53354426253
30
0.0
11
757.976274428362
21
1170.49999396187
31
0.0
39
0.0
210
0.0
220
0.0
230
1.0
0
LINE
5
2CA
330
70
100
AcDbEntity
67
0
8
0
62
256
6
ByLayer
370
-1
48
1.0
60
0
100
AcDbLine
10
757.976274428362
20
1170.49999396187
30
0.0
11
756.582335169969
21
1170.53347461932
31
0.0
39
0.0
210
0.0
220
0.0
230
1.0
0
LINE
5
2CB
330
70
100
AcDbEntity
67
0
8
0
62
256
6
ByLayer
370
-1
48
1.0
60
0
100
AcDbLine
10
756.582335169969
20
1170.53347461932
30
0.0
11
755.178384675091
21
1170.63515660626
31
0.0
39
0.0
210
0.0
220
0.0
230
1.0
0
LINE
5
2CC
330
70
100
AcDbEntity
67
0
8
0
62
256
6
ByLayer
370
-1
48
1.0
60
0
100
AcDbLine
10
755.178384675091
20
1170.63515660626
30
0.0
11
753.76630059896
21
1170.80697270063
31
0.0
39
0.0
210
0.0
220
0.0
230
1.0
0
LINE
5
2CD
330
70
100
AcDbEntity
67
0
8
0
62
256
6
ByLayer
370
-1
48
1.0
60
0
100
AcDbLine
10
753.76630059896
20
1170.80697270063
30
0.0
11
752.348715742552
21
1171.05105356119
31
0.0
39
0.0
210
0.0
220
0.0
230
1.0
0
LINE
5
2CE
330
70
100
AcDbEntity
67
0
8
0
62
256
6
ByLayer
370
-1
48
1.0
60
0
100
AcDbLine
10
752.348715742552
20
1171.05105356119
30
0.0
11
750.934780701237
21
1171.36951446623
31
0.0
39
0.0
210
0.0
220
0.0
230
1.0
0
LINE
5
2CF
330
70
100
AcDbEntity
67
0
8
0
62
256
6
ByLayer
370
-1
48
1.0
60
0
100
AcDbLine
10
750.934780701237
20
1171.36951446623
30
0.0
11
749.531217745323
21
1171.76079649882
31
0.0
39
0.0
210
0.0
220
0.0
230
1.0
0
LINE
5
2D0
330
70
100
AcDbEntity
67
0
8
0
62
256
6
ByLayer
370
-1
48
1.0
60
0
100
AcDbLine
10
749.531217745323
20
1171.76079649882
30
0.0
11
748.143663106424
21
1172.22278735816
31
0.0
39
0.0
210
0.0
220
0.0
230
1.0
0
LINE
5
2D1
330
70
100
AcDbEntity
67
0
8
0
62
256
6
ByLayer
370
-1
48
1.0
60
0
100
AcDbLine
10
748.143663106424
20
1172.22278735816
30
0.0
11
746.777753016155
21
1172.75337474347
31
0.0
39
0.0
210
0.0
220
0.0
230
1.0
0
LINE
5
2D2
330
70
100
AcDbEntity
67
0
8
0
62
256
6
ByLayer
370
-1
48
1.0
60
0
100
AcDbLine
10
746.777753016155
20
1172.75337474347
30
0.0
11
745.439123706128
21
1173.35044635396
31
0.0
39
0.0
210
0.0
220
0.0
230
1.0
0
LINE
5
2D3
330
70
100
AcDbEntity
67
0
8
0
62
256
6
ByLayer
370
-1
48
1.0
60
0
100
AcDbLine
10
745.439123706128
20
1173.35044635396
30
0.0
11
744.133411407959
21
1174.01188988885
31
0.0
39
0.0
210
0.0
220
0.0
230
1.0
0
LINE
5
2D4
330
70
100
AcDbEntity
67
0
8
0
62
256
6
ByLayer
370
-1
48
1.0
60
0
100
AcDbLine
10
744.133411407959
20
1174.01188988885
30
0.0
11
742.86625235326
21
1174.73559304736
31
0.0
39
0.0
210
0.0
220
0.0
230
1.0
0
LINE
5
2D5
330
70
100
AcDbEntity
67
0
8
0
62
256
6
ByLayer
370
-1
48
1.0
60
0
100
AcDbLine
10
742.86625235326
20
1174.73559304736
30
0.0
11
741.643256077231
21
1175.51935194577
31
0.0
39
0.0
210
0.0
220
0.0
230
1.0
0
LINE
5
2D6
330
70
100
AcDbEntity
67
0
8
0
62
256
6
ByLayer
370
-1
48
1.0
60
0
100
AcDbLine
10
741.643256077231
20
1175.51935194577
30
0.0
11
740.468957969886
21
1176.35801588713
31
0.0
39
0.0
210
0.0
220
0.0
230
1.0
0
LINE
5
2D7
330
70
100
AcDbEntity
67
0
8
0
62
256
6
ByLayer
370
-1
48
1.0
60
0
100
AcDbLine
10
740.468957969886
20
1176.35801588713
30
0.0
11
739.346968850541
21
1177.24509348682
31
0.0
39
0.0
210
0.0
220
0.0
230
1.0
0
LINE
5
2D8
330
70
100
AcDbEntity
67
0
8
0
62
256
6
ByLayer
370
-1
48
1.0
60
0
100
AcDbLine
10
739.346968850541
20
1177.24509348682
30
0.0
11
738.280955574547
21
1178.17455151864
31
0.0
39
0.0
210
0.0
220
0.0
230
1.0
0
LINE
5
2D9
330
70
100
AcDbEntity
67
0
8
0
62
256
6
ByLayer
370
-1
48
1.0
60
0
100
AcDbLine
10
738.280955574547
20
1178.17455151864
30
0.0
11
737.274568877761
21
1179.14037264908
31
0.0
39
0.0
210
0.0
220
0.0
230
1.0
0
LINE
5
2DA
330
70
100
AcDbEntity
67
0
8
0
62
256
6
ByLayer
370
-1
48
1.0
60
0
100
AcDbLine
10
737.274568877761
20
1179.14037264908
30
0.0
11
736.314585223191
21
1180.15407491994
31
0.0
39
0.0
210
0.0
220
0.0
230
1.0
0
LINE
5
2DB
330
70
100
AcDbEntity
67
0
8
0
62
256
6
ByLayer
370
-1
48
1.0
60
0
100
AcDbLine
10
736.314585223191
20
1180.15407491994
30
0.0
11
735.391171716159
21
1181.22720986596
31
0.0
39
0.0
210
0.0
220
0.0
230
1.0
0
LINE
5
2DC
330
70
100
AcDbEntity
67
0
8
0
62
256
6
ByLayer
370
-1
48
1.0
60
0
100
AcDbLine
10
735.391171716159
20
1181.22720986596
30
0.0
11
734.510082183061
21
1182.35675380627
31
0.0
39
0.0
210
0.0
220
0.0
230
1.0
0
LINE
5
2DD
330
70
100
AcDbEntity
67
0
8
0
62
256
6
ByLayer
370
-1
48
1.0
60
0
100
AcDbLine
10
734.510082183061
20
1182.35675380627
30
0.0
11
733.677360353555
21
1183.53968356108
31
0.0
39
0.0
210
0.0
220
0.0
230
1.0
0
LINE
5
2DE
330
70
100
AcDbEntity
67
0
8
0
62
256
6
ByLayer
370
-1
48
1.0
60
0
100
AcDbLine
10
733.677360353555
20
1183.53968356108
30
0.0
11
732.899870815545
21
1184.77211920586
31
0.0
39
0.0
210
0.0
220
0.0
230
1.0
0
LINE
5
2DF
330
70
100
AcDbEntity
67
0
8
0
62
256
6
ByLayer
370
-1
48
1.0
60
0
100
AcDbLine
10
732.899870815545
20
1184.77211920586
30
0.0
11
732.180786847836
21
1186.04868283486
31
0.0
39
0.0
210
0.0
220
0.0
230
1.0
0
LINE
5
2E0
330
70
100
AcDbEntity
67
0
8
0
62
256
6
ByLayer
370
-1
48
1.0
60
0
100
AcDbLine
10
732.180786847836
20
1186.04868283486
30
0.0
11
731.522649812762
21
1187.36386648285
31
0.0
39
0.0
210
0.0
220
0.0
230
1.0
0
LINE
5
2E1
330
70
100
AcDbEntity
67
0
8
0
62
256
6
ByLayer
370
-1
48
1.0
60
0
100
AcDbLine
10
731.522649812762
20
1187.36386648285
30
0.0
11
730.928001072653
21
1188.71216218463
31
0.0
39
0.0
210
0.0
220
0.0
230
1.0
0
LINE
5
2E2
330
70
100
AcDbEntity
67
0
8
0
62
256
6
ByLayer
370
-1
48
1.0
60
0
100
AcDbLine
10
730.928001072653
20
1188.71216218463
30
0.0
11
730.399381989842
21
1190.08806197498
31
0.0
39
0.0
210
0.0
220
0.0
230
1.0
0
LINE
5
2E3
330
70
100
AcDbEntity
67
0
8
0
62
256
6
ByLayer
370
-1
48
1.0
60
0
100
AcDbLine
10
730.399381989842
20
1190.08806197498
30
0.0
11
729.939333926662
21
1191.48605788869
31
0.0
39
0.0
210
0.0
220
0.0
230
1.0
0
LINE
5
2E4
330
70
100
AcDbEntity
67
0
8
0
62
256
6
ByLayer
370
-1
48
1.0
60
0
100
AcDbLine
10
729.939333926662
20
1191.48605788869
30
0.0
11
729.550398245444
21
1192.90064196055
31
0.0
39
0.0
210
0.0
220
0.0
230
1.0
0
LINE
5
2E5
330
70
100
AcDbEntity
67
0
8
0
62
256
6
ByLayer
370
-1
48
1.0
60
0
100
AcDbLine
10
729.550398245444
20
1192.90064196055
30
0.0
11
729.23503935896
21
1194.32626553345
31
0.0
39
0.0
210
0.0
220
0.0
230
1.0
0
LINE
5
2E6
330
70
100
AcDbEntity
67
0
8
0
62
256
6
ByLayer
370
-1
48
1.0
60
0
100
AcDbLine
10
729.23503935896
20
1194.32626553345
30
0.0
11
728.992858848262
21
1195.75606851109
31
0.0
39
0.0
210
0.0
220
0.0
230
1.0
0
LINE
5
2E7
330
70
100
AcDbEntity
67
0
8
0
62
256
6
ByLayer
370
-1
48
1.0
60
0
100
AcDbLine
10
728.992858848262
20
1195.75606851109
30
0.0
11
728.821885764263
21
1197.1828758977
31
0.0
39
0.0
210
0.0
220
0.0
230
1.0
0
LINE
5
2E8
330
70
100
AcDbEntity
67
0
8
0
62
256
6
ByLayer
370
-1
48
1.0
60
0
100
AcDbLine
10
728.821885764263
20
1197.1828758977
30
0.0
11
728.720568439108
21
1198.59981222812
31
0.0
39
0.0
210
0.0
220
0.0
230
1.0
0
LINE
5
2E9
330
70
100
AcDbEntity
67
0
8
0
62
256
6
ByLayer
370
-1
48
1.0
60
0
100
AcDbLine
10
728.720568439108
20
1198.59981222812
30
0.0
11
728.68731602742
21
1200.0000002
31
0.0
39
0.0
210
0.0
220
0.0
230
1.0
0
LINE
5
2EA
330
70
100
AcDbEntity
67
0
8
0
62
256
6
ByLayer
370
-1
48
1.0
60
0
100
AcDbLine
10
757.977904555483
20
1229.50000782097
30
0.0
11
759.372213778478
21
1229.46657060814
31
0.0
39
0.0
210
0.0
220
0.0
230
1.0
0
LINE
5
2EB
330
70
100
AcDbEntity
67
0
8
0
62
256
6
ByLayer
370
-1
48
1.0
60
0
100
AcDbLine
10
759.372213778478
20
1229.46657060814
30
0.0
11
760.776229655868
21
1229.36492356519
31
0.0
39
0.0
210
0.0
220
0.0
230
1.0
0
LINE
5
2EC
330
70
100
AcDbEntity
67
0
8
0
62
256
6
ByLayer
370
-1
48
1.0
60
0
100
AcDbLine
10
760.776229655868
20
1229.36492356519
30
0.0
11
762.188097872302
21
1229.19316797012
31
0.0
39
0.0
210
0.0
220
0.0
230
1.0
0
LINE
5
2ED
330
70
100
AcDbEntity
67
0
8
0
62
256
6
ByLayer
370
-1
48
1.0
60
0
100
AcDbLine
10
762.188097872302
20
1229.19316797012
30
0.0
11
763.605492590166
21
1228.94930320256
31
0.0
39
0.0
210
0.0
220
0.0
230
1.0
0
LINE
5
2EE
330
70
100
AcDbEntity
67
0
8
0
62
256
6
ByLayer
370
-1
48
1.0
60
0
100
AcDbLine
10
763.605492590166
20
1228.94930320256
30
0.0
11
765.019648904317
21
1228.63135701044
31
0.0
39
0.0
210
0.0
220
0.0
230
1.0
0
LINE
5
2EF
330
70
100
AcDbEntity
67
0
8
0
62
256
6
ByLayer
370
-1
48
1.0
60
0
100
AcDbLine
10
765.019648904317
20
1228.63135701044
30
0.0
11
766.423458937798
21
1228.24066896708
31
0.0
39
0.0
210
0.0
220
0.0
230
1.0
0
LINE
5
2F0
330
70
100
AcDbEntity
67
0
8
0
62
256
6
ByLayer
370
-1
48
1.0
60
0
100
AcDbLine
10
766.423458937798
20
1228.24066896708
30
0.0
11
767.811243572903
21
1227.77922442993
31
0.0
39
0.0
210
0.0
220
0.0
230
1.0
0
LINE
5
2F1
330
70
100
AcDbEntity
67
0
8
0
62
256
6
ByLayer
370
-1
48
1.0
60
0
100
AcDbLine
10
767.811243572903
20
1227.77922442993
30
0.0
11
769.177323691929
21
1227.24900875645
31
0.0
39
0.0
210
0.0
220
0.0
230
1.0
0
LINE
5
2F2
330
70
100
AcDbEntity
67
0
8
0
62
256
6
ByLayer
370
-1
48
1.0
60
0
100
AcDbLine
10
769.177323691929
20
1227.24900875645
30
0.0
11
770.516020177172
21
1226.6520073041
31
0.0
39
0.0
210
0.0
220
0.0
230
1.0
0
LINE
5
2F3
330
70
100
AcDbEntity
67
0
8
0
62
256
6
ByLayer
370
-1
48
1.0
60
0
100
AcDbLine
10
770.516020177172
20
1226.6520073041
30
0.0
11
771.821653910928
21
1225.99020543034
31
0.0
39
0.0
210
0.0
220
0.0
230
1.0
0
LINE
5
2F4
330
70
100
AcDbEntity
67
0
8
0
62
256
6
ByLayer
370
-1
48
1.0
60
0
100
AcDbLine
10
771.821653910928
20
1225.99020543034
30
0.0
11
773.088545775493
21
1225.26558849261
31
0.0
39
0.0
210
0.0
220
0.0
230
1.0
0
LINE
5
2F5
330
70
100
AcDbEntity
67
0
8
0
62
256
6
ByLayer
370
-1
48
1.0
60
0
100
AcDbLine
10
773.088545775493
20
1225.26558849261
30
0.0
11
774.311230951446
21
1224.48092335383
31
0.0
39
0.0
210
0.0
220
0.0
230
1.0
0
LINE
5
2F6
330
70
100
AcDbEntity
67
0
8
0
62
256
6
ByLayer
370
-1
48
1.0
60
0
100
AcDbLine
10
774.311230951446
20
1224.48092335383
30
0.0
11
775.485531226763
21
1223.64215723286
31
0.0
39
0.0
210
0.0
220
0.0
230
1.0
0
LINE
5
2F7
330
70
100
AcDbEntity
67
0
8
0
62
256
6
ByLayer
370
-1
48
1.0
60
0
100
AcDbLine
10
775.485531226763
20
1223.64215723286
30
0.0
11
776.607661832286
21
1222.75519656746
31
0.0
39
0.0
210
0.0
220
0.0
230
1.0
0
LINE
5
2F8
330
70
100
AcDbEntity
67
0
8
0
62
256
6
ByLayer
370
-1
48
1.0
60
0
100
AcDbLine
10
776.607661832286
20
1222.75519656746
30
0.0
11
777.673831878751
21
1221.82588928817
31
0.0
39
0.0
210
0.0
220
0.0
230
1.0
0
LINE
5
2F9
330
70
100
AcDbEntity
67
0
8
0
62
256
6
ByLayer
370
-1
48
1.0
60
0
100
AcDbLine
10
777.673831878751
20
1221.82588928817
30
0.0
11
778.680515277223
21
1220.8598305644
31
0.0
39
0.0
210
0.0
220
0.0
230
1.0
0
LINE
5
2FA
330
70
100
AcDbEntity
67
0
8
0
62
256
6
ByLayer
370
-1
48
1.0
60
0
100
AcDbLine
10
778.680515277223
20
1220.8598305644
30
0.0
11
779.642002536578
21
1219.84459637645
31
0.0
39
0.0
210
0.0
220
0.0
230
1.0
0
LINE
5
2FB
330
70
100
AcDbEntity
67
0
8
0
62
256
6
ByLayer
370
-1
48
1.0
60
0
100
AcDbLine
10
779.642002536578
20
1219.84459637645
30
0.0
11
780.565039700302
21
1218.77184148603
31
0.0
39
0.0
210
0.0
220
0.0
230
1.0
0
LINE
5
2FC
330
70
100
AcDbEntity
67
0
8
0
62
256
6
ByLayer
370
-1
48
1.0
60
0
100
AcDbLine
10
780.565039700302
20
1218.77184148603
30
0.0
11
781.445195836716
21
1217.64329844614
31
0.0
39
0.0
210
0.0
220
0.0
230
1.0
0
LINE
5
2FD
330
70
100
AcDbEntity
67
0
8
0
62
256
6
ByLayer
370
-1
48
1.0
60
0
100
AcDbLine
10
781.445195836716
20
1217.64329844614
30
0.0
11
782.277795164521
21
1216.4607898694
31
0.0
39
0.0
210
0.0
220
0.0
230
1.0
0
LINE
5
2FE
330
70
100
AcDbEntity
67
0
8
0
62
256
6
ByLayer
370
-1
48
1.0
60
0
100
AcDbLine
10
782.277795164521
20
1216.4607898694
30
0.0
11
783.05553360758
21
1215.22841752489
31
0.0
39
0.0
210
0.0
220
0.0
230
1.0
0
LINE
5
2FF
330
70
100
AcDbEntity
67
0
8
0
62
256
6
ByLayer
370
-1
48
1.0
60
0
100
AcDbLine
10
783.05553360758
20
1215.22841752489
30
0.0
11
783.77467312098
21
1213.95183244351
31
0.0
39
0.0
210
0.0
220
0.0
230
1.0
0
LINE
5
300
330
70
100
AcDbEntity
67
0
8
0
62
256
6
ByLayer
370
-1
48
1.0
60
0
100
AcDbLine
10
783.77467312098
20
1213.95183244351
30
0.0
11
784.432736376514
21
1212.63657089685
31
0.0
39
0.0
210
0.0
220
0.0
230
1.0
0
LINE
5
301
330
70
100
AcDbEntity
67
0
8
0
62
256
6
ByLayer
370
-1
48
1.0
60
0
100
AcDbLine
10
784.432736376514
20
1212.63657089685
30
0.0
11
785.027246045975
21
1211.28816915655
31
0.0
39
0.0
210
0.0
220
0.0
230
1.0
0
LINE
5
302
330
70
100
AcDbEntity
67
0
8
0
62
256
6
ByLayer
370
-1
48
1.0
60
0
100
AcDbLine
10
785.027246045975
20
1211.28816915655
30
0.0
11
785.555724801156
21
1209.91216349422
31
0.0
39
0.0
210
0.0
220
0.0
230
1.0
0
LINE
5
303
330
70
100
AcDbEntity
67
0
8
0
62
256
6
ByLayer
370
-1
48
1.0
60
0
100
AcDbLine
10
785.555724801156
20
1209.91216349422
30
0.0
11
786.015695313849
21
1208.51409018145
31
0.0
39
0.0
210
0.0
220
0.0
230
1.0
0
LINE
5
304
330
70
100
AcDbEntity
67
0
8
0
62
256
6
ByLayer
370
-1
48
1.0
60
0
100
AcDbLine
10
786.015695313849
20
1208.51409018145
30
0.0
11
786.404680255848
21
1207.09948548987
31
0.0
39
0.0
210
0.0
220
0.0
230
1.0
0
LINE
5
305
330
70
100
AcDbEntity
67
0
8
0
62
256
6
ByLayer
370
-1
48
1.0
60
0
100
AcDbLine
10
786.404680255848
20
1207.09948548987
30
0.0
11
786.720231111107
21
1205.67390165835
31
0.0
39
0.0
210
0.0
220
0.0
230
1.0
0
LINE
5
306
330
70
100
AcDbEntity
67
0
8
0
62
256
6
ByLayer
370
-1
48
1.0
60
0
100
AcDbLine
10
786.720231111107
20
1205.67390165835
30
0.0
11
786.96239601513
21
1204.24406385042
31
0.0
39
0.0
210
0.0
220
0.0
230
1.0
0
LINE
5
307
330
70
100
AcDbEntity
67
0
8
0
62
256
6
ByLayer
370
-1
48
1.0
60
0
100
AcDbLine
10
786.96239601513
20
1204.24406385042
30
0.0
11
787.13328468176
21
1202.81720961262
31
0.0
39
0.0
210
0.0
220
0.0
230
1.0
0
LINE
5
308
330
70
100
AcDbEntity
67
0
8
0
62
256
6
ByLayer
370
-1
48
1.0
60
0
100
AcDbLine
10
787.13328468176
20
1202.81720961262
30
0.0
11
787.234582171039
21
1201.4002260331
31
0.0
39
0.0
210
0.0
220
0.0
230
1.0
0
LINE
5
309
330
70
100
AcDbEntity
67
0
8
0
62
256
6
ByLayer
370
-1
48
1.0
60
0
100
AcDbLine
10
787.234582171039
20
1201.4002260331
30
0.0
11
787.267973543012
21
1200.0000002
31
0.0
39
0.0
210
0.0
220
0.0
230
1.0
0
LWPOLYLINE
5
30B
330
70
100
AcDbEntity
67
0
8
IV_OUTER_PROFILE
62
256
6
ByLayer
370
-1
48
1.0
60
0
100
AcDbPolyline
90
4
70
129
38
0.0
39
0.0
10
0.0000002000004735
20
1400.0000002
40
0.0
41
0.0
42
0.0
10
2648.50635249339
20
1400.0000002
40
0.0
41
0.0
42
0.0
10
2648.50635249339
20
0.0000002000001587
40
0.0
41
0.0
42
0.0
10
0.0000002000001587
20
0.0000002000007271
40
0.0
41
0.0
42
0.0
210
0.0
220
0.0
230
1.0
0
LWPOLYLINE
5
312
330
70
100
AcDbEntity
67
0
8
IV_INTERIOR_PROFILES
62
256
6
ByLayer
370
-1
48
1.0
60
0
100
AcDbPolyline
90
4
70
129
38
0.0
39
0.0
10
323.097588081176
20
1225.0000002
40
0.0
41
0.0
42
0.0
10
530.547138259456
20
1225.0000002
40
0.0
41
0.0
42
0.0
10
530.547138259456
20
1100.0000002
40
0.0
41
0.0
42
0.0
10
323.097588081176
20
1100.0000002
40
0.0
41
0.0
42
0.0
210
0.0
220
0.0
230
1.0
0
MTEXT
5
37A
330
70
100
AcDbEntity
67
0
8
AutoDXF_Text
62
256
6
ByLayer
370
-1
48
1.0
60
0
100
AcDbMText
10
1324.25317634669
20
700.000000200001
30
0.0
210
0.0
220
0.0
230
1.0
1
th=6\Pmat=Steel\Pqty=4\PPN=PNS 9110 main Shell D 940\PSN=\Punit=millimeter\Pitem=18\PFPlen=2648,51\PFPwid=1400\PProject=
40
5.0
41
0.0
44
1.0
11
1.0
21
0.0
31
0.0
71
5
72
5
73
1
7
Standard
0
MTEXT
5
380
330
70
100
AcDbEntity
67
0
8
AutoDXF_BendInfo
62
256
6
ByLayer
370
-1
48
1.0
60
0
100
AcDbMText
10
1323.00317634669
20
700.0000002
30
0.0
210
0.0
220
0.0
230
1.0
1
359,9 - DOWN - R419
40
5.0
41
0.0
44
1.0
11
0.0000000000000001
21
1.0
31
0.0
71
8
72
5
73
1
7
Standard
0
ENDSEC
0
SECTION
2
OBJECTS
0
DICTIONARY
5
385
330
0
100
AcDbDictionary
280
1
281
1
3
ACAD_GROUP
350
D
3
ACAD_LAYOUT
350
62
3
ACAD_DGNDEFINITIONS
350
374
3
ACAD_DWFDEFINITIONS
350
375
3
ACAD_PDFDEFINITIONS
350
376
3
ACAD_MLINESTYLE
350
5F
3
ACAD_IMAGE_DICT
350
373
3
ACAD_IMAGE_VARS
350
377
0
DICTIONARY
5
D
330
385
100
AcDbDictionary
280
1
281
1
0
DICTIONARY
5
62
330
385
100
AcDbDictionary
280
1
281
1
3
Layout1
350
6F
3
Layout2
350
77
3
Model
350
73
0
DICTIONARY
5
374
330
385
100
AcDbDictionary
280
1
281
1
0
DICTIONARY
5
375
330
385
100
AcDbDictionary
280
1
281
1
0
DICTIONARY
5
376
330
385
100
AcDbDictionary
280
1
281
1
0
DICTIONARY
5
5F
330
385
100
AcDbDictionary
280
1
281
1
3
STANDARD
350
60
0
DICTIONARY
5
373
330
385
100
AcDbDictionary
280
1
281
1
0
DICTIONARY
5
371
330
2
100
AcDbDictionary
280
1
281
1
3
ACAD_LAYERSTATES
360
386
0
DICTIONARY
5
386
330
371
100
AcDbDictionary
280
1
281
1
0
LAYOUT
5
6F
330
62
100
AcDbPlotSettings
1

2

4

6

40
0.0
41
0.0
42
0.0
43
0.0
44
0.0
45
0.0
46
0.0
47
0.0
48
0.0
49
0.0
140
0.0
141
0.0
142
1.0
143
1.0
70
688
72
0
73
0
74
5
7

75
16
76
0
77
2
78
300
147
1.0
148
0.0
149
0.0
100
AcDbLayout
1
Layout1
71
1
10
0.0
20
0.0
11
12.0
21
9.0
12
0.0
22
0.0
32
0.0
14
0.0
24
0.0
34
0.0
15
0.0
25
0.0
35
0.0
146
0.0
13
0.0
23
0.0
33
0.0
16
1.0
26
0.0
36
0.0
17
0.0
27
1.0
37
0.0
76
0
330
6C
0
LAYOUT
5
77
330
62
100
AcDbPlotSettings
1

2

4

6

40
0.0
41
0.0
42
0.0
43
0.0
44
0.0
45
0.0
46
0.0
47
0.0
48
0.0
49
0.0
140
0.0
141
0.0
142
1.0
143
1.0
70
688
72
0
73
0
74
5
7

75
16
76
0
77
2
78
300
147
1.0
148
0.0
149
0.0
100
AcDbLayout
1
Layout2
71
2
10
0.0
20
0.0
11
12.0
21
9.0
12
0.0
22
0.0
32
0.0
14
0.0
24
0.0
34
0.0
15
0.0
25
0.0
35
0.0
146
0.0
13
0.0
23
0.0
33
0.0
16
1.0
26
0.0
36
0.0
17
0.0
27
1.0
37
0.0
76
0
330
74
0
LAYOUT
5
73
330
62
100
AcDbPlotSettings
1

2

4

6

40
0.0
41
0.0
42
0.0
43
0.0
44
0.0
45
0.0
46
0.0
47
0.0
48
0.0
49
0.0
140
0.0
141
0.0
142
1.0
143
1.0
70
1712
72
0
73
0
74
0
7

75
0
76
0
77
2
78
300
147
1.0
148
0.0
149
0.0
100
AcDbLayout
1
Model
71
3
10
0.0
20
0.0
11
12.0
21
9.0
12
0.0
22
0.0
32
0.0
14
0.0
24
0.0
34
0.0
15
0.0
25
0.0
35
0.0
146
0.0
13
0.0
23
0.0
33
0.0
16
1.0
26
0.0
36
0.0
17
0.0
27
1.0
37
0.0
76
0
330
70
0
MLINESTYLE
5
60
330
5F
100
AcDbMlineStyle
2
STANDARD
70
0
3

62
256
51
90.0
52
90.0
71
2
49
0.5
62
256
6
ByLayer
49
-0.5
62
256
6
ByLayer
0
RASTERVARIABLES
5
377
330
373
100
AcDbRasterVariables
90
0
70
1
71
1
72
0
0
ENDSEC
0
EOF
